<?xml version="1.0" encoding="UTF-8"?>
<svg width="42px" height="54px" viewBox="0 0 42 54" version="1.1" xmlns="http://www.w3.org/2000/svg" xmlns:xlink="http://www.w3.org/1999/xlink">
    <title>Path</title>
    <g id="Page-1" stroke="none" stroke-width="1" fill="none" fill-rule="evenodd">
        <g id="logo-mobile" transform="translate(-82.280000, 0.872000)" fill="#FFFFFF" fill-rule="nonzero">
            <path d="M123.936,50.4 C118.896,52.032 114.192,52.848 109.824,52.848 C101.76,52.848 95.208,50.496 90.168,45.792 C85.128,41.088 82.608,34.656 82.608,26.496 C82.608,18.432 84.972,12 89.7,7.2 C94.428,2.4 100.464,0 107.808,0 C112.848,0 117.216,0.72 120.912,2.16 L120.192,8.352 C115.92,6.432 111.816,5.472 107.88,5.472 C102.264,5.472 97.704,7.272 94.2,10.872 C90.696,14.472 88.944,19.728 88.944,26.64 C88.944,33.216 90.852,38.316 94.668,41.94 C98.484,45.564 103.512,47.376 109.752,47.376 C112.056,47.376 114.84,47.064 118.104,46.44 L118.104,31.248 L107.16,31.248 L107.16,25.92 L123.936,25.92 L123.936,50.4 Z" id="Path"></path>
        </g>
    </g>
</svg>