<?xml version="1.0" encoding="UTF-8"?>
<svg width="34px" height="54px" viewBox="0 0 34 54" version="1.1" xmlns="http://www.w3.org/2000/svg" xmlns:xlink="http://www.w3.org/1999/xlink">
    <title>Path</title>
    <g id="Page-1" stroke="none" stroke-width="1" fill="none" fill-rule="evenodd">
        <g id="logo-mobile" transform="translate(-148.280000, 0.872000)" fill="#FFFFFF" fill-rule="nonzero">
            <path d="M181.344,39.024 C181.344,43.248 179.76,46.608 176.592,49.104 C173.424,51.6 169.032,52.848 163.416,52.848 C158.28,52.848 153.36,51.648 148.656,49.248 L149.376,42.84 C154.464,45.864 159.216,47.376 163.632,47.376 C167.28,47.376 170.112,46.62 172.128,45.108 C174.144,43.596 175.152,41.592 175.152,39.096 C175.152,35.256 173.016,32.424 168.744,30.6 L159.96,26.928 C156.36,25.392 153.684,23.568 151.932,21.456 C150.18,19.344 149.304,16.68 149.304,13.464 C149.304,9.576 150.852,6.36 153.948,3.816 C157.044,1.272 161.04,0 165.936,0 C170.736,0 175.344,1.032 179.76,3.096 L178.464,9.36 C174.336,6.768 170.184,5.472 166.008,5.472 C162.648,5.472 160.032,6.228 158.16,7.74 C156.288,9.252 155.352,11.16 155.352,13.464 C155.352,15.432 155.916,16.98 157.044,18.108 C158.172,19.236 159.864,20.256 162.12,21.168 L171.048,24.84 C177.912,27.672 181.344,32.4 181.344,39.024 Z" id="Path"></path>
        </g>
    </g>
</svg>