<?xml version="1.0" standalone="no"?>
<!DOCTYPE svg PUBLIC "-//W3C//DTD SVG 1.1//EN" "http://www.w3.org/Graphics/SVG/1.1/DTD/svg11.dtd" >
<svg xmlns="http://www.w3.org/2000/svg" xmlns:xlink="http://www.w3.org/1999/xlink" version="1.1">
<metadata>
Created by FontForge 20170731 at Mon Jun 14 15:19:18 2021
 By Aleksey,,,
Generated in 2010 by FontLab Studio. Copyright info pending.
</metadata>
<defs>
<font id="AnoHalf-Regular" horiz-adv-x="409" >
  <font-face 
    font-family="Ano Half"
    font-weight="400"
    font-stretch="normal"
    units-per-em="2048"
    panose-1="0 0 0 0 0 0 0 0 0 0"
    ascent="1638"
    descent="-410"
    x-height="922"
    cap-height="1536"
    bbox="-111 -575 2488 1966"
    underline-thickness="40"
    underline-position="-312"
    unicode-range="U+0020-2212"
  />
<missing-glyph 
 />
    <glyph glyph-name=".notdef" 
 />
    <glyph glyph-name=".null" horiz-adv-x="0" 
 />
    <glyph glyph-name="nonmarkingreturn" horiz-adv-x="682" 
 />
    <glyph glyph-name="space" unicode=" " 
 />
    <glyph glyph-name="exclam" unicode="!" 
d="M246 1577v-1085h-82v1085h82zM246 246v-246h-82v246h82z" />
    <glyph glyph-name="quotedbl" unicode="&#x22;" horiz-adv-x="655" 
d="M492 1536v-471h-82v471h82zM246 1536v-471h-82v471h82z" />
    <glyph glyph-name="numbersign" unicode="#" horiz-adv-x="1206" 
d="M877 1008h229l-14 -72h-232l-72 -338h230l-14 -72h-230l-112 -526h-82l112 526h-276l-113 -526h-82l113 526h-232l15 72h231l72 338h-230l15 72h231l111 528h82l-111 -528h277l110 528h82zM707 598l71 338h-276l-72 -338h277z" />
    <glyph glyph-name="dollar" unicode="$" horiz-adv-x="1210" 
d="M1069 391q0 -80 -30 -155t-85.5 -135.5t-142.5 -99t-193 -42.5v-246h-77v248q-103 9 -191 51t-155.5 123.5t-92.5 190.5l70 28q31 -142 133 -224.5t236 -96.5v737l-70 16q-169 38 -257.5 147.5t-88.5 244.5q0 73 27.5 142t78.5 124.5t131.5 91.5t178.5 41v246h77v-248
q71 -6 137 -30.5t123 -65.5t99 -104t61 -140l-67 -27q-28 129 -126.5 205.5t-226.5 89.5v-669l80 -19q180 -42 275.5 -160.5t95.5 -263.5zM487 864l54 -12v651q-155 -9 -245.5 -104t-90.5 -219q0 -109 71.5 -196.5t210.5 -119.5zM987 389q0 120 -78 216.5t-227 131.5l-64 15
v-721q170 9 269.5 114t99.5 244z" />
    <glyph glyph-name="percent" unicode="%" horiz-adv-x="1656" 
d="M836 1200q0 -155 -111 -265t-266 -110q-157 0 -267 110t-110 265q0 157 110 267t267 110q156 0 266.5 -110.5t110.5 -266.5zM1221 1577l65 -35l-848 -1583l-65 35zM1577 336q0 -157 -110 -267t-267 -110q-156 0 -266.5 110.5t-110.5 266.5q0 155 111 265t266 110
q157 0 267 -110t110 -265zM754 1200q0 124 -87 214.5t-208 90.5q-122 0 -208.5 -90.5t-86.5 -214.5q0 -123 86.5 -213t208.5 -90q121 0 208 90.5t87 212.5zM1495 336q0 123 -86.5 213t-208.5 90q-121 0 -208 -90.5t-87 -212.5q0 -124 87 -214.5t208 -90.5q122 0 208.5 90.5
t86.5 214.5z" />
    <glyph glyph-name="ampersand" unicode="&#x26;" horiz-adv-x="1173" 
d="M1176 584v-72h-199v-131q0 -102 -39 -184t-103.5 -133t-144.5 -78t-166 -27q-105 0 -192.5 35t-143 93.5t-86 131.5t-30.5 152q0 132 82.5 243t236.5 152q-128 41 -208.5 145.5t-80.5 241.5q0 174 124 298t298 124q152 0 268 -96t146 -242l-72 -29q-24 123 -121.5 209
t-220.5 86q-141 0 -240.5 -102.5t-99.5 -247.5q0 -146 99.5 -248t240.5 -102v-72q-87 0 -158 -31t-115.5 -82.5t-68.5 -115t-24 -131.5q0 -66 22.5 -126t66 -108.5t115.5 -77t162 -28.5q70 0 135.5 22.5t118.5 64.5t85 110.5t32 152.5v131h-176v72h457z" />
    <glyph glyph-name="quotesingle" unicode="'" 
d="M246 1536v-471h-82v471h82z" />
    <glyph glyph-name="parenleft" unicode="(" horiz-adv-x="718" 
d="M616 -63l-14 -54q-98 20 -180 79t-140.5 144.5t-99.5 193.5t-60.5 226t-19.5 242t19.5 242t60.5 226t99.5 193.5t140.5 144.5t180 79l14 -54q-106 -28 -190.5 -109t-137 -195t-80.5 -248.5t-28 -278.5t28 -278.5t80.5 -248.5t137 -195t190.5 -109z" />
    <glyph glyph-name="parenright" unicode=")" horiz-adv-x="718" 
d="M616 768q0 -156 -31.5 -301.5t-92 -268t-157.5 -206.5t-218 -109l-15 54q106 28 190.5 109t137.5 195t81 248.5t28 278.5t-28 278.5t-81 248.5t-137.5 195t-190.5 109l15 54q121 -25 218 -109t157.5 -206.5t92 -268t31.5 -301.5z" />
    <glyph glyph-name="asterisk" unicode="*" horiz-adv-x="1048" 
d="M983 1231l27 -78l-420 -135l260 -356l-68 -50l-258 357l-258 -357l-65 50l258 356l-418 135l25 78l417 -135v440h82v-440z" />
    <glyph glyph-name="plus" unicode="+" horiz-adv-x="1228" 
d="M1147 803v-72h-492v-526h-82v526h-491v72h491v528h82v-528h492z" />
    <glyph glyph-name="comma" unicode="," horiz-adv-x="450" 
d="M297 260l72 -41l-299 -516l-70 41z" />
    <glyph glyph-name="hyphen" unicode="-" horiz-adv-x="706" 
d="M625 598v-72h-543v72h543z" />
    <glyph glyph-name="period" unicode="." 
d="M246 246v-246h-82v246h82z" />
    <glyph glyph-name="slash" unicode="/" horiz-adv-x="978" 
d="M885 1669l73 -33l-864 -1769l-74 33z" />
    <glyph glyph-name="zero" unicode="0" horiz-adv-x="1208" 
d="M1106 1075v-614q0 -136 -67.5 -251.5t-183 -183t-251.5 -67.5t-251.5 67.5t-183 183t-67.5 251.5v614q0 136 67.5 251.5t183 183t251.5 67.5t251.5 -67.5t183 -183t67.5 -251.5zM1024 461v614q0 178 -123 304t-297 126t-297 -126t-123 -304v-614q0 -178 123 -304
t297 -126t297 126t123 304z" />
    <glyph glyph-name="one" unicode="1" horiz-adv-x="942" 
d="M698 1536v-1536h-82v1432l-440 -390l-53 58l493 436h82z" />
    <glyph glyph-name="two" unicode="2" horiz-adv-x="1056" 
d="M956 1165q0 -159 -100 -282l-655 -811h737v-72h-836v72l689 852q83 105 83 239q0 91 -39 167.5t-117.5 125.5t-182.5 49q-138 0 -241 -103.5t-108 -244.5l-71 31q12 163 133.5 276t286.5 113q126 0 224 -58.5t147.5 -151.5t49.5 -202z" />
    <glyph glyph-name="three" unicode="3" horiz-adv-x="1107" 
d="M1008 401q0 -104 -40.5 -190t-106 -140t-145.5 -83t-163 -29q-61 0 -122 16t-118 50t-101.5 81.5t-74 115t-35.5 145.5l74 30q4 -87 40 -158.5t91.5 -115.5t120 -68t129.5 -24q66 0 130.5 24t118.5 69t87 117t33 160q0 152 -108.5 260.5t-258.5 108.5h-139v72h139
q134 0 232 98t98 234t-98 233.5t-232 97.5q-130 0 -228 -93.5t-108 -233.5l-71 30q12 155 130.5 262t276.5 107q168 0 290 -118.5t122 -284.5q0 -125 -70.5 -224t-185.5 -143q129 -45 211 -156t82 -250z" />
    <glyph glyph-name="four" unicode="4" horiz-adv-x="1167" 
d="M1167 412v-72h-276v-340h-82v340h-694v72l694 1124h82v-1124h276zM199 412h610v987z" />
    <glyph glyph-name="five" unicode="5" horiz-adv-x="1165" 
d="M1065 440q0 -199 -141.5 -340t-339.5 -141q-196 0 -334.5 134.5t-147.5 334.5l74 31q6 -181 120 -304.5t286 -123.5q164 0 281.5 120t117.5 289t-117.5 289.5t-281.5 120.5q-84 0 -155.5 -15t-105.5 -29.5t-69 -33.5q-7 -4 -10 -6l94 770h665v-72h-602l-73 -590
q115 48 256 48q131 0 242 -64.5t176 -175.5t65 -242z" />
    <glyph glyph-name="six" unicode="6" horiz-adv-x="1167" 
d="M1065 440q0 -131 -64.5 -241.5t-175 -175t-241.5 -64.5t-242 64.5t-175.5 175t-64.5 241.5q0 149 82 271l559 825h91l-443 -653q92 39 193 39q131 0 241.5 -64.5t175 -175.5t64.5 -242zM981 440q0 169 -116.5 289.5t-280.5 120.5q-165 0 -282.5 -120.5t-117.5 -289.5
t117 -289t283 -120q164 0 280.5 120t116.5 289z" />
    <glyph glyph-name="seven" unicode="7" horiz-adv-x="1042" 
d="M961 1536v-72l-689 -1464h-86l688 1464h-792v72h879z" />
    <glyph glyph-name="eight" unicode="8" horiz-adv-x="1140" 
d="M1038 401q0 -184 -136.5 -313t-330.5 -129q-195 0 -332 129t-137 313q0 135 80 245.5t209 160.5q-107 50 -172 148.5t-65 218.5q0 167 122 285t295 118q172 0 294 -118t122 -285q0 -120 -64.5 -218.5t-170.5 -148.5q128 -50 207 -160.5t79 -245.5zM907 1174
q0 136 -99.5 233.5t-236.5 97.5q-138 0 -238 -97.5t-100 -233.5t100 -234t238 -98q137 0 236.5 98t99.5 234zM958 401q0 151 -114.5 259t-272.5 108q-159 0 -274 -107.5t-115 -259.5q0 -153 115 -261.5t274 -108.5q158 0 272.5 108.5t114.5 261.5z" />
    <glyph glyph-name="nine" unicode="9" horiz-adv-x="1136" 
d="M1034 1112q0 -141 -76 -256l-565 -856h-90l451 684q-89 -39 -185 -39q-127 0 -234.5 62.5t-170 170t-62.5 234.5q0 192 137 328.5t330 136.5q192 0 328.5 -136.5t136.5 -328.5zM952 1112q0 163 -112.5 278t-270.5 115q-160 0 -272.5 -115t-112.5 -278
q0 -164 112.5 -279.5t272.5 -115.5q158 0 270.5 115.5t112.5 279.5z" />
    <glyph glyph-name="colon" unicode=":" 
d="M246 922v-246h-82v246h82zM246 246v-246h-82v246h82z" />
    <glyph glyph-name="semicolon" unicode=";" 
d="M307 922v-246h-82v246h82zM297 260l72 -41l-299 -516l-70 41z" />
    <glyph glyph-name="less" unicode="&#x3c;" horiz-adv-x="743" 
d="M164 764l498 -500l-50 -51l-551 551l551 551l50 -51z" />
    <glyph glyph-name="equal" unicode="=" horiz-adv-x="1228" 
d="M1147 1008v-72h-1065v72h1065zM1147 598v-72h-1065v72h1065z" />
    <glyph glyph-name="greater" unicode="&#x3e;" horiz-adv-x="743" 
d="M133 1315l549 -551l-549 -551l-51 51l500 500l-500 500z" />
    <glyph glyph-name="question" unicode="?" horiz-adv-x="1198" 
d="M1075 1182q0 -149 -79.5 -246t-219.5 -137q-114 -33 -185 -111t-71 -196h-80q0 144 85 242.5t220 137.5q118 32 184 110t66 202q0 102 -56 176.5t-141.5 109.5t-187.5 35q-96 0 -181.5 -32t-150.5 -100.5t-85 -164.5l-70 27q26 111 103 190.5t175.5 115.5t208.5 36
q72 0 139 -16t126.5 -48.5t104 -79t70 -111t25.5 -140.5zM522 246v-246h-82v246h82z" />
    <glyph glyph-name="at" unicode="@" horiz-adv-x="1822" 
d="M1720 768q0 -198 -80.5 -305t-187.5 -107q-77 0 -137.5 56.5t-77.5 156.5q-47 -92 -133 -147t-193 -55q-166 0 -283.5 117.5t-117.5 283.5t117.5 283.5t283.5 117.5q104 0 188.5 -52.5t131.5 -139.5v160h82v-508q0 -90 42.5 -145.5t102.5 -55.5q72 0 126 86.5t54 253.5
q0 201 -97.5 370.5t-265 268t-364.5 98.5t-364.5 -98.5t-265 -268t-97.5 -370.5t97.5 -370.5t265 -268t364.5 -98.5q149 0 283 58t236 161l53 -53q-111 -112 -259 -175t-313 -63q-164 0 -314 64t-258.5 172.5t-172.5 258.5t-64 314t64 314t172.5 258.5t258.5 172.5t314 64
t314 -64t258.5 -172.5t172.5 -258.5t64 -314zM1231 768q0 135 -94 231.5t-226 96.5t-225.5 -96.5t-93.5 -231.5t93.5 -231.5t225.5 -96.5t226 96.5t94 231.5z" />
    <glyph glyph-name="A" unicode="A" horiz-adv-x="1333" 
d="M709 1536l624 -1536h-84l-184 455h-797l-184 -455h-84l625 1536h84zM299 526h735l-366 908z" />
    <glyph glyph-name="B" unicode="B" horiz-adv-x="1280" 
d="M1178 401q0 -166 -118 -283.5t-284 -117.5h-612v1536h553q166 0 283.5 -117.5t117.5 -283.5q0 -118 -63 -213t-168 -142q128 -36 209.5 -140t81.5 -239zM1036 1135q0 136 -93.5 232.5t-225.5 96.5h-471v-661h471q132 0 225.5 97.5t93.5 234.5zM1096 401q0 136 -94 233
t-226 97h-530v-659h530q132 0 226 96.5t94 232.5z" />
    <glyph glyph-name="C" unicode="C" horiz-adv-x="1779" 
d="M1583 487l76 -28q-94 -223 -297 -361.5t-451 -138.5q-164 0 -314 64t-258.5 172.5t-172.5 258.5t-64 314t64 314t172.5 258.5t258.5 172.5t314 64q248 0 451 -138.5t297 -361.5l-76 -28q-83 204 -265.5 330t-406.5 126q-197 0 -364.5 -98.5t-265 -268t-97.5 -370.5
t97.5 -370.5t265 -268t364.5 -98.5q224 0 406.5 126t265.5 330z" />
    <glyph glyph-name="D" unicode="D" horiz-adv-x="1638" 
d="M1475 768q0 -209 -103 -385.5t-279.5 -279.5t-385.5 -103h-543v1536h543q209 0 385.5 -103t279.5 -279.5t103 -385.5zM1393 768q0 142 -54.5 271t-146 222t-218 148t-265.5 55h-463v-1392h461q186 0 344 93t250 253.5t92 349.5z" />
    <glyph glyph-name="E" unicode="E" horiz-adv-x="1136" 
d="M1014 72v-72h-850v1536h850v-72h-768v-661h706v-72h-706v-659h768z" />
    <glyph glyph-name="F" unicode="F" horiz-adv-x="1136" 
d="M1014 1536v-72h-768v-661h706v-72h-706v-731h-82v1536h850z" />
    <glyph glyph-name="G" unicode="G" horiz-adv-x="1822" 
d="M1720 768q0 -164 -64 -314t-172.5 -258.5t-258.5 -172.5t-314 -64t-314 64t-258.5 172.5t-172.5 258.5t-64 314t64 314t172.5 258.5t258.5 172.5t314 64q165 0 313 -63t259 -175l-53 -53q-102 103 -236 161t-283 58q-197 0 -364.5 -98.5t-265 -268t-97.5 -370.5
t97.5 -370.5t265 -268t364.5 -98.5q143 0 275 55t230 148.5t158.5 223.5t67.5 273h-731v72h807q2 -23 2 -35z" />
    <glyph glyph-name="H" unicode="H" horiz-adv-x="1433" 
d="M1270 1536v-1536h-82v731h-942v-731h-82v1536h82v-733h942v733h82z" />
    <glyph glyph-name="I" unicode="I" 
d="M246 1536v-1536h-82v1536h82z" />
    <glyph glyph-name="J" unicode="J" horiz-adv-x="1114" 
d="M950 1536v-1149q0 -105 -35 -188.5t-94 -134.5t-132 -78t-154 -27q-78 0 -151.5 25.5t-134.5 74t-100.5 126.5t-46.5 175l72 27q4 -85 36.5 -154.5t83.5 -112.5t113 -66t128 -23q65 0 124 22t106 64.5t75 111.5t28 156v1151h82z" />
    <glyph glyph-name="K" unicode="K" horiz-adv-x="1155" 
d="M1004 1536h110l-758 -770l754 -766h-111l-753 766zM246 1536v-1536h-82v1536h82z" />
    <glyph glyph-name="L" unicode="L" horiz-adv-x="1095" 
d="M1014 72v-72h-850v1536h82v-1464h768z" />
    <glyph glyph-name="M" unicode="M" horiz-adv-x="1763" 
d="M1599 1536v-1536h-81v1397l-598 -885h-76l-598 885v-1397h-82v1536h82l637 -942l635 942h81z" />
    <glyph glyph-name="N" unicode="N" horiz-adv-x="1464" 
d="M1300 1536v-1536h-81l-973 1397v-1397h-82v1536h82l973 -1397v1397h81z" />
    <glyph glyph-name="O" unicode="O" horiz-adv-x="1822" 
d="M1720 768q0 -164 -64 -314t-172.5 -258.5t-258.5 -172.5t-314 -64t-314 64t-258.5 172.5t-172.5 258.5t-64 314t64 314t172.5 258.5t258.5 172.5t314 64t314 -64t258.5 -172.5t172.5 -258.5t64 -314zM1638 768q0 201 -97.5 370.5t-265 268t-364.5 98.5t-364.5 -98.5
t-265 -268t-97.5 -370.5t97.5 -370.5t265 -268t364.5 -98.5t364.5 98.5t265 268t97.5 370.5z" />
    <glyph glyph-name="P" unicode="P" horiz-adv-x="1138" 
d="M1118 1135q0 -166 -118 -285t-283 -119h-471v-731h-82v1536h553q166 0 283.5 -117.5t117.5 -283.5zM1036 1135q0 136 -93.5 232.5t-225.5 96.5h-471v-661h471q132 0 225.5 97.5t93.5 234.5z" />
    <glyph glyph-name="Q" unicode="Q" horiz-adv-x="1822" 
d="M1503 217l217 -217h-102l-166 166q-109 -98 -248.5 -152.5t-292.5 -54.5q-164 0 -314 64t-258.5 172.5t-172.5 258.5t-64 314t64 314t172.5 258.5t258.5 172.5t314 64t314 -64t258.5 -172.5t172.5 -258.5t64 -314q0 -157 -57 -299.5t-160 -251.5zM1638 768
q0 201 -97.5 370.5t-265 268t-364.5 98.5t-364.5 -98.5t-265 -268t-97.5 -370.5t97.5 -370.5t265 -268t364.5 -98.5q137 0 263.5 49.5t224.5 138.5l-395 395h102l342 -342q91 100 140.5 227.5t49.5 268.5z" />
    <glyph glyph-name="R" unicode="R" horiz-adv-x="1185" 
d="M356 731l748 -731h-111l-747 731v-731h-82v1536h532q166 0 284 -117.5t118 -283.5t-118 -285t-284 -119h-340zM1016 1135q0 136 -94 232.5t-226 96.5h-450v-661h450q132 0 226 97.5t94 234.5z" />
    <glyph glyph-name="S" unicode="S" horiz-adv-x="1208" 
d="M1106 387q0 -102 -42 -185t-112.5 -135t-158.5 -80t-183 -28q-116 0 -219 39t-183 124t-106 204l70 28q35 -159 158.5 -241t281.5 -82q80 0 153.5 23t132 66t93.5 112t35 153q0 269 -303 342l-252 59q-160 37 -252 136.5t-92 259.5q0 76 26 141t70.5 111t104 78.5
t127 48.5t139.5 16q110 0 208 -36t174.5 -115.5t102.5 -190.5l-67 -27q-31 142 -151 219.5t-269 77.5q-74 0 -142.5 -20.5t-123 -59.5t-87 -101.5t-32.5 -139.5q0 -131 74 -210t206 -110l252 -59q171 -41 269 -144t98 -274z" />
    <glyph glyph-name="T" unicode="T" horiz-adv-x="1232" 
d="M1151 1536v-72h-494v-1464h-82v1464h-493v72h1069z" />
    <glyph glyph-name="U" unicode="U" horiz-adv-x="1433" 
d="M1270 1536v-1042q0 -151 -74 -274t-200 -192t-277 -69q-152 0 -279 69t-201.5 192.5t-74.5 273.5v1042h82v-1042q0 -130 63.5 -237t171 -166.5t236.5 -59.5q197 0 334 132t137 331v1042h82z" />
    <glyph glyph-name="V" unicode="V" horiz-adv-x="1333" 
d="M1249 1536h84l-624 -1536h-84l-625 1536h84l584 -1434z" />
    <glyph glyph-name="W" unicode="W" horiz-adv-x="1968" 
d="M1884 1536h84l-471 -1536h-84l-428 1399l-430 -1399h-84l-471 1536h84l430 -1399l428 1399h84l430 -1399z" />
    <glyph glyph-name="X" unicode="X" horiz-adv-x="1490" 
d="M799 768l610 -768h-104l-560 702l-559 -702h-104l612 768l-612 768h104l559 -702l560 702h104z" />
    <glyph glyph-name="Y" unicode="Y" horiz-adv-x="1490" 
d="M1305 1536h104l-623 -782v-754h-81v754l-623 782h104l559 -702z" />
    <glyph glyph-name="Z" unicode="Z" horiz-adv-x="1198" 
d="M1116 72v-72h-1034v72l934 1392h-934v72h1034v-72l-934 -1392h934z" />
    <glyph glyph-name="bracketleft" unicode="[" horiz-adv-x="645" 
d="M522 -174v-72h-358v1782h358v-72h-276v-1638h276z" />
    <glyph glyph-name="backslash" unicode="\" horiz-adv-x="978" 
d="M94 1669l864 -1769l-73 -33l-865 1769z" />
    <glyph glyph-name="bracketright" unicode="]" horiz-adv-x="645" 
d="M481 1536v-1782h-358v72h276v1638h-276v72h358z" />
    <glyph glyph-name="underscore" unicode="_" horiz-adv-x="931" 
d="M891 -123v-72h-850v72h850z" />
    <glyph glyph-name="grave" unicode="`" horiz-adv-x="1208" 
d="M412 1581l469 -278l-43 -66l-469 279z" />
    <glyph glyph-name="a" unicode="a" horiz-adv-x="1269" 
d="M1106 922v-922h-82v217q-60 -118 -171 -188t-249 -70q-136 0 -251.5 67.5t-183 183t-67.5 251.5t67.5 251.5t183 183t251.5 67.5q138 0 249 -70t171 -188v217h82zM1024 461q0 178 -123 304t-297 126t-297 -126t-123 -304t123 -304t297 -126t297 126t123 304z" />
    <glyph glyph-name="b" unicode="b" horiz-adv-x="1269" 
d="M1167 461q0 -136 -67 -251.5t-182.5 -183t-251.5 -67.5q-138 0 -249 70t-171 188v-217h-82v1536h82v-831q60 118 171 188t249 70q136 0 251.5 -67.5t182.5 -183t67 -251.5zM1085 461q0 178 -123 304t-296 126q-174 0 -297 -126t-123 -304t123 -304t297 -126
q173 0 296 126t123 304z" />
    <glyph glyph-name="c" unicode="c" horiz-adv-x="1140" 
d="M971 250l67 -41q-66 -114 -181.5 -182t-252.5 -68q-136 0 -251.5 67.5t-183 183t-67.5 251.5t67.5 251.5t183 183t251.5 67.5q137 0 252.5 -68t181.5 -182l-67 -41q-56 100 -154 159.5t-213 59.5q-174 0 -297 -126t-123 -304t123 -304t297 -126q115 0 213 59.5t154 159.5
z" />
    <glyph glyph-name="d" unicode="d" horiz-adv-x="1269" 
d="M1106 1536v-1536h-82v217q-60 -118 -171 -188t-249 -70q-136 0 -251.5 67.5t-183 183t-67.5 251.5t67.5 251.5t183 183t251.5 67.5q138 0 249 -70t171 -188v831h82zM1024 461q0 178 -123 304t-297 126t-297 -126t-123 -304t123 -304t297 -126t297 126t123 304z" />
    <glyph glyph-name="e" unicode="e" horiz-adv-x="1208" 
d="M1106 461q0 -23 -2 -35h-918q12 -166 132.5 -280.5t285.5 -114.5q115 0 213 59.5t154 159.5l67 -41q-66 -114 -181.5 -182t-252.5 -68q-136 0 -251.5 67.5t-183 183t-67.5 251.5t67.5 251.5t183 183t251.5 67.5t251.5 -67.5t183 -183t67.5 -251.5zM186 498h836
q-14 166 -134 279.5t-284 113.5t-284 -113.5t-134 -279.5z" />
    <glyph glyph-name="f" unicode="f" horiz-adv-x="573" 
d="M537 922v-72h-209v-850h-82v850h-164v72h164v405q0 118 66.5 184t156.5 66q36 0 68 -12v-76q-32 16 -66 16q-58 0 -100.5 -46.5t-42.5 -129.5v-407h209z" />
    <glyph glyph-name="g" unicode="g" horiz-adv-x="1269" 
d="M1106 922v-994q0 -136 -67.5 -251.5t-183 -182.5t-251.5 -67t-252.5 67.5t-181.5 181.5l70 41q55 -100 152 -159.5t212 -59.5q174 0 297 126t123 304v289q-60 -118 -171 -188t-249 -70q-136 0 -251.5 67.5t-183 183t-67.5 251.5t67.5 251.5t183 183t251.5 67.5
q138 0 249 -70t171 -188v217h82zM1024 461q0 178 -123 304t-297 126t-297 -126t-123 -304t123 -304t297 -126t297 126t123 304z" />
    <glyph glyph-name="h" unicode="h" horiz-adv-x="1126" 
d="M963 559v-559h-82v559q0 80 -26.5 144.5t-71.5 104t-100 60.5t-116 21t-118 -21.5t-102.5 -61t-73 -104t-27.5 -143.5v-559h-82v1536h82v-758q50 90 136.5 137.5t186.5 47.5q74 0 144 -26.5t126 -76t90 -128t34 -173.5z" />
    <glyph glyph-name="i" unicode="i" 
d="M246 1536v-164h-82v164h82zM246 922v-922h-82v922h82z" />
    <glyph glyph-name="j" unicode="j" 
d="M246 1536v-164h-82v164h82zM246 922v-1248q0 -119 -66 -184t-157 -65q-36 0 -68 12v76q34 -17 65 -17q58 0 101 46.5t43 129.5v1250h82z" />
    <glyph glyph-name="k" unicode="k" horiz-adv-x="870" 
d="M358 459l471 -459h-114l-469 459l469 463h114zM246 1536v-1536h-82v1536h82z" />
    <glyph glyph-name="l" unicode="l" 
d="M246 1536v-1536h-82v1536h82z" />
    <glyph glyph-name="m" unicode="m" horiz-adv-x="1556" 
d="M1393 631v-631h-82v631q0 135 -71.5 197.5t-174.5 62.5t-174.5 -70.5t-71.5 -208.5v-612h-82v631q0 70 -20 122.5t-54.5 81.5t-75.5 42.5t-89 13.5q-100 0 -176 -84.5t-76 -224.5v-582h-82v922h82v-125q42 80 111 123t147 43q96 0 169 -46.5t105 -142.5
q39 94 119.5 141.5t173.5 47.5q49 0 94.5 -11t87 -37t72.5 -63.5t49.5 -94t18.5 -126.5z" />
    <glyph glyph-name="n" unicode="n" horiz-adv-x="1126" 
d="M963 559v-559h-82v559q0 80 -26.5 144.5t-71.5 104t-100 60.5t-116 21t-118 -21.5t-102.5 -61t-73 -104t-27.5 -143.5v-559h-82v922h82v-144q50 90 136.5 137.5t186.5 47.5q74 0 144 -26.5t126 -76t90 -128t34 -173.5z" />
    <glyph glyph-name="o" unicode="o" horiz-adv-x="1208" 
d="M1106 461q0 -136 -67.5 -251.5t-183 -183t-251.5 -67.5t-251.5 67.5t-183 183t-67.5 251.5t67.5 251.5t183 183t251.5 67.5t251.5 -67.5t183 -183t67.5 -251.5zM1024 461q0 178 -123 304t-297 126t-297 -126t-123 -304t123 -304t297 -126t297 126t123 304z" />
    <glyph glyph-name="p" unicode="p" horiz-adv-x="1269" 
d="M1167 461q0 -136 -67 -251.5t-182.5 -183t-251.5 -67.5q-138 0 -249 70t-171 188v-770h-82v1475h82v-217q60 118 171 188t249 70q136 0 251.5 -67.5t182.5 -183t67 -251.5zM1085 461q0 178 -123 304t-296 126q-174 0 -297 -126t-123 -304t123 -304t297 -126
q173 0 296 126t123 304z" />
    <glyph glyph-name="q" unicode="q" horiz-adv-x="1269" 
d="M1106 922v-1475h-82v770q-60 -118 -171 -188t-249 -70q-136 0 -251.5 67.5t-183 183t-67.5 251.5t67.5 251.5t183 183t251.5 67.5q138 0 249 -70t171 -188v217h82zM1024 461q0 178 -123 304t-297 126t-297 -126t-123 -304t123 -304t297 -126t297 126t123 304z" />
    <glyph glyph-name="r" unicode="r" horiz-adv-x="696" 
d="M637 956v-73q-35 6 -70 6q-61 0 -118 -21.5t-102.5 -61t-73 -104t-27.5 -143.5v-559h-82v922h82v-144q50 90 136.5 137.5t186.5 47.5q28 0 68 -7z" />
    <glyph glyph-name="s" unicode="s" horiz-adv-x="929" 
d="M827 244q0 -114 -96.5 -199.5t-263.5 -85.5q-131 0 -234 63.5t-131 184.5l70 26q15 -67 62 -114t106 -67.5t127 -20.5q129 0 203.5 63t74.5 146q0 62 -44 111t-128 65l-225 41q-105 19 -160 85t-55 148q0 84 49 148t124.5 95.5t162.5 31.5q78 0 147 -26t125.5 -83.5
t81.5 -140.5l-71 -27q-29 100 -108.5 151.5t-176.5 51.5q-102 0 -177 -53.5t-75 -143.5q0 -131 150 -162l225 -40q115 -21 176 -90.5t61 -157.5z" />
    <glyph glyph-name="t" unicode="t" horiz-adv-x="573" 
d="M492 922v-72h-164v-850h-82v850h-164v72h164v614h82v-614h164z" />
    <glyph glyph-name="u" unicode="u" horiz-adv-x="1126" 
d="M963 922v-922h-82v143q-49 -90 -136 -137t-188 -47q-74 0 -143.5 26.5t-125.5 75.5t-90 127.5t-34 173.5v560h82v-560q0 -158 92.5 -244.5t220.5 -86.5q83 0 154.5 36t119.5 113t48 182v560h82z" />
    <glyph glyph-name="v" unicode="v" horiz-adv-x="995" 
d="M885 922h90l-432 -922h-90l-433 922h91l387 -826z" />
    <glyph glyph-name="w" unicode="w" horiz-adv-x="1443" 
d="M1339 922h84l-329 -922h-84l-287 805l-289 -805h-84l-330 922h84l289 -805l287 805h84l289 -805z" />
    <glyph glyph-name="x" unicode="x" horiz-adv-x="919" 
d="M512 461l387 -461h-104l-334 399l-336 -399h-105l388 461l-388 461h105l336 -400l334 400h104z" />
    <glyph glyph-name="y" unicode="y" horiz-adv-x="995" 
d="M885 922h90l-645 -1371q-29 -63 -83 -94.5t-118 -31.5q-54 0 -106 22v76q50 -29 100 -29q90 0 129 82l201 426l-433 920h91l387 -824z" />
    <glyph glyph-name="z" unicode="z" horiz-adv-x="890" 
d="M809 72v-72h-727v72l623 778h-617v72h717v-72l-623 -778h627z" />
    <glyph glyph-name="braceleft" unicode="{" horiz-adv-x="712" 
d="M674 -174v-72h-33q-159 0 -257.5 90.5t-98.5 245.5v236q0 126 -63 205t-181 79v72q118 0 181 78.5t63 206.5v233q0 155 98.5 245.5t257.5 90.5h33v-72h-33q-124 0 -199 -71t-75 -193v-233q0 -114 -46.5 -198t-132.5 -124q86 -38 132.5 -121.5t46.5 -197.5v-236
q0 -122 75 -193t199 -71h33z" />
    <glyph glyph-name="bar" unicode="|" 
d="M246 1536v-1782h-82v1782h82z" />
    <glyph glyph-name="braceright" unicode="}" horiz-adv-x="712" 
d="M674 682v-72q-119 0 -181.5 -78.5t-62.5 -205.5v-236q0 -155 -98.5 -245.5t-257.5 -90.5h-33v72h33q124 0 199 71t75 193v236q0 115 45 198t131 121q-86 39 -131 123t-45 199v233q0 122 -75 193t-199 71h-33v72h33q159 0 257.5 -90.5t98.5 -245.5v-233
q0 -128 62.5 -206.5t181.5 -78.5z" />
    <glyph glyph-name="nbspace" unicode="&#xa0;" 
 />
    <glyph glyph-name="exclamdown" unicode="&#xa1;" 
d="M246 1577v-246h-82v246h82zM246 1085v-1085h-82v1085h82z" />
    <glyph glyph-name="cent" unicode="&#xa2;" horiz-adv-x="1140" 
d="M971 250l67 -41q-61 -106 -166 -172.5t-229 -75.5v-248h-78v248q-196 15 -329.5 159t-133.5 341t133.5 341t329.5 159v245h78v-245q124 -9 229 -75.5t166 -172.5l-67 -41q-52 92 -138.5 150t-189.5 67v-856q103 9 189.5 67t138.5 150zM565 33v856q-162 -15 -271.5 -138
t-109.5 -290t109.5 -290t271.5 -138z" />
    <glyph glyph-name="sterling" unicode="&#xa3;" horiz-adv-x="1177" 
d="M1014 72v-72h-850v72h315l-141 659h-174v72h158l-64 289q-12 58 -12 110q0 114 55.5 201.5t141 130.5t182.5 43q70 0 135 -24.5t119 -71t90 -122.5t43 -171l-74 -31q-2 84 -30 151.5t-73 109.5t-100 64.5t-114 22.5q-118 0 -204.5 -82.5t-86.5 -224.5q0 -40 10 -102
l63 -293h549v-72h-532l141 -659h453z" />
    <glyph glyph-name="yen" unicode="&#xa5;" horiz-adv-x="1490" 
d="M1237 1536h104l-505 -635h440v-72h-492v-276h492v-72h-492v-481h-82v481h-489v72h489v276h-489v72h438l-504 635h105l491 -621z" />
    <glyph glyph-name="section" unicode="&#xa7;" horiz-adv-x="1822" 
d="M1720 768q0 -164 -64 -314t-172.5 -258.5t-258.5 -172.5t-314 -64t-314 64t-258.5 172.5t-172.5 258.5t-64 314t64 314t172.5 258.5t258.5 172.5t314 64q248 0 451 -138.5t297 -361.5l-76 -28q-83 204 -265.5 330t-406.5 126q-197 0 -364.5 -98.5t-265 -268t-97.5 -370.5
t97.5 -370.5t265 -268t364.5 -98.5q143 0 275 55t230 148.5t158.5 223.5t67.5 273h-731v72h807q2 -23 2 -35z" />
    <glyph glyph-name="dieresis" unicode="&#xa8;" horiz-adv-x="1208" 
d="M866 1536v-164h-82v164h82zM424 1536v-164h-82v164h82z" />
    <glyph glyph-name="copyright" unicode="&#xa9;" horiz-adv-x="1822" 
d="M1720 768q0 -164 -64 -314t-172.5 -258.5t-258.5 -172.5t-314 -64t-314 64t-258.5 172.5t-172.5 258.5t-64 314t64 314t172.5 258.5t258.5 172.5t314 64t314 -64t258.5 -172.5t172.5 -258.5t64 -314zM1638 768q0 201 -97.5 370.5t-265 268t-364.5 98.5t-364.5 -98.5
t-265 -268t-97.5 -370.5t97.5 -370.5t265 -268t364.5 -98.5t364.5 98.5t265 268t97.5 370.5zM1284 557l68 -41q-66 -114 -181.5 -182t-252.5 -68q-136 0 -251.5 67.5t-183 183t-67.5 251.5t67.5 251.5t183 183t251.5 67.5q137 0 252.5 -68t181.5 -182l-68 -41
q-57 100 -154 159.5t-212 59.5q-174 0 -297 -126t-123 -304t123 -304t297 -126q115 0 212 59.5t154 159.5z" />
    <glyph glyph-name="guillemotleft" unicode="&#xab;" horiz-adv-x="858" 
d="M492 518l307 -307l-51 -51l-359 358l359 359l51 -52zM164 518l307 -307l-51 -51l-359 358l359 359l51 -52z" />
    <glyph glyph-name="macron" unicode="&#xaf;" horiz-adv-x="1206" 
d="M913 1505v-82h-624v82h624z" />
    <glyph glyph-name="degree" unicode="&#xb0;" horiz-adv-x="915" 
d="M836 1200q0 -155 -111 -265t-266 -110q-157 0 -267 110t-110 265q0 157 110 267t267 110q156 0 266.5 -110.5t110.5 -266.5zM754 1200q0 124 -87 214.5t-208 90.5q-122 0 -208.5 -90.5t-86.5 -214.5q0 -123 86.5 -213t208.5 -90q121 0 208 90.5t87 212.5z" />
    <glyph glyph-name="acute" unicode="&#xb4;" horiz-adv-x="1208" 
d="M797 1581l43 -65l-469 -279l-43 66z" />
    <glyph glyph-name="cedilla" unicode="&#xb8;" horiz-adv-x="1138" 
d="M748 -295q0 -75 -57.5 -128.5t-139.5 -53.5q-59 0 -107 28.5t-73 75.5l61 41q18 -36 51 -53.5t70 -17.5q58 0 87.5 33t29.5 77q0 51 -35.5 81t-81.5 30q-50 0 -74 -35l-63 45l168 205l63 -47l-80 -97q75 -6 128 -59t53 -125z" />
    <glyph glyph-name="guillemotright" unicode="&#xbb;" horiz-adv-x="858" 
d="M438 877l359 -359l-359 -358l-51 51l307 307l-307 307zM111 877l358 -359l-358 -358l-52 51l308 307l-308 307z" />
    <glyph glyph-name="questiondown" unicode="&#xbf;" horiz-adv-x="1198" 
d="M756 1577v-246h-82v246h82zM1004 369l69 -27q-26 -111 -103 -190.5t-175.5 -115.5t-208.5 -36q-72 0 -139 16t-126.5 48.5t-104 79t-70 111t-25.5 140.5q0 149 79.5 246t219.5 137q114 33 185 111t71 196h80q0 -144 -85 -242.5t-220 -135.5q-118 -34 -184 -111.5
t-66 -200.5q0 -103 56.5 -178t142 -110t186.5 -35q96 0 181.5 32t151 100.5t85.5 164.5z" />
    <glyph glyph-name="Agrave" unicode="&#xc0;" horiz-adv-x="1333" 
d="M459 1966l512 -182l-29 -74l-512 182zM709 1536l624 -1536h-84l-184 455h-797l-184 -455h-84l625 1536h84zM299 526h735l-366 908z" />
    <glyph glyph-name="Aacute" unicode="&#xc1;" horiz-adv-x="1333" 
d="M942 1966l29 -74l-512 -182l-29 74zM709 1536l624 -1536h-84l-184 455h-797l-184 -455h-84l625 1536h84zM299 526h735l-366 908z" />
    <glyph glyph-name="Acircumflex" unicode="&#xc2;" horiz-adv-x="1333" 
d="M668 1948l315 -168l-37 -66l-278 148l-277 -146l-37 66zM709 1536l624 -1536h-84l-184 455h-797l-184 -455h-84l625 1536h84zM299 526h735l-366 908z" />
    <glyph glyph-name="Atilde" unicode="&#xc3;" horiz-adv-x="1333" 
d="M709 1536l624 -1536h-84l-184 455h-797l-184 -455h-84l625 1536h84zM299 526h735l-366 908zM909 1905h72q-8 -71 -60.5 -118.5t-125.5 -47.5q-43 0 -74.5 12.5t-51 29.5t-37 34.5t-42 30t-55.5 12.5q-42 0 -74.5 -28.5t-40.5 -68.5h-72q8 71 61.5 118.5t125.5 47.5
q43 0 74.5 -12t51 -29.5t37 -34.5t42 -29t55.5 -12q42 0 74 27.5t40 67.5z" />
    <glyph glyph-name="Adieresis" unicode="&#xc4;" horiz-adv-x="1333" 
d="M709 1536l624 -1536h-84l-184 455h-797l-184 -455h-84l625 1536h84zM299 526h735l-366 908zM930 1933v-164h-82v164h82zM487 1933v-164h-81v164h81z" />
    <glyph glyph-name="Aring" unicode="&#xc5;" horiz-adv-x="1333" 
d="M709 1536l624 -1536h-84l-184 455h-797l-184 -455h-84l625 1536h84zM299 526h735l-366 908zM877 1681q0 -86 -60.5 -146t-148.5 -60q-86 0 -146.5 60t-60.5 146q0 88 60.5 148.5t146.5 60.5q88 0 148.5 -60.5t60.5 -148.5zM815 1683q0 60 -42.5 103t-102.5 43
q-61 0 -104.5 -43t-43.5 -103q0 -61 43 -104t105 -43q60 0 102.5 43t42.5 104z" />
    <glyph glyph-name="AE" unicode="&#xc6;" horiz-adv-x="1976" 
d="M1853 72v-72h-849v455h-631l-281 -455h-92l950 1536h903v-72h-768v-661h707v-72h-707v-659h768zM418 526h586v947z" />
    <glyph glyph-name="Ccedilla" unicode="&#xc7;" horiz-adv-x="1779" 
d="M1583 487l76 -28q-94 -223 -297 -361.5t-451 -138.5q-164 0 -314 64t-258.5 172.5t-172.5 258.5t-64 314t64 314t172.5 258.5t258.5 172.5t314 64q248 0 451 -138.5t297 -361.5l-76 -28q-83 204 -265.5 330t-406.5 126q-197 0 -364.5 -98.5t-265 -268t-97.5 -370.5
t97.5 -370.5t265 -268t364.5 -98.5q224 0 406.5 126t265.5 330zM1055 -295q0 -75 -57.5 -128.5t-139.5 -53.5q-59 0 -107 28.5t-73 75.5l61 41q18 -36 51 -53.5t70 -17.5q58 0 87.5 33t29.5 77q0 51 -35.5 81t-81.5 30q-50 0 -74 -35l-63 45l168 205l63 -47l-80 -97
q75 -6 128 -59t53 -125z" />
    <glyph glyph-name="Egrave" unicode="&#xc8;" horiz-adv-x="1136" 
d="M377 1966l512 -182l-29 -74l-512 182zM1014 72v-72h-850v1536h850v-72h-768v-661h706v-72h-706v-659h768z" />
    <glyph glyph-name="Eacute" unicode="&#xc9;" horiz-adv-x="1136" 
d="M819 1966l29 -74l-512 -182l-29 74zM1014 72v-72h-850v1536h850v-72h-768v-661h706v-72h-706v-659h768z" />
    <glyph glyph-name="Ecircumflex" unicode="&#xca;" horiz-adv-x="1136" 
d="M606 1948l316 -168l-37 -66l-279 148l-276 -146l-37 66zM1014 72v-72h-850v1536h850v-72h-768v-661h706v-72h-706v-659h768z" />
    <glyph glyph-name="Edieresis" unicode="&#xcb;" horiz-adv-x="1136" 
d="M1014 72v-72h-850v1536h850v-72h-768v-661h706v-72h-706v-659h768zM868 1933v-164h-82v164h82zM426 1933v-164h-82v164h82z" />
    <glyph glyph-name="Igrave" unicode="&#xcc;" 
d="M-37 1966l512 -182l-29 -74l-512 182zM246 1536v-1536h-82v1536h82z" />
    <glyph glyph-name="Iacute" unicode="&#xcd;" 
d="M446 1966l29 -74l-512 -182l-29 74zM246 1536v-1536h-82v1536h82z" />
    <glyph glyph-name="Icircumflex" unicode="&#xce;" 
d="M203 1948l315 -168l-37 -66l-278 148l-277 -146l-37 66zM246 1536v-1536h-82v1536h82z" />
    <glyph glyph-name="Idieresis" unicode="&#xcf;" 
d="M248 1536v-1536h-82v1536h82zM467 1933v-164h-82v164h82zM25 1933v-164h-82v164h82z" />
    <glyph glyph-name="Eth" unicode="&#xd0;" horiz-adv-x="1748" 
d="M1585 768q0 -209 -103 -385.5t-279.5 -279.5t-385.5 -103h-543v741h-233v72h233v723h543q209 0 385.5 -103t279.5 -279.5t103 -385.5zM1503 768q0 142 -54.5 271t-146 222t-218 148t-265.5 55h-463v-651h234v-72h-234v-669h461q186 0 344 93t250 253.5t92 349.5z" />
    <glyph glyph-name="Ntilde" unicode="&#xd1;" horiz-adv-x="1464" 
d="M1300 1536v-1536h-81l-973 1397v-1397h-82v1536h82l973 -1397v1397h81zM991 1905h72q-8 -71 -60.5 -118.5t-125.5 -47.5q-43 0 -75 12.5t-51 29.5t-37 34.5t-42.5 30t-55.5 12.5q-42 0 -74 -28t-40 -69h-72q8 71 61 118.5t125 47.5q43 0 75 -12t51 -29.5t37 -34.5
t42.5 -29t55.5 -12q42 0 74 27.5t40 67.5z" />
    <glyph glyph-name="Ograve" unicode="&#xd2;" horiz-adv-x="1822" 
d="M684 1966l512 -182l-29 -74l-512 182zM1720 768q0 -164 -64 -314t-172.5 -258.5t-258.5 -172.5t-314 -64t-314 64t-258.5 172.5t-172.5 258.5t-64 314t64 314t172.5 258.5t258.5 172.5t314 64t314 -64t258.5 -172.5t172.5 -258.5t64 -314zM1638 768q0 201 -97.5 370.5
t-265 268t-364.5 98.5t-364.5 -98.5t-265 -268t-97.5 -370.5t97.5 -370.5t265 -268t364.5 -98.5t364.5 98.5t265 268t97.5 370.5z" />
    <glyph glyph-name="Oacute" unicode="&#xd3;" horiz-adv-x="1822" 
d="M1126 1966l29 -74l-512 -182l-29 74zM1720 768q0 -164 -64 -314t-172.5 -258.5t-258.5 -172.5t-314 -64t-314 64t-258.5 172.5t-172.5 258.5t-64 314t64 314t172.5 258.5t258.5 172.5t314 64t314 -64t258.5 -172.5t172.5 -258.5t64 -314zM1638 768q0 201 -97.5 370.5
t-265 268t-364.5 98.5t-364.5 -98.5t-265 -268t-97.5 -370.5t97.5 -370.5t265 -268t364.5 -98.5t364.5 98.5t265 268t97.5 370.5z" />
    <glyph glyph-name="Ocircumflex" unicode="&#xd4;" horiz-adv-x="1822" 
d="M909 1948l316 -168l-37 -66l-279 148l-276 -146l-37 66zM1720 768q0 -164 -64 -314t-172.5 -258.5t-258.5 -172.5t-314 -64t-314 64t-258.5 172.5t-172.5 258.5t-64 314t64 314t172.5 258.5t258.5 172.5t314 64t314 -64t258.5 -172.5t172.5 -258.5t64 -314zM1638 768
q0 201 -97.5 370.5t-265 268t-364.5 98.5t-364.5 -98.5t-265 -268t-97.5 -370.5t97.5 -370.5t265 -268t364.5 -98.5t364.5 98.5t265 268t97.5 370.5z" />
    <glyph glyph-name="Otilde" unicode="&#xd5;" horiz-adv-x="1822" 
d="M1720 768q0 -164 -64 -314t-172.5 -258.5t-258.5 -172.5t-314 -64t-314 64t-258.5 172.5t-172.5 258.5t-64 314t64 314t172.5 258.5t258.5 172.5t314 64t314 -64t258.5 -172.5t172.5 -258.5t64 -314zM1638 768q0 201 -97.5 370.5t-265 268t-364.5 98.5t-364.5 -98.5
t-265 -268t-97.5 -370.5t97.5 -370.5t265 -268t364.5 -98.5t364.5 98.5t265 268t97.5 370.5zM1155 1905h72q-8 -71 -61 -118.5t-126 -47.5q-43 0 -74.5 12.5t-51 29.5t-37 34.5t-42 30t-55.5 12.5q-42 0 -74 -28t-40 -69h-72q8 71 61 118.5t125 47.5q43 0 74.5 -12t51 -29.5
t37 -34.5t42 -29t55.5 -12q42 0 74.5 27.5t40.5 67.5z" />
    <glyph glyph-name="Odieresis" unicode="&#xd6;" horiz-adv-x="1822" 
d="M1720 768q0 -164 -64 -314t-172.5 -258.5t-258.5 -172.5t-314 -64t-314 64t-258.5 172.5t-172.5 258.5t-64 314t64 314t172.5 258.5t258.5 172.5t314 64t314 -64t258.5 -172.5t172.5 -258.5t64 -314zM1638 768q0 201 -97.5 370.5t-265 268t-364.5 98.5t-364.5 -98.5
t-265 -268t-97.5 -370.5t97.5 -370.5t265 -268t364.5 -98.5t364.5 98.5t265 268t97.5 370.5zM1176 1933v-164h-82v164h82zM733 1933v-164h-82v164h82z" />
    <glyph glyph-name="multiply" unicode="&#xd7;" horiz-adv-x="1228" 
d="M670 770l372 -371l-59 -59l-371 373l-348 -348l-51 51l348 348l-375 373l60 59l372 -375l349 348l51 -51z" />
    <glyph glyph-name="Oslash" unicode="&#xd8;" horiz-adv-x="1822" 
d="M1720 768q0 -164 -64 -314t-172.5 -258.5t-258.5 -172.5t-314 -64q-163 0 -321 66l-76 -158l-61 33l75 155q-194 104 -310 295t-116 418q0 164 64 314t172.5 258.5t258.5 172.5t314 64q170 0 320 -66l76 158l61 -33l-74 -155q194 -103 310 -294t116 -419zM1638 768
q0 206 -102 378t-274 269l-639 -1323q138 -61 288 -61q197 0 364.5 98.5t265 268t97.5 370.5zM559 123l639 1323q-133 59 -287 59q-197 0 -364.5 -98.5t-265 -268t-97.5 -370.5q0 -206 102.5 -377.5t272.5 -267.5z" />
    <glyph glyph-name="Ugrave" unicode="&#xd9;" horiz-adv-x="1433" 
d="M500 1966l512 -182l-29 -74l-512 182zM1270 1536v-1042q0 -151 -74 -274t-200 -192t-277 -69q-152 0 -279 69t-201.5 192.5t-74.5 273.5v1042h82v-1042q0 -130 63.5 -237t171 -166.5t236.5 -59.5q197 0 334 132t137 331v1042h82z" />
    <glyph glyph-name="Uacute" unicode="&#xda;" horiz-adv-x="1433" 
d="M942 1966l29 -74l-512 -182l-29 74zM1270 1536v-1042q0 -151 -74 -274t-200 -192t-277 -69q-152 0 -279 69t-201.5 192.5t-74.5 273.5v1042h82v-1042q0 -130 63.5 -237t171 -166.5t236.5 -59.5q197 0 334 132t137 331v1042h82z" />
    <glyph glyph-name="Ucircumflex" unicode="&#xdb;" horiz-adv-x="1433" 
d="M745 1948l316 -168l-37 -66l-279 148l-276 -146l-37 66zM1270 1536v-1042q0 -151 -74 -274t-200 -192t-277 -69q-152 0 -279 69t-201.5 192.5t-74.5 273.5v1042h82v-1042q0 -130 63.5 -237t171 -166.5t236.5 -59.5q197 0 334 132t137 331v1042h82z" />
    <glyph glyph-name="Udieresis" unicode="&#xdc;" horiz-adv-x="1433" 
d="M1270 1536v-1042q0 -151 -74 -274t-200 -192t-277 -69q-152 0 -279 69t-201.5 192.5t-74.5 273.5v1042h82v-1042q0 -130 63.5 -237t171 -166.5t236.5 -59.5q197 0 334 132t137 331v1042h82zM1001 1933v-164h-81v164h81zM559 1933v-164h-82v164h82z" />
    <glyph glyph-name="Yacute" unicode="&#xdd;" horiz-adv-x="1490" 
d="M1004 1966l28 -74l-512 -182l-28 74zM1305 1536h104l-623 -782v-754h-81v754l-623 782h104l559 -702z" />
    <glyph glyph-name="Thorn" unicode="&#xde;" horiz-adv-x="1138" 
d="M1118 768q0 -166 -117.5 -284.5t-283.5 -118.5h-471v-365h-82v1536h82v-367h471q166 0 283.5 -117.5t117.5 -283.5zM1036 768q0 137 -93.5 233.5t-225.5 96.5h-471v-662h471q132 0 225.5 97.5t93.5 234.5z" />
    <glyph glyph-name="germandbls" unicode="&#xdf;" horiz-adv-x="1198" 
d="M1116 242q0 -134 -85 -209.5t-202 -75.5q-105 0 -190 62t-111 176l70 26q21 -92 85.5 -142t143.5 -50q85 0 146 55.5t61 153.5q0 61 -42.5 109t-125.5 67l-39 8q-102 24 -157.5 89t-55.5 146q0 72 42.5 135.5t123.5 102.5q84 39 135.5 119t51.5 178q0 135 -94 231.5
t-226 96.5t-225.5 -96.5t-93.5 -231.5v-1192h-82v850h-164v72h164v270q0 166 117.5 283.5t283.5 117.5t284 -117.5t118 -283.5q0 -120 -64 -218.5t-168 -146.5q-57 -27 -88 -73t-31 -97q0 -54 37.5 -97t108.5 -60l39 -8q115 -27 174 -95t59 -155z" />
    <glyph glyph-name="agrave" unicode="&#xe0;" horiz-adv-x="1269" 
d="M1106 922v-922h-82v217q-60 -118 -171 -188t-249 -70q-136 0 -251.5 67.5t-183 183t-67.5 251.5t67.5 251.5t183 183t251.5 67.5q138 0 249 -70t171 -188v217h82zM1024 461q0 178 -123 304t-297 126t-297 -126t-123 -304t123 -304t297 -126t297 126t123 304zM412 1581
l469 -278l-43 -66l-469 279z" />
    <glyph glyph-name="aacute" unicode="&#xe1;" horiz-adv-x="1269" 
d="M1106 922v-922h-82v217q-60 -118 -171 -188t-249 -70q-136 0 -251.5 67.5t-183 183t-67.5 251.5t67.5 251.5t183 183t251.5 67.5q138 0 249 -70t171 -188v217h82zM1024 461q0 178 -123 304t-297 126t-297 -126t-123 -304t123 -304t297 -126t297 126t123 304zM817 1581
l43 -65l-469 -279l-43 66z" />
    <glyph glyph-name="acircumflex" unicode="&#xe2;" horiz-adv-x="1269" 
d="M1106 922v-922h-82v217q-60 -118 -171 -188t-249 -70q-136 0 -251.5 67.5t-183 183t-67.5 251.5t67.5 251.5t183 183t251.5 67.5q138 0 249 -70t171 -188v217h82zM1024 461q0 178 -123 304t-297 126t-297 -126t-123 -304t123 -304t297 -126t297 126t123 304zM618 1585
l316 -282l-53 -58l-263 234l-262 -234l-53 58z" />
    <glyph glyph-name="atilde" unicode="&#xe3;" horiz-adv-x="1269" 
d="M1106 922v-922h-82v217q-60 -118 -171 -188t-249 -70q-136 0 -251.5 67.5t-183 183t-67.5 251.5t67.5 251.5t183 183t251.5 67.5q138 0 249 -70t171 -188v217h82zM1024 461q0 178 -123 304t-297 126t-297 -126t-123 -304t123 -304t297 -126t297 126t123 304zM864 1536h72
q-8 -71 -60.5 -118.5t-125.5 -47.5q-43 0 -75 12.5t-51 30t-37 34.5t-42.5 29.5t-55.5 12.5q-42 0 -74 -28t-40 -68h-72q8 71 61 118.5t125 47.5q43 0 75 -12t51 -29.5t37 -34.5t42.5 -29t55.5 -12q42 0 74 27t40 67z" />
    <glyph glyph-name="adieresis" unicode="&#xe4;" horiz-adv-x="1269" 
d="M1106 922v-922h-82v217q-60 -118 -171 -188t-249 -70q-136 0 -251.5 67.5t-183 183t-67.5 251.5t67.5 251.5t183 183t251.5 67.5q138 0 249 -70t171 -188v217h82zM1024 461q0 178 -123 304t-297 126t-297 -126t-123 -304t123 -304t297 -126t297 126t123 304zM907 1536
v-164h-82v164h82zM465 1536v-164h-82v164h82z" />
    <glyph glyph-name="aring" unicode="&#xe5;" horiz-adv-x="1269" 
d="M1106 922v-922h-82v217q-60 -118 -171 -188t-249 -70q-136 0 -251.5 67.5t-183 183t-67.5 251.5t67.5 251.5t183 183t251.5 67.5q138 0 249 -70t171 -188v217h82zM1024 461q0 178 -123 304t-297 126t-297 -126t-123 -304t123 -304t297 -126t297 126t123 304zM831 1386
q0 -86 -60 -146t-148 -60q-86 0 -146.5 60t-60.5 146q0 88 60.5 148.5t146.5 60.5q88 0 148 -60.5t60 -148.5zM770 1389q0 60 -42.5 102.5t-102.5 42.5q-61 0 -104.5 -42.5t-43.5 -102.5q0 -61 43.5 -104.5t104.5 -43.5q60 0 102.5 43.5t42.5 104.5z" />
    <glyph glyph-name="ae" unicode="&#xe6;" horiz-adv-x="2129" 
d="M2028 461q0 -17 -3 -35h-917q12 -166 132.5 -280.5t285.5 -114.5q115 0 212 59.5t154 159.5l68 -41q-66 -114 -181.5 -182t-252.5 -68q-130 0 -240.5 61t-179.5 166v-186h-82v217q-60 -118 -171 -188t-249 -70q-136 0 -251.5 67.5t-183 183t-67.5 251.5t67.5 251.5
t183 183t251.5 67.5q138 0 249 -70t171 -188v217h82v-187q69 105 179.5 166.5t240.5 61.5q136 0 251.5 -67.5t183 -183t67.5 -251.5zM1108 498h836q-14 166 -134 279.5t-284 113.5t-284 -113.5t-134 -279.5zM1024 461q0 178 -123 304t-297 126t-297 -126t-123 -304t123 -304
t297 -126t297 126t123 304z" />
    <glyph glyph-name="ccedilla" unicode="&#xe7;" horiz-adv-x="1140" 
d="M971 250l67 -41q-66 -114 -181.5 -182t-252.5 -68q-136 0 -251.5 67.5t-183 183t-67.5 251.5t67.5 251.5t183 183t251.5 67.5q137 0 252.5 -68t181.5 -182l-67 -41q-56 100 -154 159.5t-213 59.5q-174 0 -297 -126t-123 -304t123 -304t297 -126q115 0 213 59.5t154 159.5
zM748 -295q0 -75 -57.5 -128.5t-139.5 -53.5q-59 0 -107 28.5t-73 75.5l61 41q18 -36 51 -53.5t70 -17.5q58 0 87.5 33t29.5 77q0 51 -35.5 81t-81.5 30q-50 0 -74 -35l-63 45l168 205l63 -47l-80 -97q75 -6 128 -59t53 -125z" />
    <glyph glyph-name="egrave" unicode="&#xe8;" horiz-adv-x="1208" 
d="M1106 461q0 -23 -2 -35h-918q12 -166 132.5 -280.5t285.5 -114.5q115 0 213 59.5t154 159.5l67 -41q-66 -114 -181.5 -182t-252.5 -68q-136 0 -251.5 67.5t-183 183t-67.5 251.5t67.5 251.5t183 183t251.5 67.5t251.5 -67.5t183 -183t67.5 -251.5zM186 498h836
q-14 166 -134 279.5t-284 113.5t-284 -113.5t-134 -279.5zM412 1581l469 -278l-43 -66l-469 279z" />
    <glyph glyph-name="eacute" unicode="&#xe9;" horiz-adv-x="1208" 
d="M1106 461q0 -23 -2 -35h-918q12 -166 132.5 -280.5t285.5 -114.5q115 0 213 59.5t154 159.5l67 -41q-66 -114 -181.5 -182t-252.5 -68q-136 0 -251.5 67.5t-183 183t-67.5 251.5t67.5 251.5t183 183t251.5 67.5t251.5 -67.5t183 -183t67.5 -251.5zM186 498h836
q-14 166 -134 279.5t-284 113.5t-284 -113.5t-134 -279.5zM797 1581l43 -65l-469 -279l-43 66z" />
    <glyph glyph-name="ecircumflex" unicode="&#xea;" horiz-adv-x="1208" 
d="M1106 461q0 -23 -2 -35h-918q12 -166 132.5 -280.5t285.5 -114.5q115 0 213 59.5t154 159.5l67 -41q-66 -114 -181.5 -182t-252.5 -68q-136 0 -251.5 67.5t-183 183t-67.5 251.5t67.5 251.5t183 183t251.5 67.5t251.5 -67.5t183 -183t67.5 -251.5zM186 498h836
q-14 166 -134 279.5t-284 113.5t-284 -113.5t-134 -279.5zM598 1585l315 -282l-53 -58l-262 234l-262 -234l-53 58z" />
    <glyph glyph-name="edieresis" unicode="&#xeb;" horiz-adv-x="1208" 
d="M1106 461q0 -23 -2 -35h-918q12 -166 132.5 -280.5t285.5 -114.5q115 0 213 59.5t154 159.5l67 -41q-66 -114 -181.5 -182t-252.5 -68q-136 0 -251.5 67.5t-183 183t-67.5 251.5t67.5 251.5t183 183t251.5 67.5t251.5 -67.5t183 -183t67.5 -251.5zM186 498h836
q-14 166 -134 279.5t-284 113.5t-284 -113.5t-134 -279.5zM866 1536v-164h-82v164h82zM424 1536v-164h-82v164h82z" />
    <glyph glyph-name="igrave" unicode="&#xec;" 
d="M246 922v-922h-82v922h82zM-8 1581l469 -278l-43 -66l-469 279z" />
    <glyph glyph-name="iacute" unicode="&#xed;" 
d="M246 922v-922h-82v922h82zM418 1581l43 -65l-469 -279l-43 66z" />
    <glyph glyph-name="icircumflex" unicode="&#xee;" 
d="M246 922v-922h-82v922h82zM205 1585l315 -282l-53 -58l-262 234l-262 -234l-54 58z" />
    <glyph glyph-name="idieresis" unicode="&#xef;" 
d="M246 922v-922h-82v922h82zM467 1536v-164h-82v164h82zM25 1536v-164h-82v164h82z" />
    <glyph glyph-name="eth" unicode="&#xf0;" horiz-adv-x="1208" 
d="M1106 461q0 -136 -67.5 -251.5t-183 -183t-251.5 -67.5t-251.5 67.5t-183 183t-67.5 251.5t67.5 251.5t183 183t251.5 67.5q111 0 209 -45l-201 305l-258 -158v88l217 133l-165 250h90l139 -211l268 164v-88l-227 -137l346 -527q84 -127 84 -276zM1024 461
q0 178 -123 304t-297 126t-297 -126t-123 -304t123 -304t297 -126t297 126t123 304z" />
    <glyph glyph-name="ntilde" unicode="&#xf1;" horiz-adv-x="1126" 
d="M963 559v-559h-82v559q0 80 -26.5 144.5t-71.5 104t-100 60.5t-116 21t-118 -21.5t-102.5 -61t-73 -104t-27.5 -143.5v-559h-82v922h82v-144q50 90 136.5 137.5t186.5 47.5q74 0 144 -26.5t126 -76t90 -128t34 -173.5zM823 1536h72q-8 -71 -60.5 -118.5t-125.5 -47.5
q-43 0 -74.5 12.5t-51 30t-37 34.5t-42 29.5t-55.5 12.5q-42 0 -74.5 -28t-40.5 -68h-72q8 71 61.5 118.5t125.5 47.5q43 0 74.5 -12t51 -29.5t37 -34.5t42 -29t55.5 -12q42 0 74 27t40 67z" />
    <glyph glyph-name="ograve" unicode="&#xf2;" horiz-adv-x="1208" 
d="M1106 461q0 -136 -67.5 -251.5t-183 -183t-251.5 -67.5t-251.5 67.5t-183 183t-67.5 251.5t67.5 251.5t183 183t251.5 67.5t251.5 -67.5t183 -183t67.5 -251.5zM1024 461q0 178 -123 304t-297 126t-297 -126t-123 -304t123 -304t297 -126t297 126t123 304zM412 1581
l469 -278l-43 -66l-469 279z" />
    <glyph glyph-name="oacute" unicode="&#xf3;" horiz-adv-x="1208" 
d="M1106 461q0 -136 -67.5 -251.5t-183 -183t-251.5 -67.5t-251.5 67.5t-183 183t-67.5 251.5t67.5 251.5t183 183t251.5 67.5t251.5 -67.5t183 -183t67.5 -251.5zM1024 461q0 178 -123 304t-297 126t-297 -126t-123 -304t123 -304t297 -126t297 126t123 304zM797 1581
l43 -65l-469 -279l-43 66z" />
    <glyph glyph-name="ocircumflex" unicode="&#xf4;" horiz-adv-x="1208" 
d="M1106 461q0 -136 -67.5 -251.5t-183 -183t-251.5 -67.5t-251.5 67.5t-183 183t-67.5 251.5t67.5 251.5t183 183t251.5 67.5t251.5 -67.5t183 -183t67.5 -251.5zM1024 461q0 178 -123 304t-297 126t-297 -126t-123 -304t123 -304t297 -126t297 126t123 304zM598 1585
l315 -282l-53 -58l-262 234l-262 -234l-53 58z" />
    <glyph glyph-name="otilde" unicode="&#xf5;" horiz-adv-x="1208" 
d="M1106 461q0 -136 -67.5 -251.5t-183 -183t-251.5 -67.5t-251.5 67.5t-183 183t-67.5 251.5t67.5 251.5t183 183t251.5 67.5t251.5 -67.5t183 -183t67.5 -251.5zM1024 461q0 178 -123 304t-297 126t-297 -126t-123 -304t123 -304t297 -126t297 126t123 304zM864 1536h72
q-8 -71 -60.5 -118.5t-125.5 -47.5q-43 0 -75 12.5t-51 30t-37 34.5t-42.5 29.5t-55.5 12.5q-42 0 -74 -28t-40 -68h-72q8 71 61 118.5t125 47.5q43 0 75 -12t51 -29.5t37 -34.5t42.5 -29t55.5 -12q42 0 74 27t40 67z" />
    <glyph glyph-name="odieresis" unicode="&#xf6;" horiz-adv-x="1208" 
d="M1106 461q0 -136 -67.5 -251.5t-183 -183t-251.5 -67.5t-251.5 67.5t-183 183t-67.5 251.5t67.5 251.5t183 183t251.5 67.5t251.5 -67.5t183 -183t67.5 -251.5zM1024 461q0 178 -123 304t-297 126t-297 -126t-123 -304t123 -304t297 -126t297 126t123 304zM866 1536v-164
h-82v164h82zM424 1536v-164h-82v164h82z" />
    <glyph glyph-name="divide" unicode="&#xf7;" horiz-adv-x="1228" 
d="M655 1331v-205h-82v205h82zM1147 803v-72h-1065v72h1065zM655 410v-205h-82v205h82z" />
    <glyph glyph-name="oslash" unicode="&#xf8;" horiz-adv-x="1208" 
d="M1106 461q0 -136 -67.5 -251.5t-183 -183t-251.5 -67.5q-97 0 -184 35l-72 -150l-63 33l71 148q-116 65 -185 181.5t-69 254.5q0 136 67.5 251.5t183 183t251.5 67.5q97 0 184 -35l72 149l64 -33l-72 -147q116 -65 185 -181.5t69 -254.5zM1024 461q0 115 -55 212.5
t-148 155.5l-370 -770q76 -28 153 -28q174 0 297 126t123 304zM387 92l369 770q-76 29 -152 29q-174 0 -297 -126t-123 -304q0 -115 55 -213t148 -156z" />
    <glyph glyph-name="ugrave" unicode="&#xf9;" horiz-adv-x="1126" 
d="M963 922v-922h-82v143q-49 -90 -136 -137t-188 -47q-74 0 -143.5 26.5t-125.5 75.5t-90 127.5t-34 173.5v560h82v-560q0 -158 92.5 -244.5t220.5 -86.5q83 0 154.5 36t119.5 113t48 182v560h82zM371 1581l469 -278l-43 -66l-469 279z" />
    <glyph glyph-name="uacute" unicode="&#xfa;" horiz-adv-x="1126" 
d="M963 922v-922h-82v143q-49 -90 -136 -137t-188 -47q-74 0 -143.5 26.5t-125.5 75.5t-90 127.5t-34 173.5v560h82v-560q0 -158 92.5 -244.5t220.5 -86.5q83 0 154.5 36t119.5 113t48 182v560h82zM776 1581l43 -65l-469 -279l-43 66z" />
    <glyph glyph-name="ucircumflex" unicode="&#xfb;" horiz-adv-x="1126" 
d="M963 922v-922h-82v143q-49 -90 -136 -137t-188 -47q-74 0 -143.5 26.5t-125.5 75.5t-90 127.5t-34 173.5v560h82v-560q0 -158 92.5 -244.5t220.5 -86.5q83 0 154.5 36t119.5 113t48 182v560h82zM557 1585l315 -282l-53 -58l-262 234l-262 -234l-53 58z" />
    <glyph glyph-name="udieresis" unicode="&#xfc;" horiz-adv-x="1126" 
d="M963 922v-922h-82v143q-49 -90 -136 -137t-188 -47q-74 0 -143.5 26.5t-125.5 75.5t-90 127.5t-34 173.5v560h82v-560q0 -158 92.5 -244.5t220.5 -86.5q83 0 154.5 36t119.5 113t48 182v560h82zM840 1536v-164h-82v164h82zM397 1536v-164h-82v164h82z" />
    <glyph glyph-name="yacute" unicode="&#xfd;" horiz-adv-x="995" 
d="M885 922h90l-645 -1371q-29 -63 -83 -94.5t-118 -31.5q-54 0 -106 22v76q50 -29 100 -29q90 0 129 82l201 426l-433 920h91l387 -824zM715 1581l43 -65l-469 -279l-43 66z" />
    <glyph glyph-name="thorn" unicode="&#xfe;" horiz-adv-x="1269" 
d="M1167 461q0 -136 -67 -251.5t-182.5 -183t-251.5 -67.5q-138 0 -249 70t-171 188v-770h-82v2089h82v-831q60 118 171 188t249 70q136 0 251.5 -67.5t182.5 -183t67 -251.5zM1085 461q0 178 -123 304t-296 126q-174 0 -297 -126t-123 -304t123 -304t297 -126
q173 0 296 126t123 304z" />
    <glyph glyph-name="ydieresis" unicode="&#xff;" horiz-adv-x="995" 
d="M885 922h90l-645 -1371q-29 -63 -83 -94.5t-118 -31.5q-54 0 -106 22v76q50 -29 100 -29q90 0 129 82l201 426l-433 920h91l387 -824zM764 1536v-164h-82v164h82zM322 1536v-164h-82v164h82z" />
    <glyph glyph-name="dotlessi" unicode="&#x131;" 
d="M246 922v-922h-82v922h82z" />
    <glyph glyph-name="Lslash" unicode="&#x141;" horiz-adv-x="1206" 
d="M1126 72v-72h-850v709l-235 -136v93l235 135v735h82v-688l232 133v-92l-232 -133v-684h768z" />
    <glyph glyph-name="lslash" unicode="&#x142;" horiz-adv-x="630" 
d="M590 981v-92l-232 -133v-756h-82v709l-235 -136v93l235 135v735h82v-688z" />
    <glyph glyph-name="OE" unicode="&#x152;" horiz-adv-x="1822" 
d="M2488 72v-72h-850v414q-100 -206 -295.5 -330.5t-431.5 -124.5q-164 0 -314 64t-258.5 172.5t-172.5 258.5t-64 314t64 314t172.5 258.5t258.5 172.5t314 64q236 0 431.5 -124.5t295.5 -330.5v414h850v-72h-768v-661h707v-72h-707v-659h768zM1638 768q0 201 -97.5 370.5
t-265 268t-364.5 98.5t-364.5 -98.5t-265 -268t-97.5 -370.5t97.5 -370.5t265 -268t364.5 -98.5t364.5 98.5t265 268t97.5 370.5z" />
    <glyph glyph-name="oe" unicode="&#x153;" horiz-adv-x="2129" 
d="M2028 461q0 -17 -3 -35h-917q12 -166 132.5 -280.5t285.5 -114.5q115 0 212 59.5t154 159.5l68 -41q-66 -114 -181.5 -182t-252.5 -68q-153 0 -277 83.5t-184 219.5q-60 -136 -184 -219.5t-277 -83.5q-136 0 -251.5 67.5t-183 183t-67.5 251.5t67.5 251.5t183 183
t251.5 67.5q153 0 277 -84t184 -220q60 136 184 220t277 84q136 0 251.5 -67.5t183 -183t67.5 -251.5zM1108 498h836q-14 166 -134 279.5t-284 113.5t-284 -113.5t-134 -279.5zM1024 461q0 178 -123 304t-297 126t-297 -126t-123 -304t123 -304t297 -126t297 126t123 304z
" />
    <glyph glyph-name="Scaron" unicode="&#x160;" horiz-adv-x="1208" 
d="M860 1948l37 -66l-315 -168l-314 166l37 66l277 -146zM1106 387q0 -102 -42 -185t-112.5 -135t-158.5 -80t-183 -28q-116 0 -219 39t-183 124t-106 204l70 28q35 -159 158.5 -241t281.5 -82q80 0 153.5 23t132 66t93.5 112t35 153q0 269 -303 342l-252 59
q-160 37 -252 136.5t-92 259.5q0 76 26 141t70.5 111t104 78.5t127 48.5t139.5 16q110 0 208 -36t174.5 -115.5t102.5 -190.5l-67 -27q-31 142 -151 219.5t-269 77.5q-74 0 -142.5 -20.5t-123 -59.5t-87 -101.5t-32.5 -139.5q0 -131 74 -210t206 -110l252 -59
q171 -41 269 -144t98 -274z" />
    <glyph glyph-name="scaron" unicode="&#x161;" horiz-adv-x="929" 
d="M827 244q0 -114 -96.5 -199.5t-263.5 -85.5q-131 0 -234 63.5t-131 184.5l70 26q15 -67 62 -114t106 -67.5t127 -20.5q129 0 203.5 63t74.5 146q0 62 -44 111t-128 65l-225 41q-105 19 -160 85t-55 148q0 84 49 148t124.5 95.5t162.5 31.5q78 0 147 -26t125.5 -83.5
t81.5 -140.5l-71 -27q-29 100 -108.5 151.5t-176.5 51.5q-102 0 -177 -53.5t-75 -143.5q0 -131 150 -162l225 -40q115 -21 176 -90.5t61 -157.5zM737 1585l54 -57l-316 -283l-315 283l53 57l262 -233z" />
    <glyph glyph-name="Ydieresis" unicode="&#x178;" horiz-adv-x="1490" 
d="M1305 1536h104l-623 -782v-754h-81v754l-623 782h104l559 -702zM1001 1933v-164h-81v164h81zM559 1933v-164h-82v164h82z" />
    <glyph glyph-name="Zcaron" unicode="&#x17d;" horiz-adv-x="1198" 
d="M922 1948l36 -66l-315 -168l-313 166l37 66l276 -146zM1116 72v-72h-1034v72l934 1392h-934v72h1034v-72l-934 -1392h934z" />
    <glyph glyph-name="zcaron" unicode="&#x17e;" horiz-adv-x="890" 
d="M809 72v-72h-727v72l623 778h-617v72h717v-72l-623 -778h627zM696 1585l54 -57l-316 -283l-315 283l53 57l262 -233z" />
    <glyph glyph-name="circumflex" unicode="&#x2c6;" horiz-adv-x="1206" 
d="M598 1585l315 -282l-53 -58l-262 234l-262 -234l-53 58z" />
    <glyph glyph-name="caron" unicode="&#x2c7;" horiz-adv-x="1206" 
d="M860 1585l53 -57l-315 -283l-315 283l53 57l262 -233z" />
    <glyph glyph-name="breve" unicode="&#x2d8;" horiz-adv-x="1206" 
d="M836 1565l67 -43q-119 -181 -301 -181q-180 0 -299 181l68 43q94 -142 231 -142q140 0 234 142z" />
    <glyph glyph-name="dotaccent" unicode="&#x2d9;" horiz-adv-x="1206" 
d="M672 1536v-164h-82v164h82z" />
    <glyph glyph-name="ring" unicode="&#x2da;" horiz-adv-x="1208" 
d="M811 1386q0 -86 -60.5 -146t-148.5 -60q-86 0 -146.5 60t-60.5 146q0 88 60.5 148.5t146.5 60.5q88 0 148.5 -60.5t60.5 -148.5zM750 1389q0 60 -43 102.5t-103 42.5q-61 0 -104 -42.5t-43 -102.5q0 -62 43 -105t104 -43q60 0 103 43.5t43 104.5z" />
    <glyph glyph-name="ogonek" unicode="&#x2db;" horiz-adv-x="1138" 
d="M639 33l45 -68q-141 -93 -141 -231q0 -141 141 -234l-45 -67q-178 119 -178 301q0 180 178 299z" />
    <glyph glyph-name="tilde" unicode="&#x2dc;" horiz-adv-x="1208" 
d="M864 1536h72q-8 -71 -60.5 -118.5t-125.5 -47.5q-43 0 -75 12.5t-51 30t-37 34.5t-42.5 29.5t-55.5 12.5q-42 0 -74 -28t-40 -68h-72q8 71 61 118.5t125 47.5q43 0 75 -12t51 -29.5t37 -34.5t42.5 -29t55.5 -12q42 0 74 27t40 67z" />
    <glyph glyph-name="hungarumlaut" unicode="&#x2dd;" horiz-adv-x="1224" 
d="M930 1583l78 -55l-164 -228l-78 54zM459 1583l78 -55l-164 -228l-78 54z" />
    <glyph glyph-name="endash" unicode="&#x2013;" horiz-adv-x="1095" 
d="M973 598v-72h-850v72h850z" />
    <glyph glyph-name="emdash" unicode="&#x2014;" horiz-adv-x="1781" 
d="M1659 598v-72h-1536v72h1536z" />
    <glyph glyph-name="quoteleft" unicode="&#x2018;" horiz-adv-x="370" 
d="M72 1577l278 -481l-71 -41l-279 481z" />
    <glyph glyph-name="quoteright" unicode="&#x2019;" horiz-adv-x="370" 
d="M299 1577l72 -41l-279 -481l-72 41z" />
    <glyph glyph-name="quotesinglbase" unicode="&#x201a;" horiz-adv-x="432" 
d="M279 260l71 -41l-278 -481l-72 41z" />
    <glyph glyph-name="quotedblleft" unicode="&#x201c;" horiz-adv-x="636" 
d="M338 1577l278 -481l-71 -41l-279 481zM72 1577l278 -481l-71 -41l-279 481z" />
    <glyph glyph-name="quotedblright" unicode="&#x201d;" horiz-adv-x="636" 
d="M565 1577l72 -41l-279 -481l-71 41zM299 1577l72 -41l-279 -481l-72 41z" />
    <glyph glyph-name="quotedblbase" unicode="&#x201e;" horiz-adv-x="698" 
d="M545 260l71 -41l-278 -481l-72 41zM279 260l71 -41l-278 -481l-72 41z" />
    <glyph glyph-name="dagger" unicode="&#x2020;" horiz-adv-x="1064" 
d="M963 885v-72h-390v-1018h-81v1018h-390v72h390v446h81v-446h390z" />
    <glyph glyph-name="daggerdbl" unicode="&#x2021;" horiz-adv-x="1064" 
d="M963 313v-71h-390v-447h-81v447h-390v71h390v500h-390v72h390v446h81v-446h390v-72h-390v-500h390z" />
    <glyph glyph-name="bullet" unicode="&#x2022;" horiz-adv-x="956" 
d="M836 770q0 -155 -111 -265t-266 -110q-157 0 -267 110t-110 265q0 157 110 267t267 110q156 0 266.5 -110.5t110.5 -266.5z" />
    <glyph glyph-name="ellipsis" unicode="&#x2026;" horiz-adv-x="1269" 
d="M1106 246v-246h-82v246h82zM676 246v-246h-82v246h82zM246 246v-246h-82v246h82z" />
    <glyph glyph-name="perthousand" unicode="&#x2030;" horiz-adv-x="2496" 
d="M2417 336q0 -157 -110 -267t-267 -110q-156 0 -266.5 110.5t-110.5 266.5q0 155 111 265t266 110q157 0 267 -110t110 -265zM836 1200q0 -155 -111 -265t-266 -110q-157 0 -267 110t-110 265q0 157 110 267t267 110q156 0 266.5 -110.5t110.5 -266.5zM1221 1577l65 -35
l-848 -1583l-65 35zM1577 336q0 -157 -110 -267t-267 -110q-156 0 -266.5 110.5t-110.5 266.5q0 155 111 265t266 110q157 0 267 -110t110 -265zM2335 336q0 123 -86.5 213t-208.5 90q-121 0 -208 -90.5t-87 -212.5q0 -124 87 -214.5t208 -90.5q122 0 208.5 90.5t86.5 214.5
zM754 1200q0 124 -87 214.5t-208 90.5q-122 0 -208.5 -90.5t-86.5 -214.5q0 -123 86.5 -213t208.5 -90q121 0 208 90.5t87 212.5zM1495 336q0 123 -86.5 213t-208.5 90q-121 0 -208 -90.5t-87 -212.5q0 -124 87 -214.5t208 -90.5q122 0 208.5 90.5t86.5 214.5z" />
    <glyph glyph-name="guilsinglleft" unicode="&#x2039;" horiz-adv-x="530" 
d="M164 518l307 -307l-51 -51l-359 358l359 359l51 -52z" />
    <glyph glyph-name="guilsinglright" unicode="&#x203a;" horiz-adv-x="530" 
d="M111 877l358 -359l-358 -358l-52 51l308 307l-308 307z" />
    <glyph glyph-name="Euro" unicode="&#x20ac;" horiz-adv-x="1994" 
d="M1778 487l75 -28q-92 -223 -294.5 -361.5t-452.5 -138.5q-269 0 -482 158.5t-290 408.5h-232v72h213q-18 83 -18 170q0 88 18 168h-213v72h232q77 250 290 409.5t482 159.5q250 0 452.5 -138.5t294.5 -361.5l-75 -28q-83 204 -265 330t-407 126q-236 0 -425 -138.5
t-263 -358.5h569v-72h-590q-18 -80 -18 -168q0 -91 20 -170h588v-72h-567q74 -219 262.5 -357t423.5 -138q225 0 407 126t265 330z" />
    <glyph glyph-name="minus" unicode="&#x2212;" horiz-adv-x="1228" 
d="M1147 803v-72h-1065v72h1065z" />
    </font>
</defs>
</svg>
