<?xml version="1.0" encoding="UTF-8"?>
<svg width="180px" height="180px" viewBox="0 0 180 180" version="1.1" xmlns="http://www.w3.org/2000/svg" xmlns:xlink="http://www.w3.org/1999/xlink">
    <title>Artboard Copy</title>
    <g id="Artboard-Copy" stroke="none" stroke-width="1" fill="none" fill-rule="evenodd">
        <rect fill="#ED0303" x="0" y="0" width="180" height="180"></rect>
        <g id="W" transform="translate(25.350000, 36.900000)" fill="#FFFFFF" fill-rule="nonzero">
            <path d="M99,56.85 L117.6,0 L128.85,0 L92.4,107.1 L82.65,107.1 L64.2,56.55 L45.9,107.1 L36.3,107.1 L0,0 L11.1,0 L41.4,93.3 C47,77.1 51.25,65 54.15,57 L58.8,43.65 L42.45,0 L52.8,0 L64.65,32.85 L75.9,0 L86.4,0 L69.9,44.1 L74.85,57.3 C76.25,61.3 78.375,67.275 81.225,75.225 C84.075,83.175 86.2,89.15 87.6,93.15 L99,56.85 Z" id="Path"></path>
        </g>
    </g>
</svg>