<?xml version="1.0" encoding="UTF-8"?>
<svg width="467px" height="125px" viewBox="0 0 467 125" version="1.1" xmlns="http://www.w3.org/2000/svg" xmlns:xlink="http://www.w3.org/1999/xlink">
    <title>logo</title>
    <g id="Page-1" stroke="none" stroke-width="1" fill="none" fill-rule="evenodd">
        <g id="logo">
            <rect id="Rectangle" fill="#EC1C24" x="0" y="0" width="467" height="125"></rect>
            <g id="WGSANA" transform="translate(45.720000, 35.872000)" fill="#FFFFFF" fill-rule="nonzero">
                <polygon id="Path" points="56.088 0.72 62.496 0.72 45.288 52.128 39.384 52.128 31.176 28.728 23.04 52.128 17.136 52.128 0 0.72 6.336 0.72 15.192 28.224 20.232 45.144 25.776 28.224 28.008 21.6 20.376 0.72 26.208 0.72 31.248 15.336 36.216 0.72 42.12 0.72 34.344 21.6 36.792 28.152 42.48 45.144 47.376 28.152"></polygon>
                <path d="M123.936,50.4 C118.896,52.032 114.192,52.848 109.824,52.848 C101.76,52.848 95.208,50.496 90.168,45.792 C85.128,41.088 82.608,34.656 82.608,26.496 C82.608,18.432 84.972,12 89.7,7.2 C94.428,2.4 100.464,0 107.808,0 C112.848,0 117.216,0.72 120.912,2.16 L120.192,8.352 C115.92,6.432 111.816,5.472 107.88,5.472 C102.264,5.472 97.704,7.272 94.2,10.872 C90.696,14.472 88.944,19.728 88.944,26.64 C88.944,33.216 90.852,38.316 94.668,41.94 C98.484,45.564 103.512,47.376 109.752,47.376 C112.056,47.376 114.84,47.064 118.104,46.44 L118.104,31.248 L107.16,31.248 L107.16,25.92 L123.936,25.92 L123.936,50.4 Z" id="Path"></path>
                <path d="M181.344,39.024 C181.344,43.248 179.76,46.608 176.592,49.104 C173.424,51.6 169.032,52.848 163.416,52.848 C158.28,52.848 153.36,51.648 148.656,49.248 L149.376,42.84 C154.464,45.864 159.216,47.376 163.632,47.376 C167.28,47.376 170.112,46.62 172.128,45.108 C174.144,43.596 175.152,41.592 175.152,39.096 C175.152,35.256 173.016,32.424 168.744,30.6 L159.96,26.928 C156.36,25.392 153.684,23.568 151.932,21.456 C150.18,19.344 149.304,16.68 149.304,13.464 C149.304,9.576 150.852,6.36 153.948,3.816 C157.044,1.272 161.04,0 165.936,0 C170.736,0 175.344,1.032 179.76,3.096 L178.464,9.36 C174.336,6.768 170.184,5.472 166.008,5.472 C162.648,5.472 160.032,6.228 158.16,7.74 C156.288,9.252 155.352,11.16 155.352,13.464 C155.352,15.432 155.916,16.98 157.044,18.108 C158.172,19.236 159.864,20.256 162.12,21.168 L171.048,24.84 C177.912,27.672 181.344,32.4 181.344,39.024 Z" id="Path"></path>
                <path d="M245.448,52.128 L239.184,52.128 L233.928,38.664 L211.104,38.664 L205.848,52.128 L199.8,52.128 L219.744,0.72 L225.576,0.72 L245.448,52.128 Z M213.12,33.336 L232.056,33.336 L227.664,21.744 L222.552,7.056 L217.944,20.664 L213.12,33.336 Z" id="Shape"></path>
                <polygon id="Path" points="308.04 52.128 303.648 52.128 273.264 9.144 273.552 25.704 273.552 52.128 267.864 52.128 267.864 0.72 273.984 0.72 302.568 39.744 302.28 22.896 302.28 0.72 308.04 0.72"></polygon>
                <path d="M376.104,52.128 L369.84,52.128 L364.584,38.664 L341.76,38.664 L336.504,52.128 L330.456,52.128 L350.4,0.72 L356.232,0.72 L376.104,52.128 Z M343.776,33.336 L362.712,33.336 L358.32,21.744 L353.208,7.056 L348.6,20.664 L343.776,33.336 Z" id="Shape"></path>
            </g>
        </g>
    </g>
</svg>