<?xml version="1.0" standalone="no"?>
<!DOCTYPE svg PUBLIC "-//W3C//DTD SVG 1.1//EN" "http://www.w3.org/Graphics/SVG/1.1/DTD/svg11.dtd" >
<svg xmlns="http://www.w3.org/2000/svg" xmlns:xlink="http://www.w3.org/1999/xlink" version="1.1">
<metadata>
Created by FontForge 20170731 at Mon Jun 14 15:19:17 2021
 By Aleksey,,,
Generated in 2010 by FontLab Studio. Copyright info pending.
</metadata>
<defs>
<font id="AnoBold-Regular" horiz-adv-x="1208" >
  <font-face 
    font-family="Ano Bold"
    font-weight="400"
    font-stretch="normal"
    units-per-em="2048"
    panose-1="0 0 0 0 0 0 0 0 0 0"
    ascent="1638"
    descent="-410"
    x-height="922"
    cap-height="1536"
    bbox="-104 -573 2628 2025"
    underline-thickness="40"
    underline-position="-312"
    unicode-range="U+0020-2212"
  />
<missing-glyph horiz-adv-x="409" 
 />
    <glyph glyph-name=".notdef" horiz-adv-x="409" 
 />
    <glyph glyph-name=".null" horiz-adv-x="0" 
 />
    <glyph glyph-name="nonmarkingreturn" horiz-adv-x="682" 
 />
    <glyph glyph-name="space" unicode=" " horiz-adv-x="409" 
 />
    <glyph glyph-name="exclam" unicode="!" horiz-adv-x="598" 
d="M422 1536v-1010h-246v1010h246zM422 352v-352h-246v352h246z" />
    <glyph glyph-name="quotedbl" unicode="&#x22;" horiz-adv-x="942" 
d="M799 1536v-512h-246v512h246zM389 1536v-512h-246v512h246z" />
    <glyph glyph-name="numbersign" unicode="#" horiz-adv-x="1429" 
d="M1096 1069h254l-47 -213h-252l-37 -176h252l-45 -213h-254l-99 -467h-245l98 467h-154l-98 -467h-246l99 467h-240l45 213h242l37 176h-240l45 213h240l98 467h246l-99 -467h154l98 467h246zM768 680l37 176h-154l-37 -176h154z" />
    <glyph glyph-name="dollar" unicode="$" horiz-adv-x="1306" 
d="M1186 446q0 -180 -113.5 -306.5t-284.5 -166.5v-260h-245v256q-137 28 -248.5 123t-171.5 256l203 84q50 -132 137 -197t188 -65q118 0 206.5 77.5t88.5 190.5q0 71 -49 125.5t-147 79.5l-242 64q-163 43 -252.5 158t-89.5 259q0 177 107.5 293.5t269.5 149.5v256h245
v-260q138 -33 241.5 -129.5t141.5 -249.5l-198 -78q-36 126 -125.5 192t-192.5 66q-104 0 -178 -63t-74 -171q0 -72 43.5 -128.5t124.5 -77.5l269 -70q167 -43 256.5 -154.5t89.5 -253.5z" />
    <glyph glyph-name="percent" unicode="%" horiz-adv-x="1847" 
d="M1767 354q0 -163 -116 -279t-279 -116q-164 0 -279.5 116t-115.5 279q0 164 115.5 280t279.5 116q163 0 279 -116t116 -280zM1264 1577l188 -107l-872 -1511l-189 107zM872 1180q0 -163 -116 -279.5t-279 -116.5q-164 0 -279.5 116.5t-115.5 279.5q0 164 115.5 279.5
t279.5 115.5q163 0 279 -115.5t116 -279.5zM1573 354q0 84 -59.5 147.5t-141.5 63.5t-141.5 -63.5t-59.5 -147.5t59.5 -147.5t141.5 -63.5t141.5 63.5t59.5 147.5zM678 1180q0 84 -59.5 147.5t-141.5 63.5t-141.5 -63.5t-59.5 -147.5t59.5 -147.5t141.5 -63.5t141.5 63.5
t59.5 147.5z" />
    <glyph glyph-name="ampersand" unicode="&#x26;" horiz-adv-x="1232" 
d="M1171 698v-215h-112v-65q0 -191 -147 -325t-353 -134q-134 0 -248.5 61t-182 166.5t-67.5 231.5q0 117 59.5 217t162.5 162q-88 59 -137.5 149.5t-49.5 196.5q0 119 62.5 219t169 157.5t231.5 57.5q168 0 295 -102t164 -269l-199 -82q-33 121 -103.5 179.5t-156.5 58.5
q-93 0 -159 -68t-66 -166q0 -96 66 -163.5t159 -67.5h62v-215h-62q-108 0 -184 -73.5t-76 -178.5q0 -106 76.5 -181t183.5 -75q109 0 185.5 75t76.5 181v53h-112v215h462z" />
    <glyph glyph-name="quotesingle" unicode="'" horiz-adv-x="532" 
d="M389 1536v-512h-246v512h246z" />
    <glyph glyph-name="parenleft" unicode="(" horiz-adv-x="847" 
d="M748 63l-80 -190q-115 15 -210 74t-160 146t-110 199t-65.5 231.5t-20.5 244.5t20.5 244.5t65.5 231.5t110 199t160 146t210 74l80 -190q-97 -18 -174.5 -83.5t-126 -162t-74 -214t-25.5 -245.5t25.5 -245.5t74 -214t126 -162t174.5 -83.5z" />
    <glyph glyph-name="parenright" unicode=")" horiz-adv-x="847" 
d="M748 768q0 -125 -20.5 -244.5t-65.5 -231.5t-110 -199t-160 -146t-210 -74l-80 190q97 18 174.5 83.5t126 162t74 214t25.5 245.5t-25.5 245.5t-74 214t-126 162t-174.5 83.5l80 190q115 -15 210 -74t160 -146t110 -199t65.5 -231.5t20.5 -244.5z" />
    <glyph glyph-name="asterisk" unicode="*" horiz-adv-x="1073" 
d="M956 1319l76 -234l-307 -94l195 -256l-199 -145l-184 264l-185 -264l-198 145l194 258l-307 92l76 234l297 -102v319h245v-319z" />
    <glyph glyph-name="plus" unicode="+" horiz-adv-x="1290" 
d="M1208 874v-215h-440v-454h-246v454h-440v215h440v457h246v-457h440z" />
    <glyph glyph-name="comma" unicode="," horiz-adv-x="641" 
d="M432 412l209 -142l-432 -596l-209 142z" />
    <glyph glyph-name="hyphen" unicode="-" horiz-adv-x="808" 
d="M727 670v-215h-645v215h645z" />
    <glyph glyph-name="period" unicode="." horiz-adv-x="532" 
d="M389 352v-352h-246v352h246z" />
    <glyph glyph-name="slash" unicode="/" horiz-adv-x="1030" 
d="M809 1681l223 -104l-809 -1733l-223 105z" />
    <glyph glyph-name="zero" unicode="0" 
d="M1106 1075v-614q0 -136 -67.5 -251.5t-183 -183t-251.5 -67.5t-251.5 67.5t-183 183t-67.5 251.5v614q0 136 67.5 251.5t183 183t251.5 67.5t251.5 -67.5t183 -183t67.5 -251.5zM860 461v614q0 119 -75 203t-181 84t-181 -84t-75 -203v-614q0 -119 75 -203t181 -84
t181 84t75 203z" />
    <glyph glyph-name="one" unicode="1" horiz-adv-x="946" 
d="M813 1536v-1536h-246v1196l-278 -281l-156 150l434 471h246z" />
    <glyph glyph-name="two" unicode="2" horiz-adv-x="1128" 
d="M1038 1124q0 -183 -127 -331l-493 -578h598v-215h-922v215l621 725q76 85 76 201q0 105 -64 164t-156 59q-96 0 -176.5 -65.5t-105.5 -184.5l-197 80q18 94 64.5 168.5t111.5 120.5t140.5 70t156.5 24q91 0 174.5 -29.5t151 -85t107.5 -143t40 -195.5z" />
    <glyph glyph-name="three" unicode="3" horiz-adv-x="1169" 
d="M1079 418q0 -126 -67.5 -231.5t-182.5 -166.5t-249 -61q-176 0 -311.5 104t-176.5 273l209 84q32 -124 107 -185t172 -61q109 0 185.5 75t76.5 181q0 105 -76.5 178.5t-185.5 73.5h-224v215h224q94 0 160.5 67.5t66.5 163.5q0 98 -66.5 166t-160.5 68q-86 0 -155.5 -58.5
t-102.5 -179.5l-199 82q37 166 163.5 268.5t293.5 102.5q125 0 232 -57.5t169.5 -157.5t62.5 -219q0 -106 -50 -196t-138 -150q103 -63 163 -162.5t60 -216.5z" />
    <glyph glyph-name="four" unicode="4" horiz-adv-x="1269" 
d="M1190 502v-215h-207v-287h-246v287h-655v188l655 1061h246v-1034h207zM346 502h391v635z" />
    <glyph glyph-name="five" unicode="5" horiz-adv-x="1210" 
d="M1118 475q0 -116 -44.5 -214.5t-118.5 -163t-167.5 -100.5t-193.5 -36q-165 0 -302 98t-200 291l199 82q39 -128 121.5 -193t179.5 -65q118 0 204.5 84t86.5 217q0 126 -84 213.5t-203 87.5q-108 0 -180.5 -18.5t-214.5 -73.5l73 852h748v-215h-535l-30 -342
q65 12 139 12q106 0 203 -41t167 -110t111 -164.5t41 -200.5z" />
    <glyph glyph-name="six" unicode="6" horiz-adv-x="1249" 
d="M1147 475q0 -105 -41 -200.5t-111 -164.5t-167 -110t-203 -41q-142 0 -262.5 69t-190.5 188t-70 259q0 141 70 256l469 805h274l-319 -545h29q106 0 203 -41t167 -110t111 -164.5t41 -200.5zM911 475q0 125 -84 213t-202 88t-202.5 -88t-84.5 -213t84.5 -213t202.5 -88
t202 88t84 213z" />
    <glyph glyph-name="seven" unicode="7" horiz-adv-x="1017" 
d="M958 1536v-215l-641 -1321h-256l641 1321h-639v215h895z" />
    <glyph glyph-name="eight" unicode="8" horiz-adv-x="1202" 
d="M1100 418q0 -126 -68 -232t-182.5 -166.5t-247.5 -60.5q-134 0 -249 60.5t-183 166.5t-68 232q0 116 59 216t158 163q-85 60 -133.5 150.5t-48.5 195.5q0 119 63 219t170 157.5t232 57.5q124 0 230.5 -57.5t169.5 -157.5t63 -219q0 -105 -48.5 -195.5t-133.5 -150.5
q99 -63 158 -163t59 -216zM827 1128q0 97 -66.5 165.5t-158.5 68.5q-94 0 -160.5 -68.5t-66.5 -165.5q0 -95 66.5 -163t160.5 -68q92 0 158.5 68t66.5 163zM864 430q0 105 -77 180.5t-185 75.5q-110 0 -187 -75.5t-77 -180.5q0 -106 77 -181t187 -75q109 0 185.5 75
t76.5 181z" />
    <glyph glyph-name="nine" unicode="9" 
d="M1106 1083q0 -134 -66 -245l-491 -838h-277l346 590h-20q-205 0 -350.5 144.5t-145.5 348.5q0 134 67.5 247.5t183 180t251.5 66.5t251.5 -66.5t183 -180t67.5 -247.5zM868 1083q0 115 -77.5 196t-186.5 81q-108 0 -186 -81t-78 -196q0 -116 78 -196t186 -80
q109 0 186.5 80t77.5 196z" />
    <glyph glyph-name="colon" unicode=":" horiz-adv-x="532" 
d="M389 922v-353h-246v353h246zM389 352v-352h-246v352h246z" />
    <glyph glyph-name="semicolon" unicode=";" horiz-adv-x="641" 
d="M553 922v-353h-246v353h246zM432 412l209 -142l-432 -596l-209 142z" />
    <glyph glyph-name="less" unicode="&#x3c;" horiz-adv-x="923" 
d="M377 756l477 -477l-152 -152l-630 629l630 630l152 -151z" />
    <glyph glyph-name="equal" unicode="=" horiz-adv-x="1290" 
d="M1208 1079v-215h-1126v215h1126zM1208 670v-215h-1126v215h1126z" />
    <glyph glyph-name="greater" unicode="&#x3e;" horiz-adv-x="923" 
d="M223 1386l631 -630l-631 -629l-151 152l477 477l-477 479z" />
    <glyph glyph-name="question" unicode="?" horiz-adv-x="1251" 
d="M1149 1120q0 -145 -90.5 -260t-259.5 -153q-87 -19 -136 -68t-57 -113h-241q14 317 376 398q80 18 124 75.5t44 128.5q0 96 -72 166t-202 70q-111 0 -205.5 -66t-130.5 -192l-199 78q25 98 79.5 175t127 123.5t155.5 70.5t171 24q123 0 223.5 -39.5t163 -105t96 -146
t33.5 -166.5zM606 352v-352h-246v352h246z" />
    <glyph glyph-name="at" unicode="@" horiz-adv-x="1822" 
d="M1720 768q0 -59 -9.5 -117.5t-32.5 -117.5t-57 -104.5t-87.5 -75t-120.5 -31.5l98 -99q-264 -264 -600 -264q-164 0 -314 64t-258.5 172.5t-172.5 258.5t-64 314t64 314t172.5 258.5t258.5 172.5t314 64t314 -64t258.5 -172.5t172.5 -258.5t64 -314zM1487 768
q0 226 -148 397v-542q0 -32 19.5 -58t44.5 -26q35 0 59.5 54.5t24.5 174.5zM1106 768q0 95 -64 163t-151 68t-151 -67.5t-64 -163.5t64 -163.5t151 -67.5t151 68t64 163zM1106 1182h219q-80 85 -186 132.5t-228 47.5q-117 0 -223.5 -47t-183.5 -126t-122.5 -189t-45.5 -232
t45.5 -232t122.5 -189t183.5 -126t223.5 -47q217 0 396 164q-95 33 -146 111q-113 -125 -282 -125q-88 0 -168.5 35.5t-139.5 95t-94 141.5t-35 172t35 172t94 141.5t139.5 95t168.5 35.5q124 0 227 -73v43z" />
    <glyph glyph-name="A" unicode="A" horiz-adv-x="1468" 
d="M860 1536l608 -1536h-266l-153 397h-631l-154 -397h-264l608 1536h252zM500 610h467l-234 602z" />
    <glyph glyph-name="B" unicode="B" horiz-adv-x="1308" 
d="M1198 428q0 -178 -127 -303t-307 -125h-621v1536h582q180 0 307 -125t127 -303q0 -191 -174 -322q101 -58 157 -150.5t56 -207.5zM911 1098q0 96 -57.5 159.5t-148.5 63.5h-316v-447h316q91 0 148.5 64t57.5 160zM952 438q0 96 -58.5 158.5t-148.5 62.5h-356v-444h356
q90 0 148.5 63.5t58.5 159.5z" />
    <glyph glyph-name="C" unicode="C" horiz-adv-x="1740" 
d="M1649 1077l-222 -92q-62 168 -205 272.5t-319 104.5q-153 0 -282.5 -79.5t-205 -216.5t-75.5 -298t75.5 -298t205 -216.5t282.5 -79.5q176 0 319 104.5t205 272.5l222 -92q-92 -223 -295 -361.5t-453 -138.5q-164 0 -314 64t-258.5 172.5t-172.5 258.5t-64 314t64 314
t172.5 258.5t258.5 172.5t314 64q250 0 453 -138.5t295 -361.5z" />
    <glyph glyph-name="D" unicode="D" horiz-adv-x="1576" 
d="M1454 768q0 -209 -103 -385.5t-279.5 -279.5t-385.5 -103h-543v1536h543q209 0 385.5 -103t279.5 -279.5t103 -385.5zM1208 768q0 112 -44 214.5t-118 176.5t-176.5 118t-214.5 44h-266v-1106h266q112 0 214.5 44t176.5 118t118 176.5t44 214.5z" />
    <glyph glyph-name="E" unicode="E" horiz-adv-x="1157" 
d="M1034 215v-215h-891v1536h891v-215h-645v-447h586v-215h-586v-444h645z" />
    <glyph glyph-name="F" unicode="F" horiz-adv-x="1157" 
d="M1034 1536v-215h-645v-447h586v-215h-586v-659h-246v1536h891z" />
    <glyph glyph-name="G" unicode="G" horiz-adv-x="1822" 
d="M1720 768q0 -164 -64 -314t-172.5 -258.5t-258.5 -172.5t-314 -64t-314 64t-258.5 172.5t-172.5 258.5t-64 314t64 314t172.5 258.5t258.5 172.5t314 64t313 -63t261 -175l-164 -161q-78 87 -183.5 135.5t-224.5 48.5q-153 0 -282.5 -79.5t-205 -216.5t-75.5 -298
t75.5 -298t205 -216.5t282.5 -79.5q205 0 361.5 138t193.5 347h-557v215h801q8 -47 8 -106z" />
    <glyph glyph-name="H" unicode="H" horiz-adv-x="1454" 
d="M1311 1536v-1536h-246v659h-676v-659h-246v1536h246v-662h676v662h246z" />
    <glyph glyph-name="I" unicode="I" horiz-adv-x="532" 
d="M389 1536v-1536h-246v1536h246z" />
    <glyph glyph-name="J" unicode="J" horiz-adv-x="1196" 
d="M1053 1536v-1108q0 -127 -66.5 -235.5t-178 -171t-239.5 -62.5q-182 0 -314 111t-159 301l199 80q55 -277 274 -277q97 0 167.5 74.5t70.5 179.5v1108h246z" />
    <glyph glyph-name="K" unicode="K" horiz-adv-x="1312" 
d="M922 1536h321l-663 -770l659 -766h-321l-529 614v-614h-246v1536h246v-618z" />
    <glyph glyph-name="L" unicode="L" horiz-adv-x="1187" 
d="M1075 215v-215h-932v1536h246v-1321h686z" />
    <glyph glyph-name="M" unicode="M" horiz-adv-x="1740" 
d="M1597 1536v-1536h-245v1079l-381 -594h-201l-381 594v-1079h-246v1536h246l481 -750l486 750h241z" />
    <glyph glyph-name="N" unicode="N" horiz-adv-x="1484" 
d="M1341 1536v-1536h-245l-707 1106v-1106h-246v1536h246l707 -1108v1108h245z" />
    <glyph glyph-name="O" unicode="O" horiz-adv-x="1822" 
d="M1720 768q0 -164 -64 -314t-172.5 -258.5t-258.5 -172.5t-314 -64t-314 64t-258.5 172.5t-172.5 258.5t-64 314t64 314t172.5 258.5t258.5 172.5t314 64t314 -64t258.5 -172.5t172.5 -258.5t64 -314zM1477 768q0 161 -75.5 298t-205.5 216.5t-283 79.5t-282.5 -79.5
t-205 -216.5t-75.5 -298t75.5 -298t205 -216.5t282.5 -79.5t283 79.5t205.5 216.5t75.5 298z" />
    <glyph glyph-name="P" unicode="P" horiz-adv-x="1261" 
d="M1159 1098q0 -182 -128.5 -310.5t-309.5 -128.5h-332v-659h-246v1536h578q181 0 309.5 -128t128.5 -310zM913 1098q0 95 -56 159t-146 64h-322v-447h322q90 0 146 64.5t56 159.5z" />
    <glyph glyph-name="Q" unicode="Q" horiz-adv-x="1822" 
d="M1518 233l202 -233h-303l-74 84q-195 -125 -432 -125q-164 0 -314 64t-258.5 172.5t-172.5 258.5t-64 314t64 314t172.5 258.5t258.5 172.5t314 64t314 -64t258.5 -172.5t172.5 -258.5t64 -314q0 -152 -53 -290t-149 -245zM1477 768q0 161 -75.5 298t-205.5 216.5
t-283 79.5t-282.5 -79.5t-205 -216.5t-75.5 -298t75.5 -298t205 -216.5t282.5 -79.5t285 80l-311 360h301l176 -202q113 154 113 356z" />
    <glyph glyph-name="R" unicode="R" horiz-adv-x="1331" 
d="M690 659l592 -659h-311l-582 649v-649h-246v1536h578q181 0 309.5 -128t128.5 -310t-128.5 -310.5t-309.5 -128.5h-31zM913 1098q0 95 -56 159t-146 64h-322v-447h322q90 0 146 64.5t56 159.5z" />
    <glyph glyph-name="S" unicode="S" horiz-adv-x="1312" 
d="M1210 444q0 -91 -35.5 -176.5t-101.5 -155t-170.5 -111.5t-230.5 -42q-118 0 -228 39.5t-204 129.5t-138 218l207 86q27 -86 85.5 -146.5t127 -87t142.5 -26.5q126 0 217.5 71t91.5 189q0 74 -50.5 132t-148.5 79l-272 62q-164 37 -258 155t-94 262q0 108 43 196
t115 143.5t162.5 85.5t188.5 30q119 0 226.5 -41.5t192.5 -132.5t118 -219l-199 -78q-36 126 -131.5 192t-208.5 66q-112 0 -191 -63.5t-79 -172.5q0 -71 44 -128.5t124 -75.5l309 -70q114 -25 193.5 -88.5t116 -145.5t36.5 -176z" />
    <glyph glyph-name="T" unicode="T" horiz-adv-x="1232" 
d="M1192 1536v-215h-453v-1321h-245v1321h-453v215h1151z" />
    <glyph glyph-name="U" unicode="U" horiz-adv-x="1556" 
d="M1413 1536v-973q0 -123 -50.5 -235t-135.5 -192.5t-202.5 -128.5t-246.5 -48t-246.5 48t-202.5 128.5t-135.5 192.5t-50.5 235v973h246v-973q0 -162 114.5 -275.5t274.5 -113.5t274.5 113.5t114.5 275.5v973h246z" />
    <glyph glyph-name="V" unicode="V" horiz-adv-x="1484" 
d="M1219 1536h266l-617 -1536h-252l-616 1536h264l477 -1217z" />
    <glyph glyph-name="W" unicode="W" horiz-adv-x="2041" 
d="M1780 1536h262l-457 -1536h-244l-321 1116l-322 -1116h-243l-455 1536h262l316 -1110l321 1110h242l321 -1112z" />
    <glyph glyph-name="X" unicode="X" horiz-adv-x="1488" 
d="M893 768l596 -768h-295l-451 578l-448 -578h-295l596 768l-596 768h295l448 -578l451 578h295z" />
    <glyph glyph-name="Y" unicode="Y" horiz-adv-x="1468" 
d="M1174 1536h294l-612 -801v-735h-246v737l-610 799h295l438 -575z" />
    <glyph glyph-name="Z" unicode="Z" horiz-adv-x="1292" 
d="M1210 215v-215h-1128v215l805 1106h-805v215h1128v-215l-804 -1106h804z" />
    <glyph glyph-name="bracketleft" unicode="[" horiz-adv-x="768" 
d="M645 -31v-215h-522v1782h522v-215h-276v-1352h276z" />
    <glyph glyph-name="backslash" unicode="\" horiz-adv-x="1030" 
d="M223 1681l809 -1732l-223 -105l-809 1733z" />
    <glyph glyph-name="bracketright" unicode="]" horiz-adv-x="768" 
d="M645 1536v-1782h-522v215h276v1352h-276v215h522z" />
    <glyph glyph-name="underscore" unicode="_" horiz-adv-x="931" 
d="M891 -123v-215h-850v215h850z" />
    <glyph glyph-name="grave" unicode="`" 
d="M397 1638l521 -295l-107 -167l-520 294z" />
    <glyph glyph-name="a" unicode="a" horiz-adv-x="1249" 
d="M1106 922v-922h-246v49q-113 -88 -262 -88q-92 0 -180 34.5t-158.5 96.5t-114 158.5t-43.5 210.5t43.5 210.5t114 158.5t158.5 96.5t180 34.5q147 0 262 -89v50h246zM860 461q0 119 -75 203t-181 84t-181 -84t-75 -203t75 -203t181 -84t181 84t75 203z" />
    <glyph glyph-name="b" unicode="b" horiz-adv-x="1249" 
d="M1147 461q0 -114 -43.5 -210.5t-114 -158.5t-158.5 -96.5t-180 -34.5q-149 0 -262 88v-49h-246v1536h246v-664q115 89 262 89q92 0 180 -34.5t158.5 -96.5t114 -158.5t43.5 -210.5zM901 461q0 119 -75 203t-181 84t-181 -84t-75 -203t75 -203t181 -84t181 84t75 203z" />
    <glyph glyph-name="c" unicode="c" horiz-adv-x="1120" 
d="M1028 711l-207 -119q-33 71 -93.5 113.5t-133.5 42.5q-106 0 -181 -84t-75 -203t75 -203t181 -84q72 0 133 43t94 113l207 -121q-66 -114 -181.5 -182t-252.5 -68q-136 0 -251.5 67.5t-183 183t-67.5 251.5t67.5 251.5t183 183t251.5 67.5q138 0 253.5 -68t180.5 -184z
" />
    <glyph glyph-name="d" unicode="d" horiz-adv-x="1269" 
d="M1126 1536v-1536h-245v49q-113 -88 -263 -88q-92 0 -179.5 34.5t-158.5 96.5t-114 158.5t-43 210.5t43 210.5t114 158.5t158.5 96.5t179.5 34.5q148 0 263 -89v664h245zM881 461q0 119 -75 203t-181 84t-181 -84t-75 -203t75 -203t181 -84t181 84t75 203z" />
    <glyph glyph-name="e" unicode="e" 
d="M1106 461q0 -50 -10 -105h-729q28 -81 92.5 -131.5t144.5 -50.5q74 0 135 43t92 115l207 -123q-66 -114 -181.5 -182t-252.5 -68q-136 0 -251.5 67.5t-183 183t-67.5 251.5t67.5 251.5t183 183t251.5 67.5t251.5 -67.5t183 -183t67.5 -251.5zM369 571h471
q-30 78 -94 127.5t-142 49.5t-141.5 -49t-93.5 -128z" />
    <glyph glyph-name="f" unicode="f" horiz-adv-x="712" 
d="M651 922v-215h-190v-707h-246v707h-154v215h154v372q0 121 87 202t216 81q65 0 133 -18v-218q-69 19 -100 19q-90 0 -90 -80v-358h190z" />
    <glyph glyph-name="g" unicode="g" horiz-adv-x="1269" 
d="M1126 922v-1014q0 -135 -67.5 -246t-182 -173t-251.5 -62q-138 0 -254 67.5t-181 181.5l207 121q33 -70 94.5 -112.5t133.5 -42.5q108 0 182 74.5t74 191.5v141q-113 -88 -263 -88q-92 0 -179.5 34.5t-158.5 96.5t-114 158.5t-43 210.5t43 210.5t114 158.5t158.5 96.5
t179.5 34.5q148 0 263 -89v50h245zM881 461q0 119 -75 203t-181 84t-181 -84t-75 -203t75 -203t181 -84t181 84t75 203z" />
    <glyph glyph-name="h" unicode="h" horiz-adv-x="1167" 
d="M1024 582v-582h-246v571q0 74 -51.5 122t-132.5 48q-85 0 -145 -57.5t-60 -134.5v-549h-246v1536h246v-662q82 89 232 89q103 0 194 -46t150 -135t59 -200z" />
    <glyph glyph-name="i" unicode="i" horiz-adv-x="532" 
d="M389 1536v-266h-246v266h246zM389 922v-922h-246v922h246z" />
    <glyph glyph-name="j" unicode="j" horiz-adv-x="528" 
d="M385 1536v-266h-246v266h246zM385 922v-1213q0 -122 -86.5 -202t-216.5 -80q-65 0 -133 18v217q65 -18 100 -18q90 0 90 80v1198h246z" />
    <glyph glyph-name="k" unicode="k" horiz-adv-x="1032" 
d="M594 461l387 -461h-311l-281 336v-336h-246v1536h246v-950l281 336h311z" />
    <glyph glyph-name="l" unicode="l" horiz-adv-x="532" 
d="M389 1536v-1536h-246v1536h246z" />
    <glyph glyph-name="m" unicode="m" horiz-adv-x="1585" 
d="M1442 623v-623h-246v608q0 67 -40 103.5t-95 36.5q-58 0 -102 -38.5t-44 -103.5v-606h-245v616q0 64 -38.5 98t-92.5 34q-60 0 -105 -38.5t-45 -103.5v-606h-246v922h246v-48q83 89 203 89q126 0 221 -95q103 97 254 97q71 0 138 -23.5t120 -66t85 -108t32 -144.5z" />
    <glyph glyph-name="n" unicode="n" horiz-adv-x="1167" 
d="M1024 582v-582h-246v571q0 74 -51.5 122t-132.5 48q-85 0 -145 -57.5t-60 -134.5v-549h-246v922h246v-48q82 89 232 89q103 0 194 -46t150 -135t59 -200z" />
    <glyph glyph-name="o" unicode="o" 
d="M1106 461q0 -136 -67.5 -251.5t-183 -183t-251.5 -67.5t-251.5 67.5t-183 183t-67.5 251.5t67.5 251.5t183 183t251.5 67.5t251.5 -67.5t183 -183t67.5 -251.5zM860 461q0 119 -75 203t-181 84t-181 -84t-75 -203t75 -203t181 -84t181 84t75 203z" />
    <glyph glyph-name="p" unicode="p" horiz-adv-x="1249" 
d="M1147 461q0 -114 -43.5 -210.5t-114 -158.5t-158.5 -96.5t-180 -34.5q-149 0 -262 88v-602h-246v1475h246v-50q115 89 262 89q92 0 180 -34.5t158.5 -96.5t114 -158.5t43.5 -210.5zM901 461q0 119 -75 203t-181 84t-181 -84t-75 -203t75 -203t181 -84t181 84t75 203z" />
    <glyph glyph-name="q" unicode="q" horiz-adv-x="1249" 
d="M1106 922v-1475h-246v602q-113 -88 -262 -88q-92 0 -180 34.5t-158.5 96.5t-114 158.5t-43.5 210.5t43.5 210.5t114 158.5t158.5 96.5t180 34.5q147 0 262 -89v50h246zM860 461q0 119 -75 203t-181 84t-181 -84t-75 -203t75 -203t181 -84t181 84t75 203z" />
    <glyph glyph-name="r" unicode="r" horiz-adv-x="774" 
d="M682 952v-219q-71 21 -129 21q-93 0 -154 -59.5t-61 -143.5v-551h-246v922h246v-48q80 89 223 89q46 0 121 -11z" />
    <glyph glyph-name="s" unicode="s" horiz-adv-x="968" 
d="M887 715l-197 -86q-25 64 -81.5 98.5t-119.5 34.5q-56 0 -94.5 -27.5t-38.5 -75.5q0 -55 76 -73l180 -39q46 -11 80.5 -22.5t73 -33.5t63.5 -50.5t41.5 -72.5t16.5 -100q0 -97 -56.5 -169.5t-143 -107t-187.5 -34.5q-142 0 -259.5 71t-158.5 203l197 72q30 -69 91 -105
t128 -36q63 0 107 29.5t44 80.5q0 50 -76 68l-180 39q-56 12 -99 30t-84.5 49.5t-64 83t-22.5 120.5q0 96 53 166t134.5 102.5t178.5 32.5q86 0 165 -26.5t143 -84t90 -137.5z" />
    <glyph glyph-name="t" unicode="t" horiz-adv-x="696" 
d="M635 922v-215h-164v-707h-246v707h-164v215h164v614h246v-614h164z" />
    <glyph glyph-name="u" unicode="u" horiz-adv-x="1167" 
d="M1024 922v-922h-246v47q-81 -88 -231 -88q-102 0 -194 48.5t-151 140t-59 202.5v572h246v-572q0 -74 51.5 -122t132.5 -48q85 0 145 57.5t60 135.5v549h246z" />
    <glyph glyph-name="v" unicode="v" horiz-adv-x="1062" 
d="M801 922h262l-414 -922h-235l-414 922h262l270 -639z" />
    <glyph glyph-name="w" unicode="w" horiz-adv-x="1499" 
d="M1245 922h254l-332 -922h-229l-188 594l-189 -594h-229l-332 922h254l192 -586l185 586h237l185 -586z" />
    <glyph glyph-name="x" unicode="x" horiz-adv-x="1052" 
d="M670 461l383 -461h-289l-238 293l-237 -293h-289l383 461l-383 461h289l237 -293l238 293h289z" />
    <glyph glyph-name="y" unicode="y" horiz-adv-x="1060" 
d="M805 922h264l-584 -1295q-43 -100 -119.5 -150t-175.5 -50q-101 0 -194 51v215q35 -22 82.5 -37.5t89.5 -15.5q84 0 115 67l133 307l-408 908h264l265 -627z" />
    <glyph glyph-name="z" unicode="z" horiz-adv-x="1079" 
d="M956 215v-215h-833v215l489 492h-483v215h817v-215l-489 -492h499z" />
    <glyph glyph-name="braceleft" unicode="{" horiz-adv-x="743" 
d="M682 -31v-215h-76q-166 0 -275.5 101.5t-109.5 263.5v250q0 74 -43.5 122t-105.5 48h-11v215h11q62 0 105.5 48t43.5 122v247q0 162 109.5 263.5t275.5 101.5h76v-215h-76q-64 0 -101.5 -38.5t-37.5 -111.5v-247q0 -88 -37 -160t-102 -119q65 -46 102 -117t37 -159v-250
q0 -73 37.5 -111.5t101.5 -38.5h76z" />
    <glyph glyph-name="bar" unicode="|" horiz-adv-x="768" 
d="M506 1536v-1782h-246v1782h246z" />
    <glyph glyph-name="braceright" unicode="}" horiz-adv-x="743" 
d="M682 754v-215h-10q-63 0 -106.5 -48t-43.5 -122v-250q0 -162 -109.5 -263.5t-275.5 -101.5h-76v215h76q63 0 101 38.5t38 111.5v250q0 88 37.5 159t102.5 117q-65 47 -102.5 119t-37.5 160v247q0 73 -38 111.5t-101 38.5h-76v215h76q166 0 275.5 -101.5t109.5 -263.5
v-247q0 -74 43.5 -122t106.5 -48h10z" />
    <glyph glyph-name="nbspace" unicode="&#xa0;" horiz-adv-x="409" 
 />
    <glyph glyph-name="exclamdown" unicode="&#xa1;" horiz-adv-x="598" 
d="M422 1536v-352h-246v352h246zM422 1010v-1010h-246v1010h246z" />
    <glyph glyph-name="cent" unicode="&#xa2;" horiz-adv-x="1120" 
d="M1028 711l-207 -119q-33 71 -93.5 113.5t-133.5 42.5q-106 0 -181 -84t-75 -203t75 -203t181 -84q72 0 133 43t94 113l207 -121q-52 -87 -132 -148.5t-179 -87.5v-260h-246v260q-165 42 -272 177.5t-107 310.5t107 310t272 177v258h246v-258q100 -26 181 -87.5
t130 -149.5z" />
    <glyph glyph-name="sterling" unicode="&#xa3;" horiz-adv-x="1230" 
d="M1090 1196l-216 -86q-29 108 -92 180t-164 72q-94 0 -137 -54t-43 -139q0 -44 13 -98l45 -197h467v-215h-418l102 -444h418v-215h-922v215h265l-101 444h-164v215h115l-45 193q-12 61 -12 117q0 173 116 283t310 110q162 0 291.5 -96t171.5 -285z" />
    <glyph glyph-name="yen" unicode="&#xa5;" horiz-adv-x="1476" 
d="M1130 1536h295l-421 -553h299v-215h-443v-195h443v-215h-443v-358h-246v358h-438v215h438v195h-438v215h297l-422 553h295l391 -514z" />
    <glyph glyph-name="section" unicode="&#xa7;" horiz-adv-x="1822" 
d="M1720 768q0 -164 -64 -314t-172.5 -258.5t-258.5 -172.5t-314 -64t-314 64t-258.5 172.5t-172.5 258.5t-64 314t64 314t172.5 258.5t258.5 172.5t314 64q250 0 453 -138.5t295 -361.5l-221 -92q-62 168 -205.5 272.5t-319.5 104.5q-153 0 -282.5 -79.5t-205 -216.5
t-75.5 -298t75.5 -298t205 -216.5t282.5 -79.5q205 0 361.5 138t193.5 347h-557v215h801q8 -47 8 -106z" />
    <glyph glyph-name="dieresis" unicode="&#xa8;" horiz-adv-x="1206" 
d="M936 1536v-256h-217v256h217zM485 1536v-256h-217v256h217z" />
    <glyph glyph-name="copyright" unicode="&#xa9;" horiz-adv-x="1822" 
d="M1720 768q0 -164 -64 -314t-172.5 -258.5t-258.5 -172.5t-314 -64t-314 64t-258.5 172.5t-172.5 258.5t-64 314t64 314t172.5 258.5t258.5 172.5t314 64t314 -64t258.5 -172.5t172.5 -258.5t64 -314zM1477 768q0 161 -75.5 298t-205.5 216.5t-283 79.5t-282.5 -79.5
t-205 -216.5t-75.5 -298t75.5 -298t205 -216.5t282.5 -79.5t283 79.5t205.5 216.5t75.5 298zM1321 993l-191 -119q-28 72 -81 116t-125 44q-105 0 -165.5 -73t-60.5 -193t60.5 -193t165.5 -73q71 0 125.5 44.5t80.5 115.5l191 -121q-57 -118 -159 -186t-238 -68
q-206 0 -338.5 136.5t-132.5 344.5t132.5 344.5t338.5 136.5q136 0 236 -67.5t161 -188.5z" />
    <glyph glyph-name="guillemotleft" unicode="&#xab;" horiz-adv-x="1185" 
d="M920 512l204 -207l-151 -151l-359 356l359 358l151 -151zM367 512l204 -207l-151 -151l-359 356l359 358l151 -151z" />
    <glyph glyph-name="macron" unicode="&#xaf;" 
d="M952 1536v-215h-704v215h704z" />
    <glyph glyph-name="degree" unicode="&#xb0;" horiz-adv-x="1847" 
d="M1317 1180q0 -163 -115.5 -279.5t-279.5 -116.5q-163 0 -278.5 116.5t-115.5 279.5q0 164 115.5 279.5t278.5 115.5q164 0 279.5 -115.5t115.5 -279.5zM1122 1180q0 85 -58.5 148t-141.5 63q-82 0 -140.5 -63.5t-58.5 -147.5t58.5 -147.5t140.5 -63.5q83 0 141.5 63
t58.5 148z" />
    <glyph glyph-name="acute" unicode="&#xb4;" 
d="M811 1638l107 -168l-521 -294l-106 167z" />
    <glyph glyph-name="cedilla" unicode="&#xb8;" horiz-adv-x="1120" 
d="M774 -274q0 -97 -66 -157.5t-155 -60.5q-65 0 -122 35t-89 103l131 80q14 -25 37.5 -44.5t48.5 -19.5q26 0 41.5 17.5t15.5 39.5q0 20 -12 34t-29 14q-30 0 -47 -39l-135 104l207 266l133 -104l-74 -94q57 -27 86 -73.5t29 -100.5z" />
    <glyph glyph-name="guillemotright" unicode="&#xbb;" horiz-adv-x="1185" 
d="M766 868l358 -358l-358 -356l-152 151l205 205l-205 207zM213 868l358 -358l-358 -356l-152 151l205 205l-205 207z" />
    <glyph glyph-name="questiondown" unicode="&#xbf;" horiz-adv-x="1251" 
d="M889 1577v-352h-246v352h246zM950 471l199 -78q-20 -79 -60.5 -144.5t-92.5 -111t-115 -77t-130 -46t-137 -14.5q-123 0 -223 39.5t-162 105t-95.5 146t-33.5 166.5q0 145 90 260t259 153q88 19 136 67.5t58 113.5h240q-14 -317 -377 -398q-80 -18 -123 -75t-43 -129
q0 -96 71 -166t201 -70q111 0 205.5 66t132.5 192z" />
    <glyph glyph-name="Agrave" unicode="&#xc0;" horiz-adv-x="1468" 
d="M471 2025l569 -194l-69 -182l-570 194zM860 1536l608 -1536h-266l-153 397h-631l-154 -397h-264l608 1536h252zM500 610h467l-234 602z" />
    <glyph glyph-name="Aacute" unicode="&#xc1;" horiz-adv-x="1468" 
d="M971 2025l69 -182l-569 -194l-70 182zM860 1536l608 -1536h-266l-153 397h-631l-154 -397h-264l608 1536h252zM500 610h467l-234 602z" />
    <glyph glyph-name="Acircumflex" unicode="&#xc2;" horiz-adv-x="1468" 
d="M707 2007l366 -184l-92 -170l-274 135l-275 -135l-94 170zM860 1536l608 -1536h-266l-153 397h-631l-154 -397h-264l608 1536h252zM500 610h467l-234 602z" />
    <glyph glyph-name="Atilde" unicode="&#xc3;" horiz-adv-x="1468" 
d="M860 1536l608 -1536h-266l-153 397h-631l-154 -397h-264l608 1536h252zM500 610h467l-234 602zM897 1966h174q0 -110 -68.5 -180t-168.5 -70q-49 0 -87 11.5t-59.5 28t-39 32.5t-36.5 27.5t-41 11.5q-27 0 -45 -22.5t-18 -67.5h-174q0 112 68.5 182t168.5 70
q49 0 87 -11.5t59.5 -27.5t39 -32.5t36.5 -28t41 -11.5q27 0 45 22t18 66z" />
    <glyph glyph-name="Adieresis" unicode="&#xc4;" horiz-adv-x="1468" 
d="M860 1536l608 -1536h-266l-153 397h-631l-154 -397h-264l608 1536h252zM500 610h467l-234 602zM1067 1933v-256h-217v256h217zM616 1933v-256h-217v256h217z" />
    <glyph glyph-name="Aring" unicode="&#xc5;" horiz-adv-x="1468" 
d="M942 1700q0 -86 -60.5 -146.5t-148.5 -60.5q-86 0 -146.5 60.5t-60.5 146.5q0 88 60.5 148.5t146.5 60.5q88 0 148.5 -60.5t60.5 -148.5zM829 1700q0 40 -28 68t-68 28q-38 0 -66 -28t-28 -68q0 -38 28 -66t66 -28q40 0 68 28t28 66zM860 1536l608 -1536h-266l-153 397
h-631l-154 -397h-264l608 1536h252zM500 610h467l-234 602z" />
    <glyph glyph-name="AE" unicode="&#xc6;" horiz-adv-x="2058" 
d="M2007 215v-215h-891v397h-559l-229 -397h-277l901 1536h1055v-215h-645v-447h586v-215h-586v-444h645zM680 610h436v756z" />
    <glyph glyph-name="Ccedilla" unicode="&#xc7;" horiz-adv-x="1740" 
d="M1649 1077l-222 -92q-62 168 -205 272.5t-319 104.5q-153 0 -282.5 -79.5t-205 -216.5t-75.5 -298t75.5 -298t205 -216.5t282.5 -79.5q176 0 319 104.5t205 272.5l222 -92q-92 -223 -295 -361.5t-453 -138.5q-164 0 -314 64t-258.5 172.5t-172.5 258.5t-64 314t64 314
t172.5 258.5t258.5 172.5t314 64q250 0 453 -138.5t295 -361.5zM1122 -274q0 -97 -66 -157.5t-155 -60.5q-65 0 -122 35t-89 103l131 80q14 -25 37.5 -44.5t48.5 -19.5q26 0 42 17.5t16 39.5q0 20 -12 34t-29 14q-30 0 -47 -39l-136 104l207 266l133 -104l-73 -94
q57 -26 85.5 -73t28.5 -101z" />
    <glyph glyph-name="Egrave" unicode="&#xc8;" horiz-adv-x="1157" 
d="M328 2025l569 -194l-70 -182l-569 194zM1034 215v-215h-891v1536h891v-215h-645v-447h586v-215h-586v-444h645z" />
    <glyph glyph-name="Eacute" unicode="&#xc9;" horiz-adv-x="1157" 
d="M827 2025l70 -182l-569 -194l-70 182zM1034 215v-215h-891v1536h891v-215h-645v-447h586v-215h-586v-444h645z" />
    <glyph glyph-name="Ecircumflex" unicode="&#xca;" horiz-adv-x="1157" 
d="M584 2007l366 -184l-92 -170l-274 135l-275 -135l-94 170zM1034 215v-215h-891v1536h891v-215h-645v-447h586v-215h-586v-444h645z" />
    <glyph glyph-name="Edieresis" unicode="&#xcb;" horiz-adv-x="1157" 
d="M1034 215v-215h-891v1536h891v-215h-645v-447h586v-215h-586v-444h645zM901 1933v-256h-217v256h217zM451 1933v-256h-218v256h218z" />
    <glyph glyph-name="Igrave" unicode="&#xcc;" horiz-adv-x="532" 
d="M16 2025l570 -194l-70 -182l-569 194zM389 1536v-1536h-246v1536h246z" />
    <glyph glyph-name="Iacute" unicode="&#xcd;" horiz-adv-x="532" 
d="M516 2025l70 -182l-570 -194l-69 182zM389 1536v-1536h-246v1536h246z" />
    <glyph glyph-name="Icircumflex" unicode="&#xce;" horiz-adv-x="532" 
d="M270 2007l367 -184l-92 -170l-275 135l-276 -135l-94 170zM393 1536v-1536h-246v1536h246z" />
    <glyph glyph-name="Idieresis" unicode="&#xcf;" horiz-adv-x="532" 
d="M393 1536v-1536h-246v1536h246zM604 1933v-256h-217v256h217zM154 1933v-256h-217v256h217z" />
    <glyph glyph-name="Eth" unicode="&#xd0;" horiz-adv-x="1669" 
d="M1546 768q0 -209 -103 -385.5t-279.5 -279.5t-385.5 -103h-542v668h-195v215h195v653h542q209 0 385.5 -103t279.5 -279.5t103 -385.5zM1300 768q0 150 -74 277.5t-201 201.5t-277 74h-267v-438h195v-215h-195v-453h267q150 0 277 74t201 201.5t74 277.5z" />
    <glyph glyph-name="Ntilde" unicode="&#xd1;" horiz-adv-x="1484" 
d="M934 1966h174q0 -111 -68.5 -180.5t-169.5 -69.5q-60 0 -104 17.5t-63 38t-43 38t-50 17.5q-28 0 -46.5 -22.5t-18.5 -67.5h-174q0 112 68.5 182t168.5 70q60 0 104 -17.5t63.5 -38t44 -38t50.5 -17.5q28 0 46 21.5t18 66.5zM1341 1536v-1536h-245l-707 1106v-1106h-246
v1536h246l707 -1108v1108h245z" />
    <glyph glyph-name="Ograve" unicode="&#xd2;" horiz-adv-x="1822" 
d="M676 2025l569 -194l-69 -182l-570 194zM1720 768q0 -164 -64 -314t-172.5 -258.5t-258.5 -172.5t-314 -64t-314 64t-258.5 172.5t-172.5 258.5t-64 314t64 314t172.5 258.5t258.5 172.5t314 64t314 -64t258.5 -172.5t172.5 -258.5t64 -314zM1477 768q0 161 -75.5 298
t-205.5 216.5t-283 79.5t-282.5 -79.5t-205 -216.5t-75.5 -298t75.5 -298t205 -216.5t282.5 -79.5t283 79.5t205.5 216.5t75.5 298z" />
    <glyph glyph-name="Oacute" unicode="&#xd3;" horiz-adv-x="1822" 
d="M1135 2025l69 -182l-569 -194l-70 182zM1720 768q0 -164 -64 -314t-172.5 -258.5t-258.5 -172.5t-314 -64t-314 64t-258.5 172.5t-172.5 258.5t-64 314t64 314t172.5 258.5t258.5 172.5t314 64t314 -64t258.5 -172.5t172.5 -258.5t64 -314zM1477 768q0 161 -75.5 298
t-205.5 216.5t-283 79.5t-282.5 -79.5t-205 -216.5t-75.5 -298t75.5 -298t205 -216.5t282.5 -79.5t283 79.5t205.5 216.5t75.5 298z" />
    <glyph glyph-name="Ocircumflex" unicode="&#xd4;" horiz-adv-x="1822" 
d="M907 2007l367 -184l-92 -170l-275 135l-274 -135l-94 170zM1720 768q0 -164 -64 -314t-172.5 -258.5t-258.5 -172.5t-314 -64t-314 64t-258.5 172.5t-172.5 258.5t-64 314t64 314t172.5 258.5t258.5 172.5t314 64t314 -64t258.5 -172.5t172.5 -258.5t64 -314zM1477 768
q0 161 -75.5 298t-205.5 216.5t-283 79.5t-282.5 -79.5t-205 -216.5t-75.5 -298t75.5 -298t205 -216.5t282.5 -79.5t283 79.5t205.5 216.5t75.5 298z" />
    <glyph glyph-name="Otilde" unicode="&#xd5;" horiz-adv-x="1822" 
d="M1139 1966h174q0 -111 -68.5 -180.5t-169.5 -69.5q-60 0 -104 17.5t-63 38t-43 38t-50 17.5q-28 0 -46.5 -22.5t-18.5 -67.5h-175q0 112 69 182t169 70q60 0 104 -17.5t63.5 -38t44 -38t50.5 -17.5q28 0 46 21.5t18 66.5zM1720 768q0 -164 -64 -314t-172.5 -258.5
t-258.5 -172.5t-314 -64t-314 64t-258.5 172.5t-172.5 258.5t-64 314t64 314t172.5 258.5t258.5 172.5t314 64t314 -64t258.5 -172.5t172.5 -258.5t64 -314zM1477 768q0 161 -75.5 298t-205.5 216.5t-283 79.5t-282.5 -79.5t-205 -216.5t-75.5 -298t75.5 -298t205 -216.5
t282.5 -79.5t283 79.5t205.5 216.5t75.5 298z" />
    <glyph glyph-name="Odieresis" unicode="&#xd6;" horiz-adv-x="1822" 
d="M1720 768q0 -164 -64 -314t-172.5 -258.5t-258.5 -172.5t-314 -64t-314 64t-258.5 172.5t-172.5 258.5t-64 314t64 314t172.5 258.5t258.5 172.5t314 64t314 -64t258.5 -172.5t172.5 -258.5t64 -314zM1477 768q0 161 -75.5 298t-205.5 216.5t-283 79.5t-282.5 -79.5
t-205 -216.5t-75.5 -298t75.5 -298t205 -216.5t282.5 -79.5t283 79.5t205.5 216.5t75.5 298zM1255 1933v-256h-217v256h217zM805 1933v-256h-217v256h217z" />
    <glyph glyph-name="multiply" unicode="&#xd7;" horiz-adv-x="1290" 
d="M809 778l321 -321l-174 -174l-321 321l-311 -311l-152 151l311 312l-323 323l174 174l323 -323l312 311l151 -151z" />
    <glyph glyph-name="Oslash" unicode="&#xd8;" horiz-adv-x="1822" 
d="M1720 768q0 -164 -64 -314t-172.5 -258.5t-258.5 -172.5t-314 -64q-121 0 -227 33l-66 -148l-202 97l65 143q-174 109 -276.5 290t-102.5 394q0 164 64 314t172.5 258.5t258.5 172.5t314 64q110 0 232 -33l67 148l203 -97l-67 -145q172 -109 273 -289.5t101 -392.5z
M1477 768q0 143 -60.5 267t-165.5 208l-475 -1050q68 -19 137 -19q153 0 283 79.5t205.5 216.5t75.5 298zM575 293l476 1050q-68 19 -138 19q-153 0 -282.5 -79.5t-205 -216.5t-75.5 -298q0 -144 60 -268t165 -207z" />
    <glyph glyph-name="Ugrave" unicode="&#xd9;" horiz-adv-x="1556" 
d="M512 2025l569 -194l-69 -182l-570 194zM1413 1536v-973q0 -123 -50.5 -235t-135.5 -192.5t-202.5 -128.5t-246.5 -48t-246.5 48t-202.5 128.5t-135.5 192.5t-50.5 235v973h246v-973q0 -162 114.5 -275.5t274.5 -113.5t274.5 113.5t114.5 275.5v973h246z" />
    <glyph glyph-name="Uacute" unicode="&#xda;" horiz-adv-x="1556" 
d="M1012 2025l69 -182l-569 -194l-70 182zM1413 1536v-973q0 -123 -50.5 -235t-135.5 -192.5t-202.5 -128.5t-246.5 -48t-246.5 48t-202.5 128.5t-135.5 192.5t-50.5 235v973h246v-973q0 -162 114.5 -275.5t274.5 -113.5t274.5 113.5t114.5 275.5v973h246z" />
    <glyph glyph-name="Ucircumflex" unicode="&#xdb;" horiz-adv-x="1556" 
d="M784 2007l367 -184l-92 -170l-275 135l-274 -135l-94 170zM1413 1536v-973q0 -123 -50.5 -235t-135.5 -192.5t-202.5 -128.5t-246.5 -48t-246.5 48t-202.5 128.5t-135.5 192.5t-50.5 235v973h246v-973q0 -162 114.5 -275.5t274.5 -113.5t274.5 113.5t114.5 275.5v973h246
z" />
    <glyph glyph-name="Udieresis" unicode="&#xdc;" horiz-adv-x="1556" 
d="M1413 1536v-973q0 -123 -50.5 -235t-135.5 -192.5t-202.5 -128.5t-246.5 -48t-246.5 48t-202.5 128.5t-135.5 192.5t-50.5 235v973h246v-973q0 -162 114.5 -275.5t274.5 -113.5t274.5 113.5t114.5 275.5v973h246zM1133 1933v-256h-218v256h218zM682 1933v-256h-217v256
h217z" />
    <glyph glyph-name="Yacute" unicode="&#xdd;" horiz-adv-x="1468" 
d="M991 2025l70 -182l-569 -194l-70 182zM1174 1536h294l-612 -801v-735h-246v737l-610 799h295l438 -575z" />
    <glyph glyph-name="Thorn" unicode="&#xde;" horiz-adv-x="1261" 
d="M1159 768q0 -182 -128.5 -310t-309.5 -128h-332v-330h-246v1536h246v-330h332q181 0 309.5 -128t128.5 -310zM913 768q0 95 -56 159t-146 64h-322v-446h322q90 0 146 64t56 159z" />
    <glyph glyph-name="germandbls" unicode="&#xdf;" horiz-adv-x="1275" 
d="M1208 262q0 -142 -99 -224.5t-235 -82.5q-114 0 -206 63t-129 183l198 71q46 -112 135 -112q41 0 70 25t29 65q0 61 -66 82l-92 28q-54 16 -94.5 36.5t-76 52.5t-54.5 79.5t-19 108.5q0 89 51.5 165.5t133.5 110.5q58 24 91.5 84.5t33.5 135.5q0 96 -61 163.5t-148 67.5
q-86 0 -146.5 -67t-60.5 -164v-1133h-246v707h-151v215h151v211q0 187 132.5 318.5t320.5 131.5q186 0 318 -131.5t132 -318.5q0 -137 -70.5 -247.5t-189.5 -164.5q-59 -27 -59 -80q0 -26 18 -48t51 -32l113 -35q35 -12 67.5 -29.5t71.5 -48t62.5 -79t23.5 -107.5z" />
    <glyph glyph-name="agrave" unicode="&#xe0;" horiz-adv-x="1249" 
d="M1106 922v-922h-246v49q-113 -88 -262 -88q-92 0 -180 34.5t-158.5 96.5t-114 158.5t-43.5 210.5t43.5 210.5t114 158.5t158.5 96.5t180 34.5q147 0 262 -89v50h246zM860 461q0 119 -75 203t-181 84t-181 -84t-75 -203t75 -203t181 -84t181 84t75 203zM397 1638l521 -295
l-107 -167l-520 294z" />
    <glyph glyph-name="aacute" unicode="&#xe1;" horiz-adv-x="1249" 
d="M1106 922v-922h-246v49q-113 -88 -262 -88q-92 0 -180 34.5t-158.5 96.5t-114 158.5t-43.5 210.5t43.5 210.5t114 158.5t158.5 96.5t180 34.5q147 0 262 -89v50h246zM860 461q0 119 -75 203t-181 84t-181 -84t-75 -203t75 -203t181 -84t181 84t75 203zM811 1638l107 -168
l-521 -294l-106 167z" />
    <glyph glyph-name="acircumflex" unicode="&#xe2;" horiz-adv-x="1249" 
d="M1106 922v-922h-246v49q-113 -88 -262 -88q-92 0 -180 34.5t-158.5 96.5t-114 158.5t-43.5 210.5t43.5 210.5t114 158.5t158.5 96.5t180 34.5q147 0 262 -89v50h246zM860 461q0 119 -75 203t-181 84t-181 -84t-75 -203t75 -203t181 -84t181 84t75 203zM602 1636l369 -317
l-135 -145l-234 200l-233 -200l-136 145z" />
    <glyph glyph-name="atilde" unicode="&#xe3;" horiz-adv-x="1249" 
d="M1106 922v-922h-246v49q-113 -88 -262 -88q-92 0 -180 34.5t-158.5 96.5t-114 158.5t-43.5 210.5t43.5 210.5t114 158.5t158.5 96.5t180 34.5q147 0 262 -89v50h246zM860 461q0 119 -75 203t-181 84t-181 -84t-75 -203t75 -203t181 -84t181 84t75 203zM797 1536h174
q0 -110 -69 -180t-169 -70q-60 0 -104 17.5t-63.5 38t-44 38t-50.5 17.5q-27 0 -45 -22.5t-18 -67.5h-175q0 112 69 182t169 70q60 0 104 -17.5t63.5 -38t44 -38t50.5 -17.5q27 0 45.5 22t18.5 66z" />
    <glyph glyph-name="adieresis" unicode="&#xe4;" horiz-adv-x="1249" 
d="M1106 922v-922h-246v49q-113 -88 -262 -88q-92 0 -180 34.5t-158.5 96.5t-114 158.5t-43.5 210.5t43.5 210.5t114 158.5t158.5 96.5t180 34.5q147 0 262 -89v50h246zM860 461q0 119 -75 203t-181 84t-181 -84t-75 -203t75 -203t181 -84t181 84t75 203zM936 1536v-256
h-217v256h217zM485 1536v-256h-217v256h217z" />
    <glyph glyph-name="aring" unicode="&#xe5;" horiz-adv-x="1249" 
d="M1106 922v-922h-246v49q-113 -88 -262 -88q-92 0 -180 34.5t-158.5 96.5t-114 158.5t-43.5 210.5t43.5 210.5t114 158.5t158.5 96.5t180 34.5q147 0 262 -89v50h246zM860 461q0 119 -75 203t-181 84t-181 -84t-75 -203t75 -203t181 -84t181 84t75 203zM829 1386
q0 -94 -66 -160.5t-161 -66.5t-161 66.5t-66 160.5q0 96 66 163t161 67t161 -67t66 -163zM678 1386q0 32 -22.5 54t-53.5 22t-52.5 -22t-21.5 -54q0 -31 21.5 -52t52.5 -21t53.5 21.5t22.5 51.5z" />
    <glyph glyph-name="ae" unicode="&#xe6;" horiz-adv-x="1966" 
d="M1864 461q0 -45 -11 -105h-729q28 -81 93 -131.5t145 -50.5q74 0 135 43t92 115l207 -123q-66 -114 -181.5 -182t-252.5 -68q-149 0 -256 86v-45h-246v49q-113 -88 -262 -88q-92 0 -180 34.5t-158.5 96.5t-114 158.5t-43.5 210.5t43.5 210.5t114 158.5t158.5 96.5
t180 34.5q147 0 262 -89v50h246v-45q107 86 256 86q136 0 251.5 -67.5t183 -183t67.5 -251.5zM1126 571h471q-30 78 -93.5 127.5t-141.5 49.5t-142 -49t-94 -128zM860 461q0 119 -75 203t-181 84t-181 -84t-75 -203t75 -203t181 -84t181 84t75 203z" />
    <glyph glyph-name="ccedilla" unicode="&#xe7;" horiz-adv-x="1120" 
d="M774 -274q0 -97 -66 -157.5t-155 -60.5q-65 0 -122 35t-89 103l131 80q14 -25 37.5 -44.5t48.5 -19.5q26 0 41.5 17.5t15.5 39.5q0 20 -12 34t-29 14q-30 0 -47 -39l-135 104l207 266l133 -104l-74 -94q57 -27 86 -73.5t29 -100.5zM1028 711l-207 -119
q-33 71 -93.5 113.5t-133.5 42.5q-106 0 -181 -84t-75 -203t75 -203t181 -84q72 0 133 43t94 113l207 -121q-66 -114 -181.5 -182t-252.5 -68q-136 0 -251.5 67.5t-183 183t-67.5 251.5t67.5 251.5t183 183t251.5 67.5q138 0 253.5 -68t180.5 -184z" />
    <glyph glyph-name="egrave" unicode="&#xe8;" 
d="M1106 461q0 -50 -10 -105h-729q28 -81 92.5 -131.5t144.5 -50.5q74 0 135 43t92 115l207 -123q-66 -114 -181.5 -182t-252.5 -68q-136 0 -251.5 67.5t-183 183t-67.5 251.5t67.5 251.5t183 183t251.5 67.5t251.5 -67.5t183 -183t67.5 -251.5zM369 571h471
q-30 78 -94 127.5t-142 49.5t-141.5 -49t-93.5 -128zM397 1638l521 -295l-107 -167l-520 294z" />
    <glyph glyph-name="eacute" unicode="&#xe9;" 
d="M1106 461q0 -50 -10 -105h-729q28 -81 92.5 -131.5t144.5 -50.5q74 0 135 43t92 115l207 -123q-66 -114 -181.5 -182t-252.5 -68q-136 0 -251.5 67.5t-183 183t-67.5 251.5t67.5 251.5t183 183t251.5 67.5t251.5 -67.5t183 -183t67.5 -251.5zM369 571h471
q-30 78 -94 127.5t-142 49.5t-141.5 -49t-93.5 -128zM811 1638l107 -168l-521 -294l-106 167z" />
    <glyph glyph-name="ecircumflex" unicode="&#xea;" 
d="M1106 461q0 -50 -10 -105h-729q28 -81 92.5 -131.5t144.5 -50.5q74 0 135 43t92 115l207 -123q-66 -114 -181.5 -182t-252.5 -68q-136 0 -251.5 67.5t-183 183t-67.5 251.5t67.5 251.5t183 183t251.5 67.5t251.5 -67.5t183 -183t67.5 -251.5zM369 571h471
q-30 78 -94 127.5t-142 49.5t-141.5 -49t-93.5 -128zM602 1636l369 -317l-135 -145l-234 200l-233 -200l-136 145z" />
    <glyph glyph-name="edieresis" unicode="&#xeb;" 
d="M1106 461q0 -50 -10 -105h-729q28 -81 92.5 -131.5t144.5 -50.5q74 0 135 43t92 115l207 -123q-66 -114 -181.5 -182t-252.5 -68q-136 0 -251.5 67.5t-183 183t-67.5 251.5t67.5 251.5t183 183t251.5 67.5t251.5 -67.5t183 -183t67.5 -251.5zM369 571h471
q-30 78 -94 127.5t-142 49.5t-141.5 -49t-93.5 -128zM936 1536v-256h-217v256h217zM485 1536v-256h-217v256h217z" />
    <glyph glyph-name="igrave" unicode="&#xec;" horiz-adv-x="532" 
d="M430 922v-922h-246v922h246zM59 1638l521 -295l-107 -167l-520 294z" />
    <glyph glyph-name="iacute" unicode="&#xed;" horiz-adv-x="532" 
d="M389 922v-922h-246v922h246zM473 1638l107 -168l-521 -294l-106 167z" />
    <glyph glyph-name="icircumflex" unicode="&#xee;" horiz-adv-x="532" 
d="M393 922v-922h-246v922h246zM264 1636l369 -317l-135 -145l-234 200l-233 -200l-135 145z" />
    <glyph glyph-name="idieresis" unicode="&#xef;" horiz-adv-x="532" 
d="M385 922v-922h-246v922h246zM598 1536v-256h-217v256h217zM147 1536v-256h-217v256h217z" />
    <glyph glyph-name="eth" unicode="&#xf0;" 
d="M635 1389l280 170v-236l-178 -109l303 -514q68 -121 68 -243q0 -129 -63.5 -242.5t-180.5 -184.5t-260 -71q-136 0 -251.5 66.5t-183 180t-67.5 247.5q0 204 145.5 349.5t350.5 145.5h20l-83 144l-287 -177v236l184 113l-160 272h277zM854 461q0 119 -75 203t-181 84
t-181 -84t-75 -203t75 -203t181 -84t181 84t75 203z" />
    <glyph glyph-name="ntilde" unicode="&#xf1;" horiz-adv-x="1167" 
d="M1024 582v-582h-246v571q0 74 -51.5 122t-132.5 48q-85 0 -145 -57.5t-60 -134.5v-549h-246v922h246v-48q82 89 232 89q103 0 194 -46t150 -135t59 -200zM776 1536h174q0 -110 -68.5 -180t-168.5 -70q-60 0 -104 17.5t-63.5 38t-44 38t-50.5 17.5q-27 0 -45.5 -23
t-18.5 -67h-174q0 112 69 182t169 70q60 0 104 -17.5t63.5 -38t44 -38t50.5 -17.5q27 0 45 22t18 66z" />
    <glyph glyph-name="ograve" unicode="&#xf2;" 
d="M397 1638l521 -295l-107 -167l-520 294zM1106 461q0 -136 -67.5 -251.5t-183 -183t-251.5 -67.5t-251.5 67.5t-183 183t-67.5 251.5t67.5 251.5t183 183t251.5 67.5t251.5 -67.5t183 -183t67.5 -251.5zM860 461q0 119 -75 203t-181 84t-181 -84t-75 -203t75 -203t181 -84
t181 84t75 203z" />
    <glyph glyph-name="oacute" unicode="&#xf3;" 
d="M811 1638l107 -168l-521 -294l-106 167zM1106 461q0 -136 -67.5 -251.5t-183 -183t-251.5 -67.5t-251.5 67.5t-183 183t-67.5 251.5t67.5 251.5t183 183t251.5 67.5t251.5 -67.5t183 -183t67.5 -251.5zM860 461q0 119 -75 203t-181 84t-181 -84t-75 -203t75 -203t181 -84
t181 84t75 203z" />
    <glyph glyph-name="ocircumflex" unicode="&#xf4;" 
d="M1106 461q0 -136 -67.5 -251.5t-183 -183t-251.5 -67.5t-251.5 67.5t-183 183t-67.5 251.5t67.5 251.5t183 183t251.5 67.5t251.5 -67.5t183 -183t67.5 -251.5zM860 461q0 119 -75 203t-181 84t-181 -84t-75 -203t75 -203t181 -84t181 84t75 203zM602 1636l369 -317
l-135 -145l-234 200l-233 -200l-136 145z" />
    <glyph glyph-name="otilde" unicode="&#xf5;" 
d="M797 1536h174q0 -110 -69 -180t-169 -70q-60 0 -104 17.5t-63.5 38t-44 38t-50.5 17.5q-27 0 -45 -22.5t-18 -67.5h-175q0 112 69 182t169 70q60 0 104 -17.5t63.5 -38t44 -38t50.5 -17.5q27 0 45.5 22t18.5 66zM1106 461q0 -136 -67.5 -251.5t-183 -183t-251.5 -67.5
t-251.5 67.5t-183 183t-67.5 251.5t67.5 251.5t183 183t251.5 67.5t251.5 -67.5t183 -183t67.5 -251.5zM860 461q0 119 -75 203t-181 84t-181 -84t-75 -203t75 -203t181 -84t181 84t75 203z" />
    <glyph glyph-name="odieresis" unicode="&#xf6;" 
d="M936 1536v-256h-217v256h217zM485 1536v-256h-217v256h217zM1106 461q0 -136 -67.5 -251.5t-183 -183t-251.5 -67.5t-251.5 67.5t-183 183t-67.5 251.5t67.5 251.5t183 183t251.5 67.5t251.5 -67.5t183 -183t67.5 -251.5zM860 461q0 119 -75 203t-181 84t-181 -84
t-75 -203t75 -203t181 -84t181 84t75 203z" />
    <glyph glyph-name="divide" unicode="&#xf7;" horiz-adv-x="1290" 
d="M768 1331v-266h-246v266h246zM1208 874v-215h-1126v215h1126zM768 471v-266h-246v266h246z" />
    <glyph glyph-name="oslash" unicode="&#xf8;" 
d="M1106 461q0 -136 -67.5 -251.5t-183 -183t-251.5 -67.5q-45 0 -100 10l-58 -125l-202 97l55 120q-91 70 -144 175.5t-53 224.5q0 136 67.5 251.5t183 183t251.5 67.5q40 0 101 -11l57 125l203 -96l-56 -121q91 -70 144 -175t53 -224zM860 461q0 97 -53 176l-211 -463h8
q105 -1 180.5 83.5t75.5 203.5zM401 287l209 461h-6q-105 1 -180.5 -83.5t-75.5 -203.5q0 -99 53 -174z" />
    <glyph glyph-name="ugrave" unicode="&#xf9;" horiz-adv-x="1167" 
d="M1024 922v-922h-246v47q-81 -88 -231 -88q-102 0 -194 48.5t-151 140t-59 202.5v572h246v-572q0 -74 51.5 -122t132.5 -48q85 0 145 57.5t60 135.5v549h246zM377 1638l520 -295l-106 -167l-521 294z" />
    <glyph glyph-name="uacute" unicode="&#xfa;" horiz-adv-x="1167" 
d="M1024 922v-922h-246v47q-81 -88 -231 -88q-102 0 -194 48.5t-151 140t-59 202.5v572h246v-572q0 -74 51.5 -122t132.5 -48q85 0 145 57.5t60 135.5v549h246zM811 1638l107 -168l-521 -294l-106 167z" />
    <glyph glyph-name="ucircumflex" unicode="&#xfb;" horiz-adv-x="1167" 
d="M1024 922v-922h-246v47q-81 -88 -231 -88q-102 0 -194 48.5t-151 140t-59 202.5v572h246v-572q0 -74 51.5 -122t132.5 -48q85 0 145 57.5t60 135.5v549h246zM588 1636l368 -317l-135 -145l-233 200l-234 -200l-135 145z" />
    <glyph glyph-name="udieresis" unicode="&#xfc;" horiz-adv-x="1167" 
d="M1024 922v-922h-246v47q-81 -88 -231 -88q-102 0 -194 48.5t-151 140t-59 202.5v572h246v-572q0 -74 51.5 -122t132.5 -48q85 0 145 57.5t60 135.5v549h246zM936 1536v-256h-217v256h217zM485 1536v-256h-217v256h217z" />
    <glyph glyph-name="yacute" unicode="&#xfd;" horiz-adv-x="1060" 
d="M807 922h264l-584 -1295q-43 -100 -119 -150t-175 -50q-102 0 -195 51v215q35 -22 82.5 -37.5t89.5 -15.5q84 0 115 67l133 307l-408 908h264l265 -627zM772 1638l107 -168l-521 -294l-106 167z" />
    <glyph glyph-name="thorn" unicode="&#xfe;" horiz-adv-x="1249" 
d="M1147 461q0 -114 -43.5 -210.5t-114 -158.5t-158.5 -96.5t-180 -34.5q-149 0 -262 88v-602h-246v2089h246v-664q115 89 262 89q92 0 180 -34.5t158.5 -96.5t114 -158.5t43.5 -210.5zM901 461q0 119 -75 203t-181 84t-181 -84t-75 -203t75 -203t181 -84t181 84t75 203z
" />
    <glyph glyph-name="ydieresis" unicode="&#xff;" horiz-adv-x="1060" 
d="M805 922h264l-584 -1295q-43 -100 -119.5 -150t-175.5 -50q-101 0 -194 51v215q35 -22 82.5 -37.5t89.5 -15.5q84 0 115 67l133 307l-408 908h264l265 -627zM895 1536v-256h-217v256h217zM444 1536v-256h-217v256h217z" />
    <glyph glyph-name="dotlessi" unicode="&#x131;" horiz-adv-x="532" 
d="M389 922v-922h-246v922h246z" />
    <glyph glyph-name="Lslash" unicode="&#x141;" horiz-adv-x="1296" 
d="M709 1085v-235l-211 -127v-508h686v-215h-932v571l-211 -129v236l211 129v729h246v-578z" />
    <glyph glyph-name="lslash" unicode="&#x142;" horiz-adv-x="749" 
d="M709 1085v-235l-211 -127v-723h-246v571l-211 -129v236l211 129v729h246v-578z" />
    <glyph glyph-name="OE" unicode="&#x152;" horiz-adv-x="2469" 
d="M2367 215v-215h-890v188q-111 -108 -258 -168.5t-308 -60.5q-164 0 -314 64t-258.5 172.5t-172.5 258.5t-64 314t64 314t172.5 258.5t258.5 172.5t314 64q161 0 308 -60.5t258 -168.5v188h890v-215h-645v-447h586v-215h-586v-444h645zM1477 768q0 161 -75.5 298
t-205.5 216.5t-283 79.5t-282.5 -79.5t-205 -216.5t-75.5 -298t75.5 -298t205 -216.5t282.5 -79.5t283 79.5t205.5 216.5t75.5 298z" />
    <glyph glyph-name="oe" unicode="&#x153;" horiz-adv-x="1966" 
d="M1864 461q0 -45 -11 -105h-729q28 -81 93 -131.5t145 -50.5q74 0 135 43t92 115l207 -123q-66 -114 -181.5 -182t-252.5 -68q-111 0 -209.5 46t-169.5 126q-71 -80 -169.5 -126t-209.5 -46q-136 0 -251.5 67.5t-183 183t-67.5 251.5t67.5 251.5t183 183t251.5 67.5
q111 0 209.5 -46t169.5 -126q71 80 169.5 126t209.5 46q136 0 251.5 -67.5t183 -183t67.5 -251.5zM1126 571h471q-30 78 -93.5 127.5t-141.5 49.5t-142 -49t-94 -128zM860 461q0 119 -75 203t-181 84t-181 -84t-75 -203t75 -203t181 -84t181 84t75 203z" />
    <glyph glyph-name="Scaron" unicode="&#x160;" horiz-adv-x="1312" 
d="M956 2007l93 -170l-367 -184l-369 184l95 170l274 -135zM1210 444q0 -91 -35.5 -176.5t-101.5 -155t-170.5 -111.5t-230.5 -42q-118 0 -228 39.5t-204 129.5t-138 218l207 86q27 -86 85.5 -146.5t127 -87t142.5 -26.5q126 0 217.5 71t91.5 189q0 74 -50.5 132t-148.5 79
l-272 62q-164 37 -258 155t-94 262q0 108 43 196t115 143.5t162.5 85.5t188.5 30q119 0 226.5 -41.5t192.5 -132.5t118 -219l-199 -78q-36 126 -131.5 192t-208.5 66q-112 0 -191 -63.5t-79 -172.5q0 -71 44 -128.5t124 -75.5l309 -70q114 -25 193.5 -88.5t116 -145.5
t36.5 -176z" />
    <glyph glyph-name="scaron" unicode="&#x161;" horiz-adv-x="968" 
d="M887 715l-197 -86q-25 64 -81.5 98.5t-119.5 34.5q-56 0 -94.5 -27.5t-38.5 -75.5q0 -55 76 -73l180 -39q46 -11 80.5 -22.5t73 -33.5t63.5 -50.5t41.5 -72.5t16.5 -100q0 -97 -56.5 -169.5t-143 -107t-187.5 -34.5q-142 0 -259.5 71t-158.5 203l197 72q30 -69 91 -105
t128 -36q63 0 107 29.5t44 80.5q0 50 -76 68l-180 39q-56 12 -99 30t-84.5 49.5t-64 83t-22.5 120.5q0 96 53 166t134.5 102.5t178.5 32.5q86 0 165 -26.5t143 -84t90 -137.5zM733 1636l135 -145l-368 -317l-369 317l135 145l234 -200z" />
    <glyph glyph-name="Ydieresis" unicode="&#x178;" horiz-adv-x="1468" 
d="M1174 1536h294l-612 -801v-735h-246v737l-610 799h295l438 -575zM1071 1933v-256h-217v256h217zM621 1933v-256h-218v256h218z" />
    <glyph glyph-name="Zcaron" unicode="&#x17d;" horiz-adv-x="1292" 
d="M956 2007l93 -170l-367 -184l-369 184l95 170l274 -135zM1210 215v-215h-1128v215l805 1106h-805v215h1128v-215l-804 -1106h804z" />
    <glyph glyph-name="zcaron" unicode="&#x17e;" horiz-adv-x="1079" 
d="M956 215v-215h-833v215l489 492h-483v215h817v-215l-489 -492h499zM795 1636l135 -145l-369 -317l-368 317l135 145l233 -200z" />
    <glyph glyph-name="circumflex" unicode="&#x2c6;" horiz-adv-x="1206" 
d="M602 1636l369 -317l-135 -145l-234 200l-233 -200l-136 145z" />
    <glyph glyph-name="caron" unicode="&#x2c7;" horiz-adv-x="1206" 
d="M836 1636l135 -145l-369 -317l-369 317l136 145l233 -200z" />
    <glyph glyph-name="breve" unicode="&#x2d8;" horiz-adv-x="1206" 
d="M799 1567l170 -97q-60 -107 -155 -169t-212 -62q-115 0 -209.5 62t-154.5 169l168 97q74 -140 196 -140q67 0 117 40t80 100z" />
    <glyph glyph-name="dotaccent" unicode="&#x2d9;" 
d="M752 1585v-266h-246v266h246z" />
    <glyph glyph-name="ring" unicode="&#x2da;" 
d="M829 1386q0 -94 -66 -160.5t-161 -66.5t-161 66.5t-66 160.5q0 96 66 163t161 67t161 -67t66 -163zM678 1386q0 32 -22.5 54t-53.5 22t-52.5 -22t-21.5 -54q0 -31 21.5 -52t52.5 -21t53.5 21.5t22.5 51.5z" />
    <glyph glyph-name="ogonek" unicode="&#x2db;" horiz-adv-x="1187" 
d="M674 -381l-99 -168q-106 60 -167.5 155t-61.5 210q0 117 61.5 211.5t167.5 154.5l99 -170q-60 -30 -99.5 -79.5t-39.5 -116.5q0 -124 139 -197z" />
    <glyph glyph-name="tilde" unicode="&#x2dc;" 
d="M797 1536h174q0 -110 -69 -180t-169 -70q-60 0 -104 17.5t-63.5 38t-44 38t-50.5 17.5q-27 0 -45 -22.5t-18 -67.5h-175q0 112 69 182t169 70q60 0 104 -17.5t63.5 -38t44 -38t50.5 -17.5q27 0 45.5 22t18.5 66z" />
    <glyph glyph-name="hungarumlaut" unicode="&#x2dd;" horiz-adv-x="1224" 
d="M934 1669l178 -125l-258 -366l-178 122zM401 1669l179 -125l-258 -366l-179 122z" />
    <glyph glyph-name="endash" unicode="&#x2013;" horiz-adv-x="1095" 
d="M973 670v-215h-850v215h850z" />
    <glyph glyph-name="emdash" unicode="&#x2014;" horiz-adv-x="1781" 
d="M1659 670v-215h-1536v215h1536z" />
    <glyph glyph-name="quoteleft" unicode="&#x2018;" horiz-adv-x="616" 
d="M209 1577l407 -561l-208 -142l-408 562z" />
    <glyph glyph-name="quoteright" unicode="&#x2019;" horiz-adv-x="616" 
d="M408 1577l208 -141l-407 -562l-209 142z" />
    <glyph glyph-name="quotesinglbase" unicode="&#x201a;" horiz-adv-x="641" 
d="M408 412l208 -142l-407 -561l-209 141z" />
    <glyph glyph-name="quotedblleft" unicode="&#x201c;" horiz-adv-x="1087" 
d="M680 1577l407 -561l-208 -142l-408 562zM209 1577l407 -561l-208 -142l-408 562z" />
    <glyph glyph-name="quotedblright" unicode="&#x201d;" horiz-adv-x="1087" 
d="M879 1577l208 -141l-407 -562l-209 142zM408 1577l208 -141l-407 -562l-209 142z" />
    <glyph glyph-name="quotedblbase" unicode="&#x201e;" horiz-adv-x="1112" 
d="M879 412l208 -142l-407 -561l-209 141zM408 412l208 -142l-407 -561l-209 141z" />
    <glyph glyph-name="dagger" unicode="&#x2020;" horiz-adv-x="1064" 
d="M963 922v-215h-308v-912h-245v912h-308v215h308v409h245v-409h308z" />
    <glyph glyph-name="daggerdbl" unicode="&#x2021;" horiz-adv-x="1064" 
d="M963 420v-215h-308v-410h-245v410h-308v215h308v287h-308v215h308v409h245v-409h308v-215h-308v-287h308z" />
    <glyph glyph-name="bullet" unicode="&#x2022;" horiz-adv-x="952" 
d="M872 766q0 -163 -116 -279t-279 -116q-164 0 -279.5 116t-115.5 279q0 164 115.5 279.5t279.5 115.5q163 0 279 -115.5t116 -279.5z" />
    <glyph glyph-name="ellipsis" unicode="&#x2026;" horiz-adv-x="1679" 
d="M1536 352v-352h-246v352h246zM963 352v-352h-246v352h246zM389 352v-352h-246v352h246z" />
    <glyph glyph-name="perthousand" unicode="&#x2030;" horiz-adv-x="2707" 
d="M2628 354q0 -163 -116.5 -279t-279.5 -116q-164 0 -279.5 116t-115.5 279q0 164 115.5 280t279.5 116q163 0 279.5 -116t116.5 -280zM1767 354q0 -163 -116 -279t-279 -116q-164 0 -279.5 116t-115.5 279q0 164 115.5 280t279.5 116q163 0 279 -116t116 -280zM1264 1577
l188 -107l-872 -1511l-189 107zM872 1180q0 -163 -116 -279.5t-279 -116.5q-164 0 -279.5 116.5t-115.5 279.5q0 164 115.5 279.5t279.5 115.5q163 0 279 -115.5t116 -279.5zM2433 354q0 84 -59.5 147.5t-141.5 63.5t-141 -63.5t-59 -147.5t59 -147.5t141 -63.5t141.5 63.5
t59.5 147.5zM1573 354q0 84 -59.5 147.5t-141.5 63.5t-141.5 -63.5t-59.5 -147.5t59.5 -147.5t141.5 -63.5t141.5 63.5t59.5 147.5zM678 1180q0 84 -59.5 147.5t-141.5 63.5t-141.5 -63.5t-59.5 -147.5t59.5 -147.5t141.5 -63.5t141.5 63.5t59.5 147.5z" />
    <glyph glyph-name="guilsinglleft" unicode="&#x2039;" horiz-adv-x="632" 
d="M367 512l204 -207l-151 -151l-359 356l359 358l151 -151z" />
    <glyph glyph-name="guilsinglright" unicode="&#x203a;" horiz-adv-x="632" 
d="M213 868l358 -358l-358 -356l-152 151l205 205l-205 207z" />
    <glyph glyph-name="Euro" unicode="&#x20ac;" horiz-adv-x="1941" 
d="M1851 1077l-221 -92q-62 168 -205 272.5t-319 104.5q-153 0 -281.5 -79.5t-203.5 -213.5h487v-213h-559q-6 -43 -6 -88q0 -44 6 -88h559v-213h-487q75 -134 203.5 -213.5t281.5 -79.5q176 0 318 104.5t204 272.5l223 -92q-94 -223 -296.5 -361.5t-450.5 -138.5
q-252 0 -456.5 141t-295.5 367h-260v213h207q-4 29 -4 88t4 88h-207v213h260q91 226 295.5 367t456.5 141q249 0 452 -138.5t295 -361.5z" />
    <glyph glyph-name="minus" unicode="&#x2212;" horiz-adv-x="1290" 
d="M1208 874v-215h-1126v215h1126z" />
    </font>
</defs>
</svg>
