<?xml version="1.0" encoding="utf-8"?>
<!-- Generator: Adobe Illustrator 25.4.1, SVG Export Plug-In . SVG Version: 6.00 Build 0)  -->
<svg version="1.1" id="Capa_1" xmlns="http://www.w3.org/2000/svg" xmlns:xlink="http://www.w3.org/1999/xlink" x="0px" y="0px"
	 viewBox="0 0 22.6 14.3" style="enable-background:new 0 0 22.6 14.3;" xml:space="preserve">
<g id="Group_159" transform="translate(-20 69)">
	<path id="Path_2" d="M42.6-61.8c0-0.2-0.1-0.4-0.2-0.5l-6-6.4c-0.3-0.3-0.8-0.3-1.1,0c-0.3,0.3-0.3,0.8,0,1.1l4.8,5.1H20.8
		c-0.4,0-0.8,0.3-0.8,0.8c0,0,0,0,0,0c0,0.4,0.3,0.8,0.8,0.8c0,0,0,0,0,0h19.4l-4.8,5.1c-0.3,0.3-0.3,0.8,0,1.1
		c0.3,0.3,0.8,0.3,1.1,0l6-6.4C42.6-61.4,42.6-61.6,42.6-61.8L42.6-61.8z"/>
</g>
</svg>
