<?xml version="1.0" encoding="UTF-8"?>
<svg width="662px" height="81px" viewBox="0 0 662 81" version="1.1" xmlns="http://www.w3.org/2000/svg" xmlns:xlink="http://www.w3.org/1999/xlink">
    <title>WGSANA</title>
    <g id="Page-1" stroke="none" stroke-width="1" fill="none" fill-rule="evenodd">
        <g id="Group-3" transform="translate(-141.000000, -362.000000)" fill="#EC1C24" fill-rule="nonzero">
            <g id="WGSANA" transform="translate(141.889000, 362.016000)">
                <polygon id="Path" points="67.6839237 78.6920981 49.7002725 31.3896458 31.7166213 78.6920981 19.9455041 78.6920981 0 1.30790191 13.4059946 1.30790191 27.4659401 57.5476839 49.7002725 0 71.8256131 57.5476839 85.9945504 1.30790191 99.5095368 1.30790191 79.4550409 78.6920981"></polygon>
                <path d="M161.19891,80 C149.064487,80 139.055404,76.1852861 131.171662,68.5558583 C123.28792,60.9264305 119.346049,51.4078111 119.346049,40 C119.346049,28.7375114 123.215259,19.2552225 130.953678,11.5531335 C138.692098,3.8510445 148.337875,0 159.891008,0 C172.243415,0 182.234332,3.88737511 189.86376,11.6621253 L181.144414,20.7084469 C175.5495,15.1135332 168.465032,12.3160763 159.891008,12.3160763 C151.898274,12.3160763 145.286104,14.986376 140.054496,20.3269755 C134.822888,25.6675749 132.207084,32.2252498 132.207084,40 C132.207084,47.9927339 134.841054,54.6049046 140.108992,59.8365123 C145.37693,65.0681199 152.370572,67.6839237 161.089918,67.6839237 C169.373297,67.6839237 175.5495,66.0127157 179.618529,62.6702997 L179.618529,45.4495913 L160.217984,45.4495913 L160.217984,33.4604905 L192.043597,33.4604905 L192.043597,68.8828338 C188.701181,72.5158946 184.268847,75.2770209 178.746594,77.1662125 C173.224342,79.0554042 167.375114,80 161.19891,80 Z" id="Path"></path>
                <path d="M269.86376,80 C263.614896,80 258.056312,78.6739328 253.188011,76.0217984 C248.319709,73.3696639 244.977293,70.0454133 243.160763,66.0490463 L250.027248,61.1444142 C254.604905,68.4831971 261.253406,72.1525886 269.972752,72.1525886 C274.477748,72.1525886 278.201635,70.9900091 281.144414,68.6648501 C284.087193,66.3396912 285.558583,63.2515895 285.558583,59.400545 C285.558583,52.9336966 281.81653,48.2470481 274.332425,45.3405995 L262.888283,40.9809264 C256.857402,38.7284287 252.497729,35.9673025 249.809264,32.6975477 C247.120799,29.4277929 245.776567,25.1407811 245.776567,19.8365123 C245.776567,13.8782925 248.010899,9.08265213 252.479564,5.44959128 C256.948229,1.81653043 262.597639,0 269.427793,0 C274.150772,0 278.419619,0.980926431 282.234332,2.94277929 C286.049046,4.90463215 289.082652,7.44777475 291.33515,10.5722071 L284.904632,15.8038147 C280.472298,10.4995459 275.20436,7.84741144 269.100817,7.84741144 C264.813806,7.84741144 261.235241,8.955495 258.365123,11.1716621 C255.495005,13.3878292 254.059946,16.239782 254.059946,19.7275204 C254.059946,23.1425976 254.950045,25.8128974 256.730245,27.7384196 C258.510445,29.6639419 261.47139,31.4259764 265.613079,33.0245232 L275.858311,36.9482289 C281.889192,39.2733878 286.394187,42.1798365 289.373297,45.6675749 C292.352407,49.1553134 293.841962,53.6603088 293.841962,59.1825613 C293.841962,65.5767484 291.625795,70.6448683 287.19346,74.386921 C282.761126,78.1289737 276.984559,80 269.86376,80 Z" id="Path"></path>
                <path d="M339.618529,78.6920981 L374.059946,1.30790191 L380.708447,1.30790191 L415.258856,78.6920981 L406.53951,78.6920981 L395.749319,54.6049046 L358.80109,54.6049046 L348.119891,78.6920981 L339.618529,78.6920981 Z M377.220708,12.9700272 L362.179837,46.866485 L392.370572,46.866485 L377.220708,12.9700272 Z" id="Shape"></path>
                <polygon id="Path" points="532.752044 78.6920981 525.449591 78.6920981 476.076294 15.3678474 476.076294 78.6920981 467.792916 78.6920981 467.792916 1.30790191 475.095368 1.30790191 524.468665 64.6321526 524.468665 1.30790191 532.752044 1.30790191"></polygon>
                <path d="M585.286104,78.6920981 L619.72752,1.30790191 L626.376022,1.30790191 L660.926431,78.6920981 L652.207084,78.6920981 L641.416894,54.6049046 L604.468665,54.6049046 L593.787466,78.6920981 L585.286104,78.6920981 Z M622.888283,12.9700272 L607.847411,46.866485 L638.038147,46.866485 L622.888283,12.9700272 Z" id="Shape"></path>
            </g>
        </g>
    </g>
</svg>