<?xml version="1.0" encoding="utf-8"?>
<!-- Generator: Adobe Illustrator 25.4.1, SVG Export Plug-In . SVG Version: 6.00 Build 0)  -->
<svg version="1.1" id="Capa_1" xmlns="http://www.w3.org/2000/svg" xmlns:xlink="http://www.w3.org/1999/xlink" x="0px" y="0px"
	 viewBox="0 0 22.6 14.3" style="enable-background:new 0 0 22.6 14.3;" xml:space="preserve">
<g id="Group_159" transform="translate(-20 69)">
	<path id="Path_2" d="M20-61.8c0,0.2,0.1,0.4,0.2,0.5l6,6.4c0.3,0.3,0.8,0.3,1.1,0c0.3-0.3,0.3-0.8,0-1.1l-4.8-5.1h19.4
		c0.4,0,0.8-0.3,0.8-0.8l0,0c0-0.4-0.3-0.8-0.8-0.8l0,0H22.5l4.8-5.1c0.3-0.3,0.3-0.8,0-1.1c-0.3-0.3-0.8-0.3-1.1,0l-6,6.4
		C20.1-62.2,20-62,20-61.8L20-61.8z"/>
</g>
</svg>
