<?xml version="1.0" standalone="no"?>
<!DOCTYPE svg PUBLIC "-//W3C//DTD SVG 20010904//EN"
 "http://www.w3.org/TR/2001/REC-SVG-20010904/DTD/svg10.dtd">
<svg version="1.0" xmlns="http://www.w3.org/2000/svg"
 width="400.000000pt" height="400.000000pt" viewBox="0 0 400.000000 400.000000"
 preserveAspectRatio="xMidYMid meet">
<metadata>
Created by potrace 1.14, written by Peter Selinger 2001-2017
</metadata>
<g transform="translate(0.000000,400.000000) scale(0.100000,-0.100000)"
fill="#000000" stroke="none">
<path d="M1940 3148 c-496 -45 -918 -412 -1031 -895 -74 -320 -20 -629 158
-903 66 -102 220 -257 318 -322 79 -52 206 -118 255 -133 3 -1 35 -11 71 -22
116 -37 225 -51 369 -47 114 3 130 4 225 25 127 28 304 107 403 180 20 14 21
23 20 167 -1 84 -3 152 -5 152 -3 0 -30 -22 -61 -48 -72 -62 -131 -101 -207
-139 -329 -165 -672 -135 -960 83 -175 132 -295 324 -353 563 -18 77 -8 314
17 406 84 308 311 551 606 652 87 29 146 38 260 38 107 0 165 -8 262 -35 138
-38 283 -118 390 -215 l50 -44 1 160 1 160 -42 30 c-63 46 -188 107 -287 139
-96 31 -136 39 -250 46 -41 2 -86 6 -100 7 -14 1 -63 -1 -110 -5z"/>
</g>
</svg>
