<svg xmlns="http://www.w3.org/2000/svg" width="22.638" height="14.337" viewBox="0 0 22.638 14.337">
  <g id="Group_159" data-name="Group 159" transform="translate(-20 69)">
    <path id="Path_2" data-name="Path 2" d="M42.638-61.831a.883.883,0,0,0-.212-.519l-6.037-6.414a.755.755,0,0,0-1.067-.029.778.778,0,0,0-.029,1.067l4.846,5.141H20.755a.754.754,0,0,0-.755.755.754.754,0,0,0,.755.755H40.139l-4.846,5.141a.791.791,0,0,0,.029,1.067.756.756,0,0,0,1.067-.029l6.037-6.414a.672.672,0,0,0,.212-.519Z" transform="translate(0 0)" fill="#fff"/>
  </g>
</svg>
