<?xml version="1.0" encoding="utf-8"?>
<!-- Generator: Adobe Illustrator 25.4.1, SVG Export Plug-In . SVG Version: 6.00 Build 0)  -->
<svg version="1.1" id="Capa_1" xmlns="http://www.w3.org/2000/svg" xmlns:xlink="http://www.w3.org/1999/xlink" x="0px" y="0px"
	 viewBox="0 0 14.7 14.7" style="enable-background:new 0 0 14.7 14.7;" xml:space="preserve">
<path d="M14.5,13.4L8.4,7.3l6.1-6.1c0.3-0.3,0.3-0.8,0-1.1l0,0c-0.3-0.3-0.8-0.3-1.1,0l0,0L7.3,6.3l-6-6.1C1-0.1,0.5-0.1,0.2,0.2
	l0,0c-0.3,0.3-0.3,0.8,0,1.1l0,0l6.1,6.1l-6.1,6.1c-0.3,0.3-0.3,0.8,0,1.1l0,0c0.3,0.3,0.8,0.3,1.1,0l0,0l6.1-6.1l6.1,6.1
	c0.3,0.3,0.8,0.3,1.1,0l0,0C14.8,14.2,14.8,13.7,14.5,13.4L14.5,13.4z M7.4,7.3L7.4,7.3L7.4,7.3L7.4,7.3L7.4,7.3z"/>
</svg>
