<svg xmlns="http://www.w3.org/2000/svg" width="37" height="37.999" viewBox="0 0 37 37.999">
  <g id="Group_1984" data-name="Group 1984" transform="translate(-8.845 -18.506)">
    <path id="Path_4284" data-name="Path 4284" d="M44.845,18.506h-8a1,1,0,0,0,0,2h5.586l-10,10,1.414,1.414,10-10V27.5a1,1,0,1,0,2,0v-8A1,1,0,0,0,44.845,18.506Z"/>
    <path id="Path_4285" data-name="Path 4285" d="M22.318,42.092,10.845,53.564V47.506a1,1,0,0,0-2,0v8a1,1,0,0,0,1,1h8a1,1,0,0,0,0-2H12.733l11-11Z"/>
  </g>
</svg>
