<?xml version="1.0" encoding="UTF-8"?>
<svg width="49px" height="53px" viewBox="0 0 49 53" version="1.1" xmlns="http://www.w3.org/2000/svg" xmlns:xlink="http://www.w3.org/1999/xlink">
    <title>Path</title>
    <g id="Page-1" stroke="none" stroke-width="1" fill="none" fill-rule="evenodd">
        <g id="Group-3" transform="translate(-121.000000, -39.000000)" fill="#FFFFFF" fill-rule="nonzero">
            <g id="WGSANA" transform="translate(42.889000, 39.016000)">
                <path d="M106.488,52.848 C98.472,52.848 91.86,50.328 86.652,45.288 C81.444,40.248 78.84,33.96 78.84,26.424 C78.84,18.984 81.396,12.72 86.508,7.632 C91.62,2.544 97.992,0 105.624,0 C113.784,0 120.384,2.568 125.424,7.704 L119.664,13.68 C115.968,9.984 111.288,8.136 105.624,8.136 C100.344,8.136 95.976,9.9 92.52,13.428 C89.064,16.956 87.336,21.288 87.336,26.424 C87.336,31.704 89.076,36.072 92.556,39.528 C96.036,42.984 100.656,44.712 106.416,44.712 C111.888,44.712 115.968,43.608 118.656,41.4 L118.656,30.024 L105.84,30.024 L105.84,22.104 L126.864,22.104 L126.864,45.504 C124.656,47.904 121.728,49.728 118.08,50.976 C114.432,52.224 110.568,52.848 106.488,52.848 Z" id="Path"></path>
            </g>
        </g>
    </g>
</svg>