<?xml version="1.0" encoding="UTF-8"?>
<svg width="34px" height="53px" viewBox="0 0 34 53" version="1.1" xmlns="http://www.w3.org/2000/svg" xmlns:xlink="http://www.w3.org/1999/xlink">
    <title>Path</title>
    <g id="Page-1" stroke="none" stroke-width="1" fill="none" fill-rule="evenodd">
        <g id="Group-3" transform="translate(-203.000000, -39.000000)" fill="#FFFFFF" fill-rule="nonzero">
            <g id="WGSANA" transform="translate(42.889000, 39.016000)">
                <path d="M178.272,52.848 C174.144,52.848 170.472,51.972 167.256,50.22 C164.04,48.468 161.832,46.272 160.632,43.632 L165.168,40.392 C168.192,45.24 172.584,47.664 178.344,47.664 C181.32,47.664 183.78,46.896 185.724,45.36 C187.668,43.824 188.64,41.784 188.64,39.24 C188.64,34.968 186.168,31.872 181.224,29.952 L173.664,27.072 C169.68,25.584 166.8,23.76 165.024,21.6 C163.248,19.44 162.36,16.608 162.36,13.104 C162.36,9.168 163.836,6 166.788,3.6 C169.74,1.2 173.472,0 177.984,0 C181.104,0 183.924,0.648 186.444,1.944 C188.964,3.24 190.968,4.92 192.456,6.984 L188.208,10.44 C185.28,6.936 181.8,5.184 177.768,5.184 C174.936,5.184 172.572,5.916 170.676,7.38 C168.78,8.844 167.832,10.728 167.832,13.032 C167.832,15.288 168.42,17.052 169.596,18.324 C170.772,19.596 172.728,20.76 175.464,21.816 L182.232,24.408 C186.216,25.944 189.192,27.864 191.16,30.168 C193.128,32.472 194.112,35.448 194.112,39.096 C194.112,43.32 192.648,46.668 189.72,49.14 C186.792,51.612 182.976,52.848 178.272,52.848 Z" id="Path"></path>
            </g>
        </g>
    </g>
</svg>