<svg xmlns="http://www.w3.org/2000/svg" width="96.817" height="48.38" viewBox="0 0 96.817 48.38">
  <g id="Group_1989" data-name="Group 1989" transform="translate(-1226 -563.144)">
    <g id="Group_1987" data-name="Group 1987" transform="translate(1231.323 563.144)">
      <g id="Group_1981" data-name="Group 1981" transform="translate(21.333)">
        <path id="Path_4279" data-name="Path 4279" d="M58.329,5.692a5.673,5.673,0,0,0-3.165.962,5.692,5.692,0,0,0-8.538-2.846,5.695,5.695,0,0,0-10.746,0,5.691,5.691,0,0,0-8.856,4.73v6.526L24.25,17.835a9.9,9.9,0,0,0-2.917,7.044V29.19a9.906,9.906,0,0,0,2.917,7.046l5.695,5.692A21.881,21.881,0,0,0,45.523,48.38a18.52,18.52,0,0,0,18.5-18.5v-18.5A5.7,5.7,0,0,0,58.329,5.692Zm2.846,24.19A15.671,15.671,0,0,1,45.52,45.534a19.048,19.048,0,0,1-13.563-5.618l-5.695-5.692a7.079,7.079,0,0,1-2.083-5.031V24.881a7.069,7.069,0,0,1,2.083-5.031l.763-.763v2.257a1.423,1.423,0,1,0,2.846,0V8.538a2.846,2.846,0,0,1,5.692,0v4.269a1.423,1.423,0,1,0,2.846,0V5.692a2.846,2.846,0,0,1,5.692,0v7.115a1.423,1.423,0,1,0,2.846,0V8.538a2.846,2.846,0,1,1,5.692,0v4.269a1.423,1.423,0,1,0,2.846,0V11.383a2.846,2.846,0,0,1,5.692,0Z" transform="translate(-21.333)" fill="#fff"/>
      </g>
    </g>
    <path id="Path_4286" data-name="Path 4286" d="M473.3,105.928a1.118,1.118,0,0,0-.554-1.025l-3.327-3.327a1.164,1.164,0,0,0-1.647,1.647l1.529,1.529H455.656a1.176,1.176,0,0,0,0,2.352H469.3l-1.529,1.529a1.137,1.137,0,0,0,0,1.647,1.137,1.137,0,0,0,1.646,0l3.327-3.327A1.118,1.118,0,0,0,473.3,105.928Z" transform="translate(849.52 479.776)" fill="#fff"/>
    <path id="Path_4287" data-name="Path 4287" d="M473.3,105.928a1.118,1.118,0,0,0-.554-1.025l-3.327-3.327a1.164,1.164,0,0,0-1.647,1.647l1.529,1.529H455.656a1.176,1.176,0,0,0,0,2.352H469.3l-1.529,1.529a1.137,1.137,0,0,0,0,1.647,1.137,1.137,0,0,0,1.646,0l3.327-3.327A1.118,1.118,0,0,0,473.3,105.928Z" transform="translate(1699.298 691.633) rotate(180)" fill="#fff"/>
  </g>
</svg>
