<?xml version="1.0" encoding="UTF-8"?>
<svg width="438px" height="53px" viewBox="0 0 438 53" version="1.1" xmlns="http://www.w3.org/2000/svg" xmlns:xlink="http://www.w3.org/1999/xlink">
    <title>WGSANA</title>
    <g id="Page-1" stroke="none" stroke-width="1" fill="none" fill-rule="evenodd">
        <g id="Group-3" transform="translate(-42.000000, -39.000000)" fill="#FFFFFF" fill-rule="nonzero">
            <g id="WGSANA" transform="translate(42.889000, 39.016000)">
                <polygon id="Path" points="44.712 51.984 32.832 20.736 20.952 51.984 13.176 51.984 0 0.864 8.856 0.864 18.144 38.016 32.832 0 47.448 38.016 56.808 0.864 65.736 0.864 52.488 51.984"></polygon>
                <path d="M106.488,52.848 C98.472,52.848 91.86,50.328 86.652,45.288 C81.444,40.248 78.84,33.96 78.84,26.424 C78.84,18.984 81.396,12.72 86.508,7.632 C91.62,2.544 97.992,0 105.624,0 C113.784,0 120.384,2.568 125.424,7.704 L119.664,13.68 C115.968,9.984 111.288,8.136 105.624,8.136 C100.344,8.136 95.976,9.9 92.52,13.428 C89.064,16.956 87.336,21.288 87.336,26.424 C87.336,31.704 89.076,36.072 92.556,39.528 C96.036,42.984 100.656,44.712 106.416,44.712 C111.888,44.712 115.968,43.608 118.656,41.4 L118.656,30.024 L105.84,30.024 L105.84,22.104 L126.864,22.104 L126.864,45.504 C124.656,47.904 121.728,49.728 118.08,50.976 C114.432,52.224 110.568,52.848 106.488,52.848 Z" id="Path"></path>
                <path d="M178.272,52.848 C174.144,52.848 170.472,51.972 167.256,50.22 C164.04,48.468 161.832,46.272 160.632,43.632 L165.168,40.392 C168.192,45.24 172.584,47.664 178.344,47.664 C181.32,47.664 183.78,46.896 185.724,45.36 C187.668,43.824 188.64,41.784 188.64,39.24 C188.64,34.968 186.168,31.872 181.224,29.952 L173.664,27.072 C169.68,25.584 166.8,23.76 165.024,21.6 C163.248,19.44 162.36,16.608 162.36,13.104 C162.36,9.168 163.836,6 166.788,3.6 C169.74,1.2 173.472,0 177.984,0 C181.104,0 183.924,0.648 186.444,1.944 C188.964,3.24 190.968,4.92 192.456,6.984 L188.208,10.44 C185.28,6.936 181.8,5.184 177.768,5.184 C174.936,5.184 172.572,5.916 170.676,7.38 C168.78,8.844 167.832,10.728 167.832,13.032 C167.832,15.288 168.42,17.052 169.596,18.324 C170.772,19.596 172.728,20.76 175.464,21.816 L182.232,24.408 C186.216,25.944 189.192,27.864 191.16,30.168 C193.128,32.472 194.112,35.448 194.112,39.096 C194.112,43.32 192.648,46.668 189.72,49.14 C186.792,51.612 182.976,52.848 178.272,52.848 Z" id="Path"></path>
                <path d="M224.352,51.984 L247.104,0.864 L251.496,0.864 L274.32,51.984 L268.56,51.984 L261.432,36.072 L237.024,36.072 L229.968,51.984 L224.352,51.984 Z M249.192,8.568 L239.256,30.96 L259.2,30.96 L249.192,8.568 Z" id="Shape"></path>
                <polygon id="Path" points="351.936 51.984 347.112 51.984 314.496 10.152 314.496 51.984 309.024 51.984 309.024 0.864 313.848 0.864 346.464 42.696 346.464 0.864 351.936 0.864"></polygon>
                <path d="M386.64,51.984 L409.392,0.864 L413.784,0.864 L436.608,51.984 L430.848,51.984 L423.72,36.072 L399.312,36.072 L392.256,51.984 L386.64,51.984 Z M411.48,8.568 L401.544,30.96 L421.488,30.96 L411.48,8.568 Z" id="Shape"></path>
            </g>
        </g>
    </g>
</svg>