<?xml version="1.0" encoding="utf-8"?>
<!-- Generator: Adobe Illustrator 25.4.1, SVG Export Plug-In . SVG Version: 6.00 Build 0)  -->
<svg version="1.1" id="Grupo_159" xmlns="http://www.w3.org/2000/svg" xmlns:xlink="http://www.w3.org/1999/xlink" x="0px" y="0px"
	 viewBox="0 0 22.6 14.3" style="enable-background:new 0 0 22.6 14.3;" xml:space="preserve">
<style type="text/css">
	.st0{fill:#FFFFFF;}
</style>
<path id="Trazado_2" class="st0" d="M22.6,7.2c0-0.2-0.1-0.4-0.2-0.5l-6-6.4c-0.3-0.3-0.8-0.3-1.1,0C15,0.5,15,1,15.3,1.3l4.8,5.1
	H0.8C0.3,6.4,0,6.8,0,7.2c0,0,0,0,0,0c0,0.4,0.3,0.8,0.8,0.8c0,0,0,0,0,0h19.4l-4.8,5.1c-0.3,0.3-0.3,0.8,0,1.1
	c0.3,0.3,0.8,0.3,1.1,0l6-6.4C22.6,7.6,22.6,7.4,22.6,7.2L22.6,7.2z"/>
</svg>
