<?xml version="1.0" encoding="utf-8"?>
<!-- Generator: Adobe Illustrator 25.4.1, SVG Export Plug-In . SVG Version: 6.00 Build 0)  -->
<svg version="1.1" id="Capa_1" xmlns="http://www.w3.org/2000/svg" xmlns:xlink="http://www.w3.org/1999/xlink" x="0px" y="0px"
	 viewBox="0 0 256 256" style="enable-background:new 0 0 256 256;" xml:space="preserve">
<style type="text/css">
	.st0{fill:#EC1C24;}
</style>
<desc>Created with Fabric.js 1.7.22</desc>
<g>
	<path class="st0" d="M225.2,133.6h23c2.9,0,5.5-2.1,5.8-5c0.3-3.3-2.3-6.2-5.6-6.2h-23.3c-2.6-12.6-13.8-22.2-27.2-22.2
		c-13.4,0-24.6,9.5-27.2,22.2l-162.9,0c-3,0-5.6,2.2-5.9,5.1c-0.3,3.3,2.3,6.1,5.6,6.1h163.2c2.6,12.6,13.8,22.2,27.2,22.2
		S222.6,146.2,225.2,133.6z M181.4,128C181.4,128,181.4,128,181.4,128C181.4,128,181.4,128,181.4,128c0-9.2,7.4-16.6,16.6-16.6
		c9.1,0,16.6,7.4,16.6,16.6s-7.4,16.6-16.6,16.6C188.9,144.6,181.4,137.1,181.4,128z"/>
	<path class="st0" d="M149,66.7l99.2,0c2.9,0,5.5-2.1,5.8-5c0.3-3.3-2.3-6.2-5.6-6.2H149c-2.6-12.6-13.8-22.2-27.2-22.2
		c-13.4,0-24.6,9.5-27.2,22.2l-86.8,0c-3,0-5.6,2.2-5.9,5.1c-0.3,3.3,2.3,6.1,5.6,6.1h87.1c2.6,12.6,13.8,22.2,27.2,22.2
		C135.2,88.9,146.4,79.3,149,66.7z M105.3,61.1c0-9.1,7.4-16.6,16.6-16.6s16.6,7.4,16.6,16.6s-7.4,16.6-16.6,16.6
		S105.3,70.2,105.3,61.1z"/>
	<path class="st0" d="M71.2,222.7c13.4,0,24.6-9.5,27.2-22.2h149.8c2.9,0,5.5-2.1,5.8-5c0.3-3.3-2.3-6.2-5.6-6.2h-150
		c-2.6-12.6-13.8-22.2-27.2-22.2c-13.4,0-24.6,9.5-27.2,22.2H7.9c-3,0-5.6,2.2-5.9,5.1c-0.3,3.3,2.3,6.1,5.6,6.1H44
		C46.6,213.1,57.9,222.7,71.2,222.7z M54.7,194.9c0-9.1,7.4-16.5,16.6-16.5c9.1,0,16.5,7.4,16.5,16.5s-7.4,16.6-16.5,16.6
		S54.7,204,54.7,194.9z"/>
</g>
</svg>
