<?xml version="1.0" encoding="utf-8"?>
<!-- Generator: Adobe Illustrator 25.2.3, SVG Export Plug-In . SVG Version: 6.00 Build 0)  -->
<svg version="1.1" id="Capa_1" xmlns="http://www.w3.org/2000/svg" xmlns:xlink="http://www.w3.org/1999/xlink" x="0px" y="0px"
	 viewBox="0 0 260.2 227.6" style="enable-background:new 0 0 260.2 227.6;" xml:space="preserve">
<style type="text/css">
	.st0{enable-background:new    ;}
	.st1{fill:#EC1C24;}
</style>
<g class="st0">
	<path class="st1" d="M86.6,0v32.5c-10.3,5.6-17.9,15.6-23.1,30.1c-5.1,14.5-7.7,33.6-7.7,57.3v10.1h41.7v97.6H0v-72.9
		c0-44.2,7.2-79.2,21.5-105C35.9,23.9,57.6,7.3,86.6,0z M249.2,0v32.5c-10.3,5.6-17.9,15.6-23.1,30.1c-5.1,14.5-7.7,33.6-7.7,57.3
		v10.1h41.7v97.6h-97.6v-72.9c0-44.2,7.2-79.2,21.5-105C198.5,23.9,220.2,7.3,249.2,0z"/>
</g>
</svg>
